SplineFontDB: 3.2
FontName: Lato-Share-BoldItalic
FullName: Lato Share Bold Italic
FamilyName: Lato Share
Weight: Bold
Copyright: Copyright (c) 2010-2011 by tyPoland Lukasz Dziedzic with Reserved Font Name "Lato". Licensed under the SIL Open Font License, Version 1.1.\n"Fair and Share" tax glyphs by Vector Hasting and shared under CC 4.0 SA-BY\n
Version: 1.104; Western+Polish opensource
ItalicAngle: -7
UnderlinePosition: -204.8
UnderlineWidth: 190.464
Ascent: 1649
Descent: 399
InvalidEm: 0
sfntRevision: 0x00011aa0
LayerCount: 2
Layer: 0 1 "Back" 1
Layer: 1 1 "Fore" 0
XUID: [1021 508 542950195 23143]
StyleMap: 0x0001
FSType: 0
OS2Version: 3
OS2_WeightWidthSlopeOnly: 0
OS2_UseTypoMetrics: 0
CreationTime: 1315810800
ModificationTime: 1758671751
PfmFamily: 17
TTFWeight: 700
TTFWidth: 5
LineGap: 0
VLineGap: 0
Panose: 2 15 10 2 2 2 4 3 2 3
OS2TypoAscent: 1649
OS2TypoAOffset: 0
OS2TypoDescent: -399
OS2TypoDOffset: 0
OS2TypoLinegap: 410
OS2WinAscent: 2021
OS2WinAOffset: 0
OS2WinDescent: 436
OS2WinDOffset: 0
HheadAscent: 2021
HheadAOffset: 0
HheadDescent: -436
HheadDOffset: 0
OS2SubXSize: 1434
OS2SubYSize: 1331
OS2SubXOff: 0
OS2SubYOff: 287
OS2SupXSize: 1434
OS2SupYSize: 1331
OS2SupXOff: 0
OS2SupYOff: 977
OS2StrikeYSize: 190
OS2StrikeYPos: 512
OS2CapHeight: 1492
OS2XHeight: 1062
OS2FamilyClass: 2051
OS2Vendor: 'tyPL'
OS2CodePages: 20000093.00000000
OS2UnicodeRanges: 800000af.4000604a.00000000.00000000
Lookup: 1 0 0 "'case' Case-Sensitive Forms in Latin lookup 0" { "'case' Case-Sensitive Forms in Latin lookup 0 subtable"  } ['case' ('DFLT' <'dflt' > 'latn' <'dflt' > ) ]
Lookup: 4 0 1 "'liga' Standard Ligatures in Latin lookup 1" { "'liga' Standard Ligatures in Latin lookup 1 subtable"  } ['liga' ('DFLT' <'dflt' > 'latn' <'dflt' > ) ]
Lookup: 1 0 0 "'sups' Superscript in Latin lookup 2" { "'sups' Superscript in Latin lookup 2 subtable" ("superior") } ['sups' ('DFLT' <'dflt' > 'latn' <'dflt' > ) ]

StartChar: .notdef
Encoding: 65536 -1 0
Width: 1149
GlyphClass: 1
Flags: W
LayerCount: 2
Fore
SplineSet
236 1180 m 1,0,1
 299 1229 299 1229 379 1261 c 128,-1,2
 459 1293 459 1293 566 1293 c 0,3,4
 646 1293 646 1293 707 1272.5 c 128,-1,5
 768 1252 768 1252 810 1215.5 c 128,-1,6
 852 1179 852 1179 873.5 1126.5 c 128,-1,7
 895 1074 895 1074 895 1011 c 0,8,9
 895 955 895 955 881.5 913.5 c 128,-1,10
 868 872 868 872 848 842.5 c 128,-1,11
 828 813 828 813 804 791.5 c 128,-1,12
 780 770 780 770 757.5 751.5 c 128,-1,13
 735 733 735 733 717.5 715.5 c 128,-1,14
 700 698 700 698 694 677 c 2,15,-1
 667 585 l 1,16,-1
 450 585 l 1,17,-1
 427 699 l 2,18,19
 424 715 424 715 424 731 c 0,20,21
 424 763 424 763 437.5 786.5 c 128,-1,22
 451 810 451 810 470 829.5 c 128,-1,23
 489 849 489 849 512.5 865.5 c 128,-1,24
 536 882 536 882 555 900.5 c 128,-1,25
 574 919 574 919 587.5 940.5 c 128,-1,26
 601 962 601 962 601 991 c 0,27,28
 601 1015 601 1015 587.5 1031 c 128,-1,29
 574 1047 574 1047 538 1047 c 0,30,31
 505 1047 505 1047 483.5 1041.5 c 128,-1,32
 462 1036 462 1036 446 1029.5 c 128,-1,33
 430 1023 430 1023 416 1018 c 128,-1,34
 402 1013 402 1013 384 1013 c 0,35,36
 340 1013 340 1013 319 1050 c 2,37,-1
 236 1180 l 1,0,1
383 339 m 256,38,39
 383 373 383 373 395.5 402 c 128,-1,40
 408 431 408 431 430.5 452.5 c 128,-1,41
 453 474 453 474 482.5 486.5 c 128,-1,42
 512 499 512 499 548 499 c 0,43,44
 582 499 582 499 611.5 486.5 c 128,-1,45
 641 474 641 474 663 452.5 c 128,-1,46
 685 431 685 431 698 402 c 128,-1,47
 711 373 711 373 711 339 c 256,48,49
 711 305 711 305 698 276 c 128,-1,50
 685 247 685 247 663 225.5 c 128,-1,51
 641 204 641 204 611.5 191.5 c 128,-1,52
 582 179 582 179 548 179 c 0,53,54
 512 179 512 179 482.5 191.5 c 128,-1,55
 453 204 453 204 430.5 225.5 c 128,-1,56
 408 247 408 247 395.5 276 c 128,-1,57
 383 305 383 305 383 339 c 256,38,39
41 1492 m 1,58,-1
 1109 1492 l 1,59,-1
 1109 0 l 1,60,-1
 41 0 l 1,61,-1
 41 1492 l 1,58,-1
120 82 m 1,62,-1
 1020 82 l 1,63,-1
 1020 1410 l 1,64,-1
 120 1410 l 1,65,-1
 120 82 l 1,62,-1
EndSplineSet
Validated: 1
EndChar

StartChar: exclam
Encoding: 33 33 4
Width: 714
GlyphClass: 1
Flags: W
LayerCount: 2
Fore
SplineSet
625 1492 m 1,0,-1
 553 904 l 2,1,2
 542 811 542 811 519.5 718.5 c 128,-1,3
 497 626 497 626 467 528 c 1,4,-1
 260 528 l 1,5,6
 258 567 258 567 256.5 605 c 128,-1,7
 255 643 255 643 255 681 c 0,8,9
 255 737 255 737 258 792.5 c 128,-1,10
 261 848 261 848 268 904 c 2,11,-1
 340 1492 l 1,12,-1
 625 1492 l 1,0,-1
154 161 m 256,13,14
 154 198 154 198 167.5 229.5 c 128,-1,15
 181 261 181 261 205 284.5 c 128,-1,16
 229 308 229 308 262 322 c 128,-1,17
 295 336 295 336 334 336 c 0,18,19
 372 336 372 336 404.5 322 c 128,-1,20
 437 308 437 308 461.5 284.5 c 128,-1,21
 486 261 486 261 500 229.5 c 128,-1,22
 514 198 514 198 514 161 c 256,23,24
 514 124 514 124 500 91.5 c 128,-1,25
 486 59 486 59 461.5 35.5 c 128,-1,26
 437 12 437 12 404.5 -1 c 128,-1,27
 372 -14 372 -14 334 -14 c 0,28,29
 295 -14 295 -14 262 -1 c 128,-1,30
 229 12 229 12 205 35.5 c 128,-1,31
 181 59 181 59 167.5 91.5 c 128,-1,32
 154 124 154 124 154 161 c 256,13,14
EndSplineSet
Validated: 1
EndChar

StartChar: quotedbl
Encoding: 34 34 5
Width: 847
GlyphClass: 1
Flags: W
LayerCount: 2
Fore
SplineSet
487 1490 m 1,0,-1
 451 1197 l 1,1,-1
 403 1035 l 2,2,3
 388 982 388 982 361.5 954 c 128,-1,4
 335 926 335 926 283 926 c 0,5,6
 238 926 238 926 217 954 c 128,-1,7
 196 982 196 982 193 1035 c 2,8,-1
 184 1197 l 1,9,-1
 221 1490 l 1,10,-1
 487 1490 l 1,0,-1
872 1490 m 1,11,-1
 836 1197 l 1,12,-1
 788 1035 l 2,13,14
 773 982 773 982 746.5 954 c 128,-1,15
 720 926 720 926 668 926 c 0,16,17
 623 926 623 926 602 954 c 128,-1,18
 581 982 581 982 578 1035 c 2,19,-1
 569 1197 l 1,20,-1
 606 1490 l 1,21,-1
 872 1490 l 1,11,-1
EndSplineSet
Validated: 1
EndChar

StartChar: numbersign
Encoding: 35 35 6
Width: 1187
GlyphClass: 1
Flags: W
LayerCount: 2
Fore
SplineSet
857 407 m 1,0,-1
 735 0 l 1,1,-1
 592 0 l 2,2,3
 558 0 558 0 537.5 24 c 128,-1,4
 517 48 517 48 517 85 c 0,5,6
 517 93 517 93 518 102.5 c 128,-1,7
 519 112 519 112 522 122 c 2,8,-1
 607 407 l 1,9,-1
 430 407 l 1,10,-1
 342 106 l 2,11,12
 334 77 334 77 318 57 c 128,-1,13
 302 37 302 37 282 24 c 128,-1,14
 262 11 262 11 239 5.5 c 128,-1,15
 216 0 216 0 193 0 c 2,16,-1
 55 0 l 1,17,-1
 179 407 l 1,18,-1
 84 407 l 2,19,20
 50 407 50 407 31 421.5 c 128,-1,21
 12 436 12 436 12 469 c 0,22,23
 12 495 12 495 23 526 c 2,24,-1
 51 621 l 1,25,-1
 234 621 l 1,26,-1
 309 871 l 1,27,-1
 102 871 l 1,28,-1
 141 995 l 2,29,30
 155 1041 155 1041 188.5 1062 c 128,-1,31
 222 1083 222 1083 289 1083 c 2,32,-1
 365 1083 l 1,33,-1
 457 1392 l 2,34,35
 471 1439 471 1439 510.5 1464.5 c 128,-1,36
 550 1490 550 1490 598 1490 c 2,37,-1
 739 1490 l 1,38,-1
 615 1083 l 1,39,-1
 792 1083 l 1,40,-1
 915 1490 l 1,41,-1
 1053 1490 l 2,42,43
 1092 1490 1092 1490 1115.5 1469.5 c 128,-1,44
 1139 1449 1139 1449 1139 1416 c 0,45,46
 1139 1402 1139 1402 1135 1390 c 2,47,-1
 1043 1083 l 1,48,-1
 1245 1083 l 1,49,-1
 1204 961 l 2,50,51
 1189 915 1189 915 1156 893 c 128,-1,52
 1123 871 1123 871 1059 871 c 2,53,-1
 987 871 l 1,54,-1
 912 621 l 1,55,-1
 1030 621 l 2,56,57
 1064 621 1064 621 1083 606 c 128,-1,58
 1102 591 1102 591 1102 558 c 0,59,60
 1102 532 1102 532 1092 501 c 2,61,-1
 1063 407 l 1,62,-1
 857 407 l 1,0,-1
484 621 m 1,63,-1
 663 621 l 1,64,-1
 737 871 l 1,65,-1
 561 871 l 1,66,-1
 484 621 l 1,63,-1
EndSplineSet
Validated: 1
EndChar

StartChar: dollar
Encoding: 36 36 7
Width: 1187
GlyphClass: 1
Flags: W
LayerCount: 2
Fore
SplineSet
384 -6 m 1,0,1
 327 3 327 3 272 20.5 c 128,-1,2
 217 38 217 38 168 62 c 128,-1,3
 119 86 119 86 76.5 115.5 c 128,-1,4
 34 145 34 145 2 180 c 1,5,-1
 115 316 l 2,6,7
 129 333 129 333 150 344.5 c 128,-1,8
 171 356 171 356 195 356 c 0,9,10
 220 356 220 356 243 343 c 128,-1,11
 266 330 266 330 294.5 311 c 128,-1,12
 323 292 323 292 357.5 272.5 c 128,-1,13
 392 253 392 253 438 241 c 1,14,-1
 525 642 l 1,15,16
 459 660 459 660 395.5 686 c 128,-1,17
 332 712 332 712 280.5 753 c 128,-1,18
 229 794 229 794 197.5 856 c 128,-1,19
 166 918 166 918 166 1010 c 256,20,21
 166 1102 166 1102 204 1188.5 c 128,-1,22
 242 1275 242 1275 313 1343 c 128,-1,23
 384 1411 384 1411 485.5 1454 c 128,-1,24
 587 1497 587 1497 714 1503 c 1,25,-1
 739 1619 l 2,26,27
 745 1648 745 1648 770.5 1670 c 128,-1,28
 796 1692 796 1692 829 1692 c 2,29,-1
 942 1692 l 1,30,-1
 898 1491 l 1,31,32
 1007 1471 1007 1471 1080 1426 c 128,-1,33
 1153 1381 1153 1381 1202 1328 c 1,34,-1
 1114 1219 l 2,35,36
 1094 1193 1094 1193 1075.5 1182 c 128,-1,37
 1057 1171 1057 1171 1032 1171 c 0,38,39
 1017 1171 1017 1171 997.5 1179 c 128,-1,40
 978 1187 978 1187 954.5 1198.5 c 128,-1,41
 931 1210 931 1210 903.5 1222.5 c 128,-1,42
 876 1235 876 1235 844 1244 c 1,43,-1
 762 867 l 1,44,45
 828 847 828 847 893 821.5 c 128,-1,46
 958 796 958 796 1010 756.5 c 128,-1,47
 1062 717 1062 717 1094 659.5 c 128,-1,48
 1126 602 1126 602 1126 518 c 0,49,50
 1126 416 1126 416 1088 323 c 128,-1,51
 1050 230 1050 230 977.5 158.5 c 128,-1,52
 905 87 905 87 802 41.5 c 128,-1,53
 699 -4 699 -4 569 -13 c 1,54,-1
 541 -147 l 2,55,56
 536 -174 536 -174 510 -196 c 128,-1,57
 484 -218 484 -218 451 -218 c 2,58,-1
 338 -218 l 1,59,-1
 384 -6 l 1,0,1
827 446 m 0,60,61
 827 500 827 500 792 532.5 c 128,-1,62
 757 565 757 565 701 588 c 1,63,-1
 624 233 l 1,64,65
 726 248 726 248 776.5 302 c 128,-1,66
 827 356 827 356 827 446 c 0,60,61
461 1076 m 0,67,68
 461 1021 461 1021 496 986.5 c 128,-1,69
 531 952 531 952 588 928 c 1,70,-1
 658 1251 l 1,71,72
 604 1244 604 1244 566 1227.5 c 128,-1,73
 528 1211 528 1211 504.5 1188 c 128,-1,74
 481 1165 481 1165 471 1136.5 c 128,-1,75
 461 1108 461 1108 461 1076 c 0,67,68
EndSplineSet
Validated: 1
EndChar

StartChar: percent
Encoding: 37 37 8
Width: 1548
GlyphClass: 1
Flags: W
LayerCount: 2
Fore
SplineSet
791 1183 m 0,0,1
 791 1088 791 1088 757.5 1010 c 128,-1,2
 724 932 724 932 670 876.5 c 128,-1,3
 616 821 616 821 547.5 791 c 128,-1,4
 479 761 479 761 408 761 c 0,5,6
 342 761 342 761 289 784 c 128,-1,7
 236 807 236 807 198 849 c 128,-1,8
 160 891 160 891 139.5 949.5 c 128,-1,9
 119 1008 119 1008 119 1078 c 0,10,11
 119 1173 119 1173 148.5 1251.5 c 128,-1,12
 178 1330 178 1330 229.5 1386.5 c 128,-1,13
 281 1443 281 1443 350.5 1473.5 c 128,-1,14
 420 1504 420 1504 500 1504 c 0,15,16
 566 1504 566 1504 619.5 1481 c 128,-1,17
 673 1458 673 1458 711.5 1415.5 c 128,-1,18
 750 1373 750 1373 770.5 1314 c 128,-1,19
 791 1255 791 1255 791 1183 c 0,0,1
555 1181 m 0,20,21
 555 1255 555 1255 533 1285 c 128,-1,22
 511 1315 511 1315 475 1315 c 0,23,24
 447 1315 447 1315 424.5 1302 c 128,-1,25
 402 1289 402 1289 387 1261 c 128,-1,26
 372 1233 372 1233 363 1188 c 128,-1,27
 354 1143 354 1143 354 1078 c 0,28,29
 354 1007 354 1007 375 979.5 c 128,-1,30
 396 952 396 952 432 952 c 0,31,32
 459 952 459 952 481.5 963.5 c 128,-1,33
 504 975 504 975 520.5 1001.5 c 128,-1,34
 537 1028 537 1028 546 1072 c 128,-1,35
 555 1116 555 1116 555 1181 c 0,20,21
1251 1445 m 2,36,37
 1268 1461 1268 1461 1291.5 1475.5 c 128,-1,38
 1315 1490 1315 1490 1354 1490 c 2,39,-1
 1577 1490 l 1,40,-1
 358 43 l 2,41,42
 341 26 341 26 318 13 c 128,-1,43
 295 0 295 0 262 0 c 2,44,-1
 35 0 l 1,45,-1
 1251 1445 l 2,36,37
1489 403 m 0,46,47
 1489 308 1489 308 1455.5 230.5 c 128,-1,48
 1422 153 1422 153 1368.5 97.5 c 128,-1,49
 1315 42 1315 42 1246.5 12 c 128,-1,50
 1178 -18 1178 -18 1106 -18 c 0,51,52
 1040 -18 1040 -18 987 5 c 128,-1,53
 934 28 934 28 896 70 c 128,-1,54
 858 112 858 112 837.5 170 c 128,-1,55
 817 228 817 228 817 298 c 0,56,57
 817 394 817 394 847 473 c 128,-1,58
 877 552 877 552 928 608.5 c 128,-1,59
 979 665 979 665 1048.5 695.5 c 128,-1,60
 1118 726 1118 726 1198 726 c 0,61,62
 1264 726 1264 726 1317.5 702.5 c 128,-1,63
 1371 679 1371 679 1409.5 637 c 128,-1,64
 1448 595 1448 595 1468.5 535 c 128,-1,65
 1489 475 1489 475 1489 403 c 0,46,47
1253 401 m 0,66,67
 1253 476 1253 476 1231 505 c 128,-1,68
 1209 534 1209 534 1174 534 c 0,69,70
 1146 534 1146 534 1123.5 521.5 c 128,-1,71
 1101 509 1101 509 1085.5 481 c 128,-1,72
 1070 453 1070 453 1061.5 407.5 c 128,-1,73
 1053 362 1053 362 1053 298 c 0,74,75
 1053 228 1053 228 1074 200 c 128,-1,76
 1095 172 1095 172 1130 172 c 0,77,78
 1157 172 1157 172 1179.5 183.5 c 128,-1,79
 1202 195 1202 195 1218.5 222 c 128,-1,80
 1235 249 1235 249 1244 292.5 c 128,-1,81
 1253 336 1253 336 1253 401 c 0,66,67
EndSplineSet
Validated: 1
EndChar

StartChar: ampersand
Encoding: 38 38 9
Width: 1366
GlyphClass: 1
Flags: W
LayerCount: 2
Fore
SplineSet
750 1506 m 0,0,1
 842 1506 842 1506 910.5 1478.5 c 128,-1,2
 979 1451 979 1451 1024.5 1404.5 c 128,-1,3
 1070 1358 1070 1358 1093 1295.5 c 128,-1,4
 1116 1233 1116 1233 1116 1164 c 1,5,-1
 932 1128 l 2,6,7
 915 1125 915 1125 902 1125 c 0,8,9
 878 1125 878 1125 865 1136 c 128,-1,10
 852 1147 852 1147 844 1172 c 0,11,12
 809 1281 809 1281 721 1281 c 0,13,14
 686 1281 686 1281 659 1265 c 128,-1,15
 632 1249 632 1249 613.5 1222.5 c 128,-1,16
 595 1196 595 1196 585 1160 c 128,-1,17
 575 1124 575 1124 575 1084 c 0,18,19
 575 1043 575 1043 589 998 c 128,-1,20
 603 953 603 953 637 901 c 1,21,-1
 915 534 l 1,22,23
 971 647 971 647 996 776 c 0,24,25
 1001 804 1001 804 1016 821.5 c 128,-1,26
 1031 839 1031 839 1061 839 c 2,27,-1
 1278 839 l 1,28,29
 1259 688 1259 688 1206.5 558 c 128,-1,30
 1154 428 1154 428 1076 323 c 1,31,-1
 1321 0 l 1,32,-1
 1055 0 l 2,33,34
 1018 0 1018 0 992 4.5 c 128,-1,35
 966 9 966 9 945.5 19.5 c 128,-1,36
 925 30 925 30 908 45.5 c 128,-1,37
 891 61 891 61 872 85 c 2,38,-1
 854 109 l 1,39,40
 764 49 764 49 662.5 16.5 c 128,-1,41
 561 -16 561 -16 453 -16 c 0,42,43
 350 -16 350 -16 269.5 11 c 128,-1,44
 189 38 189 38 135.5 88.5 c 128,-1,45
 82 139 82 139 54.5 210.5 c 128,-1,46
 27 282 27 282 27 370 c 0,47,48
 27 448 27 448 51 516 c 128,-1,49
 75 584 75 584 117 641.5 c 128,-1,50
 159 699 159 699 217 746 c 128,-1,51
 275 793 275 793 343 826 c 1,52,53
 314 888 314 888 302.5 949.5 c 128,-1,54
 291 1011 291 1011 291 1066 c 0,55,56
 291 1155 291 1155 322.5 1235 c 128,-1,57
 354 1315 354 1315 413.5 1375.5 c 128,-1,58
 473 1436 473 1436 558.5 1471 c 128,-1,59
 644 1506 644 1506 750 1506 c 0,0,1
342 409 m 0,60,61
 342 367 342 367 351 332 c 128,-1,62
 360 297 360 297 381 272 c 128,-1,63
 402 247 402 247 436 233 c 128,-1,64
 470 219 470 219 518 219 c 0,65,66
 571 219 571 219 622.5 237.5 c 128,-1,67
 674 256 674 256 721 291 c 1,68,-1
 454 656 l 1,69,70
 391 602 391 602 366.5 540 c 128,-1,71
 342 478 342 478 342 409 c 0,60,61
EndSplineSet
Validated: 1
EndChar

StartChar: quotesingle
Encoding: 39 39 10
Width: 464
GlyphClass: 1
Flags: W
LayerCount: 2
Fore
SplineSet
487 1490 m 1,0,-1
 451 1197 l 1,1,-1
 403 1035 l 2,2,3
 388 982 388 982 361.5 954 c 128,-1,4
 335 926 335 926 283 926 c 0,5,6
 238 926 238 926 217 954 c 128,-1,7
 196 982 196 982 193 1035 c 2,8,-1
 184 1197 l 1,9,-1
 221 1490 l 1,10,-1
 487 1490 l 1,0,-1
EndSplineSet
Validated: 1
EndChar

StartChar: parenleft
Encoding: 40 40 11
Width: 565
GlyphClass: 1
Flags: W
LayerCount: 2
Fore
SplineSet
336 437 m 0,0,1
 336 369 336 369 340.5 294 c 128,-1,2
 345 219 345 219 354.5 143 c 128,-1,3
 364 67 364 67 378.5 -6.5 c 128,-1,4
 393 -80 393 -80 414 -143 c 0,5,6
 418 -155 418 -155 420.5 -166 c 128,-1,7
 423 -177 423 -177 423 -186 c 0,8,9
 423 -214 423 -214 407.5 -231 c 128,-1,10
 392 -248 392 -248 371 -259 c 2,11,-1
 225 -338 l 1,12,13
 184 -252 184 -252 155 -157 c 128,-1,14
 126 -62 126 -62 107 35 c 128,-1,15
 88 132 88 132 79 229.5 c 128,-1,16
 70 327 70 327 70 416 c 0,17,18
 70 576 70 576 91 727 c 128,-1,19
 112 878 112 878 159 1025 c 128,-1,20
 206 1172 206 1172 281 1319 c 128,-1,21
 356 1466 356 1466 465 1620 c 1,22,-1
 592 1542 l 2,23,24
 606 1532 606 1532 617 1519 c 128,-1,25
 628 1506 628 1506 628 1487 c 0,26,27
 628 1475 628 1475 621.5 1460.5 c 128,-1,28
 615 1446 615 1446 604 1425 c 0,29,30
 546 1319 546 1319 496 1204.5 c 128,-1,31
 446 1090 446 1090 411 966 c 128,-1,32
 376 842 376 842 356 709.5 c 128,-1,33
 336 577 336 577 336 437 c 0,0,1
EndSplineSet
Validated: 1
EndChar

StartChar: parenright
Encoding: 41 41 12
Width: 565
GlyphClass: 1
Flags: W
LayerCount: 2
Fore
SplineSet
264 845 m 0,0,1
 264 913 264 913 259.5 988 c 128,-1,2
 255 1063 255 1063 246 1139 c 128,-1,3
 237 1215 237 1215 222 1288.5 c 128,-1,4
 207 1362 207 1362 186 1425 c 0,5,6
 182 1437 182 1437 179.5 1448 c 128,-1,7
 177 1459 177 1459 177 1468 c 0,8,9
 177 1496 177 1496 192.5 1513 c 128,-1,10
 208 1530 208 1530 229 1541 c 2,11,-1
 375 1620 l 1,12,13
 416 1534 416 1534 445 1439.5 c 128,-1,14
 474 1345 474 1345 493 1247 c 128,-1,15
 512 1149 512 1149 521 1052 c 128,-1,16
 530 955 530 955 530 866 c 0,17,18
 530 706 530 706 509 555 c 128,-1,19
 488 404 488 404 441 257 c 128,-1,20
 394 110 394 110 319 -37 c 128,-1,21
 244 -184 244 -184 135 -338 c 1,22,-1
 8 -260 l 2,23,24
 -6 -250 -6 -250 -17 -237 c 128,-1,25
 -28 -224 -28 -224 -28 -205 c 0,26,27
 -28 -193 -28 -193 -21.5 -178.5 c 128,-1,28
 -15 -164 -15 -164 -4 -143 c 0,29,30
 54 -38 54 -38 104 77.5 c 128,-1,31
 154 193 154 193 189 316 c 128,-1,32
 224 439 224 439 244 572 c 128,-1,33
 264 705 264 705 264 845 c 0,0,1
EndSplineSet
Validated: 1
EndChar

StartChar: asterisk
Encoding: 42 42 13
Width: 753
GlyphClass: 1
Flags: W
LayerCount: 2
Fore
SplineSet
344 839 m 1,0,-1
 367 1018 l 2,1,2
 372 1061 372 1061 387 1097 c 1,3,4
 373 1083 373 1083 356 1071.5 c 128,-1,5
 339 1060 339 1060 319 1050 c 2,6,-1
 174 961 l 1,7,-1
 119 1078 l 1,8,-1
 264 1167 l 2,9,10
 284 1178 284 1178 304.5 1186.5 c 128,-1,11
 325 1195 325 1195 345 1199 c 1,12,13
 306 1205 306 1205 272 1230 c 2,14,-1
 147 1321 l 1,15,-1
 233 1440 l 1,16,-1
 358 1348 l 2,17,18
 373 1338 373 1338 387.5 1326.5 c 128,-1,19
 402 1315 402 1315 414 1302 c 1,20,21
 410 1319 410 1319 410 1345 c 0,22,23
 410 1353 410 1353 410 1361.5 c 128,-1,24
 410 1370 410 1370 412 1378 c 2,25,-1
 434 1559 l 1,26,-1
 578 1559 l 1,27,-1
 555 1379 l 2,28,29
 552 1359 552 1359 547.5 1334.5 c 128,-1,30
 543 1310 543 1310 534 1292 c 1,31,32
 548 1306 548 1306 565 1321.5 c 128,-1,33
 582 1337 582 1337 602 1348 c 2,34,-1
 748 1438 l 1,35,-1
 803 1319 l 1,36,-1
 657 1230 l 2,37,38
 637 1219 637 1219 616.5 1211 c 128,-1,39
 596 1203 596 1203 575 1199 c 1,40,41
 594 1195 594 1195 613 1187.5 c 128,-1,42
 632 1180 632 1180 649 1167 c 2,43,-1
 772 1076 l 1,44,-1
 688 961 l 1,45,-1
 563 1050 l 2,46,47
 547 1060 547 1060 533 1071 c 128,-1,48
 519 1082 519 1082 508 1096 c 1,49,50
 510 1086 510 1086 511 1075.5 c 128,-1,51
 512 1065 512 1065 512 1054 c 0,52,53
 512 1046 512 1046 511.5 1037 c 128,-1,54
 511 1028 511 1028 510 1020 c 2,55,-1
 487 839 l 1,56,-1
 344 839 l 1,0,-1
EndSplineSet
Validated: 1
EndChar

StartChar: plus
Encoding: 43 43 14
Width: 1187
GlyphClass: 1
Flags: W
LayerCount: 2
Fore
SplineSet
803 1205 m 1,0,-1
 753 798 l 1,1,-1
 1137 798 l 1,2,-1
 1108 579 l 1,3,-1
 726 579 l 1,4,-1
 676 169 l 1,5,-1
 426 169 l 1,6,-1
 477 579 l 1,7,-1
 96 579 l 1,8,-1
 125 798 l 1,9,-1
 504 798 l 1,10,-1
 555 1205 l 1,11,-1
 803 1205 l 1,0,-1
EndSplineSet
Validated: 1
EndChar

StartChar: comma
Encoding: 44 44 15
Width: 483
GlyphClass: 1
Flags: W
LayerCount: 2
Fore
SplineSet
31 180 m 0,0,1
 31 213 31 213 43 241 c 128,-1,2
 55 269 55 269 78 290 c 128,-1,3
 101 311 101 311 132.5 323.5 c 128,-1,4
 164 336 164 336 203 336 c 0,5,6
 249 336 249 336 282.5 320 c 128,-1,7
 316 304 316 304 338.5 277 c 128,-1,8
 361 250 361 250 372 214.5 c 128,-1,9
 383 179 383 179 383 140 c 0,10,11
 383 89 383 89 366.5 31 c 128,-1,12
 350 -27 350 -27 318 -85 c 128,-1,13
 286 -143 286 -143 237.5 -199.5 c 128,-1,14
 189 -256 189 -256 127 -302 c 1,15,-1
 72 -253 l 2,16,17
 61 -242 61 -242 55 -232.5 c 128,-1,18
 49 -223 49 -223 49 -210 c 0,19,20
 49 -194 49 -194 67 -173.5 c 128,-1,21
 85 -153 85 -153 108 -126.5 c 128,-1,22
 131 -100 131 -100 153.5 -68 c 128,-1,23
 176 -36 176 -36 186 5 c 1,24,25
 151 8 151 8 122.5 22.5 c 128,-1,26
 94 37 94 37 73.5 60 c 128,-1,27
 53 83 53 83 42 113.5 c 128,-1,28
 31 144 31 144 31 180 c 0,0,1
EndSplineSet
Validated: 1
EndChar

StartChar: hyphen
Encoding: 45 45 16
Width: 702
GlyphClass: 1
Flags: W
LayerCount: 2
Fore
SplineSet
125 745 m 1,0,-1
 639 745 l 1,1,-1
 606 498 l 1,2,-1
 94 498 l 1,3,-1
 125 745 l 1,0,-1
EndSplineSet
Validated: 1
EndChar

StartChar: period
Encoding: 46 46 17
Width: 483
GlyphClass: 1
Flags: W
LayerCount: 2
Fore
SplineSet
25 161 m 256,0,1
 25 198 25 198 38.5 229.5 c 128,-1,2
 52 261 52 261 76 284.5 c 128,-1,3
 100 308 100 308 133 322 c 128,-1,4
 166 336 166 336 205 336 c 0,5,6
 243 336 243 336 275.5 322 c 128,-1,7
 308 308 308 308 332.5 284.5 c 128,-1,8
 357 261 357 261 371 229.5 c 128,-1,9
 385 198 385 198 385 161 c 256,10,11
 385 124 385 124 371 91.5 c 128,-1,12
 357 59 357 59 332.5 35.5 c 128,-1,13
 308 12 308 12 275.5 -1 c 128,-1,14
 243 -14 243 -14 205 -14 c 0,15,16
 166 -14 166 -14 133 -1 c 128,-1,17
 100 12 100 12 76 35.5 c 128,-1,18
 52 59 52 59 38.5 91.5 c 128,-1,19
 25 124 25 124 25 161 c 256,0,1
EndSplineSet
Validated: 1
EndChar

StartChar: slash
Encoding: 47 47 18
Width: 768
GlyphClass: 1
Flags: W
LayerCount: 2
Fore
SplineSet
209 7 m 2,0,1
 197 -21 197 -21 177 -41 c 128,-1,2
 157 -61 157 -61 133.5 -75 c 128,-1,3
 110 -89 110 -89 84.5 -96 c 128,-1,4
 59 -103 59 -103 37 -103 c 2,5,-1
 -94 -103 l 1,6,-1
 604 1390 l 2,7,8
 628 1441 628 1441 673 1467.5 c 128,-1,9
 718 1494 718 1494 772 1494 c 2,10,-1
 901 1494 l 1,11,-1
 209 7 l 2,0,1
EndSplineSet
Validated: 1
EndChar

StartChar: zero
Encoding: 48 48 19
Width: 1187
GlyphClass: 1
Flags: W
LayerCount: 2
Fore
SplineSet
713 1506 m 0,0,1
 816 1506 816 1506 901 1468.5 c 128,-1,2
 986 1431 986 1431 1046.5 1355 c 128,-1,3
 1107 1279 1107 1279 1140.5 1165 c 128,-1,4
 1174 1051 1174 1051 1174 899 c 0,5,6
 1174 667 1174 667 1123.5 495 c 128,-1,7
 1073 323 1073 323 985.5 209 c 128,-1,8
 898 95 898 95 779 39.5 c 128,-1,9
 660 -16 660 -16 524 -16 c 0,10,11
 421 -16 421 -16 336 21.5 c 128,-1,12
 251 59 251 59 190.5 135.5 c 128,-1,13
 130 212 130 212 96.5 325.5 c 128,-1,14
 63 439 63 439 63 591 c 0,15,16
 63 823 63 823 113.5 995 c 128,-1,17
 164 1167 164 1167 251.5 1281 c 128,-1,18
 339 1395 339 1395 457.5 1450.5 c 128,-1,19
 576 1506 576 1506 713 1506 c 0,0,1
565 229 m 0,20,21
 627 229 627 229 680.5 270 c 128,-1,22
 734 311 734 311 772.5 393.5 c 128,-1,23
 811 476 811 476 832.5 601 c 128,-1,24
 854 726 854 726 854 894 c 0,25,26
 854 1003 854 1003 838 1073.5 c 128,-1,27
 822 1144 822 1144 796.5 1186 c 128,-1,28
 771 1228 771 1228 738.5 1245 c 128,-1,29
 706 1262 706 1262 672 1262 c 0,30,31
 609 1262 609 1262 556 1221 c 128,-1,32
 503 1180 503 1180 464.5 1097 c 128,-1,33
 426 1014 426 1014 404.5 889 c 128,-1,34
 383 764 383 764 383 597 c 0,35,36
 383 488 383 488 399 417 c 128,-1,37
 415 346 415 346 440.5 304.5 c 128,-1,38
 466 263 466 263 498.5 246 c 128,-1,39
 531 229 531 229 565 229 c 0,20,21
EndSplineSet
Validated: 1
EndChar

StartChar: one
Encoding: 49 49 20
Width: 1187
GlyphClass: 1
Flags: W
LayerCount: 2
Fore
SplineSet
227 222 m 1,0,-1
 516 222 l 1,1,-1
 612 1025 l 1,2,-1
 634 1117 l 1,3,-1
 432 962 l 2,4,5
 415 949 415 949 398 944.5 c 128,-1,6
 381 940 381 940 367 940 c 0,7,8
 340 940 340 940 321.5 951 c 128,-1,9
 303 962 303 962 295 974 c 2,10,-1
 215 1103 l 1,11,-1
 725 1493 l 1,12,-1
 979 1493 l 1,13,-1
 822 222 l 1,14,-1
 1073 222 l 1,15,-1
 1044 0 l 1,16,-1
 201 0 l 1,17,-1
 227 222 l 1,0,-1
EndSplineSet
Validated: 1
Substitution2: "'sups' Superscript in Latin lookup 2 subtable" onesuperior
EndChar

StartChar: two
Encoding: 50 50 21
Width: 1187
GlyphClass: 1
Flags: W
LayerCount: 2
Fore
SplineSet
731 1506 m 0,0,1
 830 1506 830 1506 909.5 1478 c 128,-1,2
 989 1450 989 1450 1044 1399.5 c 128,-1,3
 1099 1349 1099 1349 1128 1279 c 128,-1,4
 1157 1209 1157 1209 1157 1126 c 0,5,6
 1157 1034 1157 1034 1130 958 c 128,-1,7
 1103 882 1103 882 1056 813 c 128,-1,8
 1009 744 1009 744 945 680.5 c 128,-1,9
 881 617 881 617 807 550 c 2,10,-1
 469 242 l 1,11,12
 526 258 526 258 581.5 267 c 128,-1,13
 637 276 637 276 684 276 c 2,14,-1
 981 276 l 2,15,16
 1027 276 1027 276 1051.5 252.5 c 128,-1,17
 1076 229 1076 229 1076 190 c 0,18,19
 1076 188 1076 188 1075.5 183.5 c 128,-1,20
 1075 179 1075 179 1073 161 c 128,-1,21
 1071 143 1071 143 1066.5 105.5 c 128,-1,22
 1062 68 1062 68 1053 0 c 1,23,-1
 10 0 l 1,24,-1
 23 98 l 2,25,26
 26 126 26 126 42 159.5 c 128,-1,27
 58 193 58 193 90 220 c 2,28,-1
 578 656 l 2,29,30
 650 721 650 721 700 776 c 128,-1,31
 750 831 750 831 781 883.5 c 128,-1,32
 812 936 812 936 826 987.5 c 128,-1,33
 840 1039 840 1039 840 1097 c 0,34,35
 840 1172 840 1172 800 1214.5 c 128,-1,36
 760 1257 760 1257 680 1257 c 0,37,38
 643 1257 643 1257 611 1246.5 c 128,-1,39
 579 1236 579 1236 552 1217 c 128,-1,40
 525 1198 525 1198 504.5 1172.5 c 128,-1,41
 484 1147 484 1147 471 1117 c 0,42,43
 451 1073 451 1073 422.5 1053.5 c 128,-1,44
 394 1034 394 1034 352 1034 c 0,45,46
 329 1034 329 1034 309 1038 c 2,47,-1
 152 1066 l 1,48,49
 183 1177 183 1177 239 1259 c 128,-1,50
 295 1341 295 1341 370.5 1396.5 c 128,-1,51
 446 1452 446 1452 538 1479 c 128,-1,52
 630 1506 630 1506 731 1506 c 0,0,1
EndSplineSet
Validated: 1
Substitution2: "'sups' Superscript in Latin lookup 2 subtable" twosuperior
EndChar

StartChar: three
Encoding: 51 51 22
Width: 1187
GlyphClass: 1
Flags: W
LayerCount: 2
Fore
SplineSet
768 1506 m 256,0,1
 869 1506 869 1506 947 1478 c 128,-1,2
 1025 1450 1025 1450 1077 1402.5 c 128,-1,3
 1129 1355 1129 1355 1156.5 1292 c 128,-1,4
 1184 1229 1184 1229 1184 1158 c 0,5,6
 1184 1077 1184 1077 1167 1016.5 c 128,-1,7
 1150 956 1150 956 1116.5 913 c 128,-1,8
 1083 870 1083 870 1033.5 841.5 c 128,-1,9
 984 813 984 813 919 795 c 1,10,11
 1024 752 1024 752 1076 677.5 c 128,-1,12
 1128 603 1128 603 1128 498 c 0,13,14
 1128 413 1128 413 1105.5 342 c 128,-1,15
 1083 271 1083 271 1044 214 c 128,-1,16
 1005 157 1005 157 950 114 c 128,-1,17
 895 71 895 71 830.5 41.5 c 128,-1,18
 766 12 766 12 694 -2 c 128,-1,19
 622 -16 622 -16 547 -16 c 0,20,21
 441 -16 441 -16 360 7 c 128,-1,22
 279 30 279 30 220.5 78.5 c 128,-1,23
 162 127 162 127 124 201.5 c 128,-1,24
 86 276 86 276 63 381 c 1,25,-1
 207 436 l 2,26,27
 226 444 226 444 244 447.5 c 128,-1,28
 262 451 262 451 280 451 c 0,29,30
 312 451 312 451 334.5 438.5 c 128,-1,31
 357 426 357 426 367 402 c 0,32,33
 401 313 401 313 449 272.5 c 128,-1,34
 497 232 497 232 575 232 c 0,35,36
 634 232 634 232 680.5 253 c 128,-1,37
 727 274 727 274 759 309.5 c 128,-1,38
 791 345 791 345 807 392.5 c 128,-1,39
 823 440 823 440 823 493 c 0,40,41
 823 530 823 530 812 560 c 128,-1,42
 801 590 801 590 768.5 611.5 c 128,-1,43
 736 633 736 633 679 644.5 c 128,-1,44
 622 656 622 656 528 656 c 1,45,-1
 557 866 l 1,46,47
 650 867 650 867 712 883 c 128,-1,48
 774 899 774 899 811 928 c 128,-1,49
 848 957 848 957 863.5 999.5 c 128,-1,50
 879 1042 879 1042 879 1098 c 0,51,52
 879 1175 879 1175 838.5 1216 c 128,-1,53
 798 1257 798 1257 719 1257 c 0,54,55
 643 1257 643 1257 589 1217 c 128,-1,56
 535 1177 535 1177 508 1117 c 0,57,58
 488 1073 488 1073 459.5 1053.5 c 128,-1,59
 431 1034 431 1034 390 1034 c 0,60,61
 381 1034 381 1034 370 1035 c 128,-1,62
 359 1036 359 1036 348 1038 c 2,63,-1
 190 1066 l 1,64,65
 220 1177 220 1177 276.5 1259 c 128,-1,66
 333 1341 333 1341 408 1396.5 c 128,-1,67
 483 1452 483 1452 575 1479 c 128,-1,68
 667 1506 667 1506 768 1506 c 256,0,1
EndSplineSet
Validated: 1
Substitution2: "'sups' Superscript in Latin lookup 2 subtable" threesuperior
EndChar

StartChar: four
Encoding: 52 52 23
Width: 1187
GlyphClass: 1
Flags: W
LayerCount: 2
Fore
SplineSet
1012 574 m 1,0,-1
 1165 574 l 1,1,-1
 1141 403 l 2,2,3
 1138 380 1138 380 1120.5 363.5 c 128,-1,4
 1103 347 1103 347 1073 347 c 2,5,-1
 984 347 l 1,6,-1
 942 0 l 1,7,-1
 666 0 l 1,8,-1
 708 347 l 1,9,-1
 110 347 l 2,10,11
 80 347 80 347 55.5 366 c 128,-1,12
 31 385 31 385 28 418 c 2,13,-1
 16 560 l 1,14,-1
 823 1492 l 1,15,-1
 1124 1492 l 1,16,-1
 1012 574 l 1,0,-1
784 984 m 2,17,18
 788 1015 788 1015 795 1050 c 128,-1,19
 802 1085 802 1085 812 1123 c 1,20,-1
 347 574 l 1,21,-1
 735 574 l 1,22,-1
 784 984 l 2,17,18
EndSplineSet
Validated: 1
EndChar

StartChar: five
Encoding: 53 53 24
Width: 1187
GlyphClass: 1
Flags: W
LayerCount: 2
Fore
SplineSet
1126 1365 m 2,0,1
 1122 1334 1122 1334 1109.5 1308 c 128,-1,2
 1097 1282 1097 1282 1073 1263 c 128,-1,3
 1049 1244 1049 1244 1013 1234 c 128,-1,4
 977 1224 977 1224 928 1224 c 2,5,-1
 563 1224 l 1,6,-1
 486 961 l 1,7,8
 528 969 528 969 567 972 c 128,-1,9
 606 975 606 975 642 975 c 0,10,11
 752 975 752 975 834 944 c 128,-1,12
 916 913 916 913 971 859.5 c 128,-1,13
 1026 806 1026 806 1053.5 733 c 128,-1,14
 1081 660 1081 660 1081 577 c 0,15,16
 1081 447 1081 447 1032 337.5 c 128,-1,17
 983 228 983 228 897 150 c 128,-1,18
 811 72 811 72 695 28 c 128,-1,19
 579 -16 579 -16 444 -16 c 0,20,21
 371 -16 371 -16 307.5 -1.5 c 128,-1,22
 244 13 244 13 190 39 c 128,-1,23
 136 65 136 65 91.5 98.5 c 128,-1,24
 47 132 47 132 12 170 c 1,25,-1
 123 298 l 2,26,27
 140 318 140 318 161.5 327.5 c 128,-1,28
 183 337 183 337 205 337 c 0,29,30
 235 337 235 337 260 320.5 c 128,-1,31
 285 304 285 304 315.5 284 c 128,-1,32
 346 264 346 264 388 247.5 c 128,-1,33
 430 231 430 231 494 231 c 0,34,35
 567 231 567 231 619.5 257 c 128,-1,36
 672 283 672 283 705.5 325 c 128,-1,37
 739 367 739 367 755.5 422 c 128,-1,38
 772 477 772 477 772 538 c 0,39,40
 772 628 772 628 717 680.5 c 128,-1,41
 662 733 662 733 550 733 c 0,42,43
 507 733 507 733 457 725 c 128,-1,44
 407 717 407 717 348 698 c 1,45,-1
 166 750 l 1,46,-1
 385 1492 l 1,47,-1
 1143 1492 l 1,48,-1
 1126 1365 l 2,0,1
EndSplineSet
Validated: 1
EndChar

StartChar: six
Encoding: 54 54 25
Width: 1187
GlyphClass: 1
Flags: W
LayerCount: 2
Fore
SplineSet
756 941 m 0,0,1
 831 941 831 941 901 917 c 128,-1,2
 971 893 971 893 1025 845 c 128,-1,3
 1079 797 1079 797 1112 724 c 128,-1,4
 1145 651 1145 651 1145 555 c 0,5,6
 1145 438 1145 438 1099.5 334 c 128,-1,7
 1054 230 1054 230 972.5 152.5 c 128,-1,8
 891 75 891 75 780 29.5 c 128,-1,9
 669 -16 669 -16 539 -16 c 0,10,11
 426 -16 426 -16 338 18 c 128,-1,12
 250 52 250 52 190 113 c 128,-1,13
 130 174 130 174 99 258.5 c 128,-1,14
 68 343 68 343 68 443 c 0,15,16
 68 581 68 581 126.5 705.5 c 128,-1,17
 185 830 185 830 299 962 c 2,18,-1
 694 1419 l 2,19,20
 720 1449 720 1449 766 1469.5 c 128,-1,21
 812 1490 812 1490 866 1490 c 2,22,-1
 1139 1490 l 1,23,-1
 589 912 l 1,24,25
 627 926 627 926 668.5 933.5 c 128,-1,26
 710 941 710 941 756 941 c 0,0,1
358 433 m 0,27,28
 358 386 358 386 371 347.5 c 128,-1,29
 384 309 384 309 409.5 282 c 128,-1,30
 435 255 435 255 473.5 240 c 128,-1,31
 512 225 512 225 563 225 c 0,32,33
 618 225 618 225 668 246 c 128,-1,34
 718 267 718 267 755 305 c 128,-1,35
 792 343 792 343 814 394 c 128,-1,36
 836 445 836 445 836 506 c 0,37,38
 836 556 836 556 820.5 595.5 c 128,-1,39
 805 635 805 635 777.5 662.5 c 128,-1,40
 750 690 750 690 710 705 c 128,-1,41
 670 720 670 720 621 720 c 0,42,43
 566 720 566 720 517.5 699.5 c 128,-1,44
 469 679 469 679 433.5 641.5 c 128,-1,45
 398 604 398 604 378 551.5 c 128,-1,46
 358 499 358 499 358 433 c 0,27,28
EndSplineSet
Validated: 1
EndChar

StartChar: seven
Encoding: 55 55 26
Width: 1187
GlyphClass: 1
Flags: W
LayerCount: 2
Fore
SplineSet
1253 1492 m 1,0,-1
 1239 1374 l 2,1,2
 1234 1333 1234 1333 1224 1298.5 c 128,-1,3
 1214 1264 1214 1264 1200 1241 c 2,4,-1
 498 68 l 2,5,6
 481 39 481 39 448 19.5 c 128,-1,7
 415 0 415 0 381 0 c 2,8,-1
 123 0 l 1,9,-1
 795 1084 l 2,10,11
 821 1125 821 1125 849 1159 c 128,-1,12
 877 1193 877 1193 909 1224 c 1,13,-1
 244 1224 l 2,14,15
 217 1224 217 1224 199.5 1242.5 c 128,-1,16
 182 1261 182 1261 182 1284 c 0,17,18
 182 1295 182 1295 184.5 1318 c 128,-1,19
 187 1341 187 1341 191.5 1370 c 128,-1,20
 196 1399 196 1399 200.5 1430.5 c 128,-1,21
 205 1462 205 1462 209 1492 c 1,22,-1
 1253 1492 l 1,0,-1
EndSplineSet
Validated: 1
EndChar

StartChar: eight
Encoding: 56 56 27
Width: 1187
GlyphClass: 1
Flags: W
LayerCount: 2
Fore
SplineSet
530 -16 m 0,0,1
 420 -16 420 -16 332.5 12 c 128,-1,2
 245 40 245 40 182 91 c 128,-1,3
 119 142 119 142 85 214.5 c 128,-1,4
 51 287 51 287 51 375 c 0,5,6
 51 446 51 446 68 508 c 128,-1,7
 85 570 85 570 122 622 c 128,-1,8
 159 674 159 674 216 713.5 c 128,-1,9
 273 753 273 753 353 778 c 1,10,11
 268 820 268 820 226 889.5 c 128,-1,12
 184 959 184 959 184 1053 c 0,13,14
 184 1150 184 1150 225 1233 c 128,-1,15
 266 1316 266 1316 338.5 1377 c 128,-1,16
 411 1438 411 1438 507.5 1472 c 128,-1,17
 604 1506 604 1506 717 1506 c 0,18,19
 814 1506 814 1506 894.5 1478 c 128,-1,20
 975 1450 975 1450 1032 1401.5 c 128,-1,21
 1089 1353 1089 1353 1120 1286.5 c 128,-1,22
 1151 1220 1151 1220 1151 1143 c 0,23,24
 1151 1012 1151 1012 1089 918 c 128,-1,25
 1027 824 1027 824 903 774 c 1,26,27
 1017 731 1017 731 1067.5 654 c 128,-1,28
 1118 577 1118 577 1118 474 c 0,29,30
 1118 362 1118 362 1074 271.5 c 128,-1,31
 1030 181 1030 181 951.5 117 c 128,-1,32
 873 53 873 53 765 18.5 c 128,-1,33
 657 -16 657 -16 530 -16 c 0,0,1
559 215 m 0,34,35
 621 215 621 215 667 234.5 c 128,-1,36
 713 254 713 254 743 288 c 128,-1,37
 773 322 773 322 788 368.5 c 128,-1,38
 803 415 803 415 803 469 c 0,39,40
 803 510 803 510 792.5 544.5 c 128,-1,41
 782 579 782 579 759 603 c 128,-1,42
 736 627 736 627 700 640 c 128,-1,43
 664 653 664 653 612 653 c 0,44,45
 544 653 544 653 498.5 634 c 128,-1,46
 453 615 453 615 424 581.5 c 128,-1,47
 395 548 395 548 383 501.5 c 128,-1,48
 371 455 371 455 371 400 c 0,49,50
 371 360 371 360 381.5 326.5 c 128,-1,51
 392 293 392 293 415 268.5 c 128,-1,52
 438 244 438 244 474 229.5 c 128,-1,53
 510 215 510 215 559 215 c 0,34,35
641 885 m 0,54,55
 708 885 708 885 749 908 c 128,-1,56
 790 931 790 931 812.5 965.5 c 128,-1,57
 835 1000 835 1000 842.5 1042 c 128,-1,58
 850 1084 850 1084 850 1121 c 0,59,60
 850 1153 850 1153 841.5 1182 c 128,-1,61
 833 1211 833 1211 814 1233.5 c 128,-1,62
 795 1256 795 1256 764.5 1269.5 c 128,-1,63
 734 1283 734 1283 690 1283 c 0,64,65
 635 1283 635 1283 595.5 1264.5 c 128,-1,66
 556 1246 556 1246 530.5 1215 c 128,-1,67
 505 1184 505 1184 493 1143 c 128,-1,68
 481 1102 481 1102 481 1057 c 0,69,70
 481 1024 481 1024 489 993.5 c 128,-1,71
 497 963 497 963 515.5 938.5 c 128,-1,72
 534 914 534 914 564.5 899.5 c 128,-1,73
 595 885 595 885 641 885 c 0,54,55
EndSplineSet
Validated: 1
EndChar

StartChar: nine
Encoding: 57 57 28
Width: 1187
GlyphClass: 1
Flags: W
LayerCount: 2
Fore
SplineSet
539 584 m 0,0,1
 471 584 471 584 406 607 c 128,-1,2
 341 630 341 630 290 676 c 128,-1,3
 239 722 239 722 207.5 791.5 c 128,-1,4
 176 861 176 861 176 955 c 0,5,6
 176 1068 176 1068 220 1168 c 128,-1,7
 264 1268 264 1268 342.5 1343 c 128,-1,8
 421 1418 421 1418 528.5 1462 c 128,-1,9
 636 1506 636 1506 762 1506 c 0,10,11
 871 1506 871 1506 955.5 1474 c 128,-1,12
 1040 1442 1040 1442 1098 1384.5 c 128,-1,13
 1156 1327 1156 1327 1186.5 1247.5 c 128,-1,14
 1217 1168 1217 1168 1217 1073 c 0,15,16
 1217 991 1217 991 1201 920 c 128,-1,17
 1185 849 1185 849 1155 783 c 128,-1,18
 1125 717 1125 717 1083 654.5 c 128,-1,19
 1041 592 1041 592 989 529 c 2,20,-1
 608 69 l 2,21,22
 583 39 583 39 540 19.5 c 128,-1,23
 497 0 497 0 442 0 c 2,24,-1
 160 0 l 1,25,-1
 700 567 l 2,26,27
 716 584 716 584 732 601 c 128,-1,28
 748 618 748 618 762 635 c 1,29,30
 712 609 712 609 655.5 596.5 c 128,-1,31
 599 584 599 584 539 584 c 0,0,1
926 1069 m 0,32,33
 926 1116 926 1116 911.5 1152.5 c 128,-1,34
 897 1189 897 1189 871 1214 c 128,-1,35
 845 1239 845 1239 808 1252.5 c 128,-1,36
 771 1266 771 1266 727 1266 c 0,37,38
 673 1266 673 1266 629 1246 c 128,-1,39
 585 1226 585 1226 553.5 1189.5 c 128,-1,40
 522 1153 522 1153 504.5 1104 c 128,-1,41
 487 1055 487 1055 487 996 c 0,42,43
 487 904 487 904 534.5 856 c 128,-1,44
 582 808 582 808 676 808 c 0,45,46
 734 808 734 808 780 827 c 128,-1,47
 826 846 826 846 858.5 880 c 128,-1,48
 891 914 891 914 908.5 962.5 c 128,-1,49
 926 1011 926 1011 926 1069 c 0,32,33
EndSplineSet
Validated: 1
EndChar

StartChar: colon
Encoding: 58 58 29
Width: 483
GlyphClass: 1
Flags: W
LayerCount: 2
Fore
SplineSet
25 161 m 256,0,1
 25 198 25 198 38.5 229.5 c 128,-1,2
 52 261 52 261 76 284.5 c 128,-1,3
 100 308 100 308 133 322 c 128,-1,4
 166 336 166 336 205 336 c 0,5,6
 243 336 243 336 275.5 322 c 128,-1,7
 308 308 308 308 332.5 284.5 c 128,-1,8
 357 261 357 261 371 229.5 c 128,-1,9
 385 198 385 198 385 161 c 256,10,11
 385 124 385 124 371 91.5 c 128,-1,12
 357 59 357 59 332.5 35.5 c 128,-1,13
 308 12 308 12 275.5 -1 c 128,-1,14
 243 -14 243 -14 205 -14 c 0,15,16
 166 -14 166 -14 133 -1 c 128,-1,17
 100 12 100 12 76 35.5 c 128,-1,18
 52 59 52 59 38.5 91.5 c 128,-1,19
 25 124 25 124 25 161 c 256,0,1
123 860 m 256,20,21
 123 897 123 897 137 929 c 128,-1,22
 151 961 151 961 175 984.5 c 128,-1,23
 199 1008 199 1008 231.5 1021.5 c 128,-1,24
 264 1035 264 1035 303 1035 c 0,25,26
 341 1035 341 1035 374 1021.5 c 128,-1,27
 407 1008 407 1008 431.5 984.5 c 128,-1,28
 456 961 456 961 469.5 929 c 128,-1,29
 483 897 483 897 483 860 c 256,30,31
 483 823 483 823 469.5 791 c 128,-1,32
 456 759 456 759 431.5 735.5 c 128,-1,33
 407 712 407 712 374 698.5 c 128,-1,34
 341 685 341 685 303 685 c 0,35,36
 264 685 264 685 231.5 698.5 c 128,-1,37
 199 712 199 712 175 735.5 c 128,-1,38
 151 759 151 759 137 791 c 128,-1,39
 123 823 123 823 123 860 c 256,20,21
EndSplineSet
Validated: 1
EndChar

StartChar: semicolon
Encoding: 59 59 30
Width: 483
GlyphClass: 1
Flags: W
LayerCount: 2
Fore
SplineSet
25 180 m 0,0,1
 25 213 25 213 37 241 c 128,-1,2
 49 269 49 269 72 290 c 128,-1,3
 95 311 95 311 126.5 323.5 c 128,-1,4
 158 336 158 336 197 336 c 0,5,6
 243 336 243 336 276.5 320 c 128,-1,7
 310 304 310 304 332.5 277 c 128,-1,8
 355 250 355 250 366 214.5 c 128,-1,9
 377 179 377 179 377 140 c 0,10,11
 377 89 377 89 360.5 31 c 128,-1,12
 344 -27 344 -27 312 -85 c 128,-1,13
 280 -143 280 -143 231.5 -199.5 c 128,-1,14
 183 -256 183 -256 121 -302 c 1,15,-1
 66 -253 l 2,16,17
 55 -242 55 -242 49 -232.5 c 128,-1,18
 43 -223 43 -223 43 -210 c 0,19,20
 43 -194 43 -194 61 -173.5 c 128,-1,21
 79 -153 79 -153 102 -126.5 c 128,-1,22
 125 -100 125 -100 147.5 -68 c 128,-1,23
 170 -36 170 -36 180 5 c 1,24,25
 145 8 145 8 116.5 22.5 c 128,-1,26
 88 37 88 37 67.5 60 c 128,-1,27
 47 83 47 83 36 113.5 c 128,-1,28
 25 144 25 144 25 180 c 0,0,1
121 860 m 256,29,30
 121 897 121 897 134.5 929 c 128,-1,31
 148 961 148 961 172.5 984.5 c 128,-1,32
 197 1008 197 1008 229.5 1021.5 c 128,-1,33
 262 1035 262 1035 301 1035 c 0,34,35
 339 1035 339 1035 371.5 1021.5 c 128,-1,36
 404 1008 404 1008 429 984.5 c 128,-1,37
 454 961 454 961 467.5 929 c 128,-1,38
 481 897 481 897 481 860 c 256,39,40
 481 823 481 823 467.5 791 c 128,-1,41
 454 759 454 759 429 735.5 c 128,-1,42
 404 712 404 712 371.5 698.5 c 128,-1,43
 339 685 339 685 301 685 c 0,44,45
 262 685 262 685 229.5 698.5 c 128,-1,46
 197 712 197 712 172.5 735.5 c 128,-1,47
 148 759 148 759 134.5 791 c 128,-1,48
 121 823 121 823 121 860 c 256,29,30
EndSplineSet
Validated: 1
EndChar

StartChar: less
Encoding: 60 60 31
Width: 1092
GlyphClass: 1
Flags: W
LayerCount: 2
Fore
SplineSet
155 753 m 1,0,-1
 1037 1187 l 1,1,-1
 1010 967 l 2,2,3
 1007 943 1007 943 992.5 923 c 128,-1,4
 978 903 978 903 948 889 c 2,5,-1
 639 732 l 2,6,7
 611 718 611 718 580 708 c 128,-1,8
 549 698 549 698 515 690 c 1,9,10
 548 682 548 682 576 673.5 c 128,-1,11
 604 665 604 665 629 650 c 2,12,-1
 902 493 l 2,13,14
 944 469 944 469 944 428 c 0,15,16
 944 420 944 420 943 416 c 2,17,-1
 914 196 l 1,18,-1
 139 629 l 1,19,-1
 155 753 l 1,0,-1
EndSplineSet
Validated: 1
EndChar

StartChar: equal
Encoding: 61 61 32
Width: 1187
GlyphClass: 1
Flags: W
LayerCount: 2
Fore
SplineSet
143 611 m 1,0,-1
 1071 611 l 1,1,-1
 1042 392 l 1,2,-1
 115 392 l 1,3,-1
 143 611 l 1,0,-1
190 983 m 1,4,-1
 1116 983 l 1,5,-1
 1090 763 l 1,6,-1
 162 763 l 1,7,-1
 190 983 l 1,4,-1
EndSplineSet
Validated: 1
EndChar

StartChar: greater
Encoding: 62 62 33
Width: 1092
GlyphClass: 1
Flags: W
LayerCount: 2
Fore
SplineSet
984 630 m 1,0,-1
 101 196 l 1,1,-1
 129 416 l 2,2,3
 132 440 132 440 146.5 459.5 c 128,-1,4
 161 479 161 479 190 494 c 2,5,-1
 500 650 l 2,6,7
 528 664 528 664 559 674 c 128,-1,8
 590 684 590 684 624 692 c 1,9,10
 591 700 591 700 563 709 c 128,-1,11
 535 718 535 718 510 732 c 2,12,-1
 237 890 l 2,13,14
 195 914 195 914 195 954 c 0,15,16
 195 962 195 962 196 967 c 2,17,-1
 224 1187 l 1,18,-1
 999 754 l 1,19,-1
 984 630 l 1,0,-1
EndSplineSet
Validated: 1
EndChar

StartChar: question
Encoding: 63 63 34
Width: 839
GlyphClass: 1
Flags: W
LayerCount: 2
Fore
SplineSet
141 1354 m 1,0,1
 181 1386 181 1386 225.5 1413.5 c 128,-1,2
 270 1441 270 1441 320.5 1462 c 128,-1,3
 371 1483 371 1483 427 1494.5 c 128,-1,4
 483 1506 483 1506 547 1506 c 0,5,6
 634 1506 634 1506 699.5 1481.5 c 128,-1,7
 765 1457 765 1457 808.5 1415.5 c 128,-1,8
 852 1374 852 1374 873.5 1319.5 c 128,-1,9
 895 1265 895 1265 895 1203 c 0,10,11
 895 1116 895 1116 873 1056 c 128,-1,12
 851 996 851 996 816.5 953 c 128,-1,13
 782 910 782 910 740.5 879 c 128,-1,14
 699 848 699 848 660 818 c 128,-1,15
 621 788 621 788 589 754.5 c 128,-1,16
 557 721 557 721 543 674 c 2,17,-1
 498 528 l 1,18,-1
 287 528 l 1,19,-1
 287 693 l 2,20,21
 287 746 287 746 311 787.5 c 128,-1,22
 335 829 335 829 371.5 864 c 128,-1,23
 408 899 408 899 450 930 c 128,-1,24
 492 961 492 961 528 993 c 128,-1,25
 564 1025 564 1025 588 1062.5 c 128,-1,26
 612 1100 612 1100 612 1147 c 0,27,28
 612 1202 612 1202 584.5 1235 c 128,-1,29
 557 1268 557 1268 489 1268 c 0,30,31
 441 1268 441 1268 407 1256 c 128,-1,32
 373 1244 373 1244 347.5 1230.5 c 128,-1,33
 322 1217 322 1217 302.5 1205 c 128,-1,34
 283 1193 283 1193 264 1193 c 0,35,36
 244 1193 244 1193 229.5 1201.5 c 128,-1,37
 215 1210 215 1210 207 1230 c 2,38,-1
 141 1354 l 1,0,1
188 161 m 256,39,40
 188 198 188 198 202 229.5 c 128,-1,41
 216 261 216 261 240 284.5 c 128,-1,42
 264 308 264 308 297 322 c 128,-1,43
 330 336 330 336 369 336 c 0,44,45
 407 336 407 336 439.5 322 c 128,-1,46
 472 308 472 308 496.5 284.5 c 128,-1,47
 521 261 521 261 535 229.5 c 128,-1,48
 549 198 549 198 549 161 c 256,49,50
 549 124 549 124 535 91.5 c 128,-1,51
 521 59 521 59 496.5 35.5 c 128,-1,52
 472 12 472 12 439.5 -1 c 128,-1,53
 407 -14 407 -14 369 -14 c 0,54,55
 330 -14 330 -14 297 -1 c 128,-1,56
 264 12 264 12 240 35.5 c 128,-1,57
 216 59 216 59 202 91.5 c 128,-1,58
 188 124 188 124 188 161 c 256,39,40
EndSplineSet
Validated: 1
EndChar

StartChar: at
Encoding: 64 64 35
Width: 1521
GlyphClass: 1
Flags: W
LayerCount: 2
Fore
SplineSet
1040 186 m 0,0,1
 1011 186 1011 186 983.5 193 c 128,-1,2
 956 200 956 200 933 214.5 c 128,-1,3
 910 229 910 229 893 252.5 c 128,-1,4
 876 276 876 276 866 310 c 1,5,6
 801 243 801 243 736 215 c 128,-1,7
 671 187 671 187 600 187 c 0,8,9
 546 187 546 187 505.5 206.5 c 128,-1,10
 465 226 465 226 438.5 260 c 128,-1,11
 412 294 412 294 398.5 340 c 128,-1,12
 385 386 385 386 385 440 c 0,13,14
 385 502 385 502 401.5 568.5 c 128,-1,15
 418 635 418 635 450 696.5 c 128,-1,16
 482 758 482 758 530.5 812.5 c 128,-1,17
 579 867 579 867 643.5 908 c 128,-1,18
 708 949 708 949 788 972.5 c 128,-1,19
 868 996 868 996 965 996 c 0,20,21
 1008 996 1008 996 1041.5 993 c 128,-1,22
 1075 990 1075 990 1104.5 984 c 128,-1,23
 1134 978 1134 978 1159 969.5 c 128,-1,24
 1184 961 1184 961 1210 948 c 1,25,-1
 1069 561 l 2,26,27
 1055 521 1055 521 1048 491 c 128,-1,28
 1041 461 1041 461 1041 439 c 0,29,30
 1041 400 1041 400 1059.5 385 c 128,-1,31
 1078 370 1078 370 1108 370 c 0,32,33
 1148 370 1148 370 1183.5 404 c 128,-1,34
 1219 438 1219 438 1245.5 497 c 128,-1,35
 1272 556 1272 556 1287.5 635 c 128,-1,36
 1303 714 1303 714 1303 804 c 0,37,38
 1303 909 1303 909 1274.5 990.5 c 128,-1,39
 1246 1072 1246 1072 1192.5 1128 c 128,-1,40
 1139 1184 1139 1184 1060.5 1212.5 c 128,-1,41
 982 1241 982 1241 883 1241 c 0,42,43
 749 1241 749 1241 636 1183.5 c 128,-1,44
 523 1126 523 1126 441.5 1025.5 c 128,-1,45
 360 925 360 925 314 788.5 c 128,-1,46
 268 652 268 652 268 495 c 0,47,48
 268 360 268 360 304 257 c 128,-1,49
 340 154 340 154 406 84 c 128,-1,50
 472 14 472 14 565 -21.5 c 128,-1,51
 658 -57 658 -57 774 -57 c 0,52,53
 849 -57 849 -57 910.5 -49.5 c 128,-1,54
 972 -42 972 -42 1020 -29.5 c 128,-1,55
 1068 -17 1068 -17 1103.5 -2.5 c 128,-1,56
 1139 12 1139 12 1161 27 c 0,57,58
 1178 37 1178 37 1193 40.5 c 128,-1,59
 1208 44 1208 44 1221 44 c 0,60,61
 1248 44 1248 44 1262.5 28.5 c 128,-1,62
 1277 13 1277 13 1282 -7 c 2,63,-1
 1305 -90 l 1,64,65
 1254 -124 1254 -124 1194 -152.5 c 128,-1,66
 1134 -181 1134 -181 1064.5 -202.5 c 128,-1,67
 995 -224 995 -224 917 -236 c 128,-1,68
 839 -248 839 -248 752 -248 c 0,69,70
 590 -248 590 -248 460 -195.5 c 128,-1,71
 330 -143 330 -143 238 -47.5 c 128,-1,72
 146 48 146 48 96.5 183 c 128,-1,73
 47 318 47 318 47 484 c 0,74,75
 47 611 47 611 78 730.5 c 128,-1,76
 109 850 109 850 164.5 955 c 128,-1,77
 220 1060 220 1060 299 1147.5 c 128,-1,78
 378 1235 378 1235 473 1297.5 c 128,-1,79
 568 1360 568 1360 678 1395 c 128,-1,80
 788 1430 788 1430 907 1430 c 0,81,82
 1034 1430 1034 1430 1145 1385 c 128,-1,83
 1256 1340 1256 1340 1339 1258.5 c 128,-1,84
 1422 1177 1422 1177 1470 1061.5 c 128,-1,85
 1518 946 1518 946 1518 804 c 0,86,87
 1518 676 1518 676 1481 563.5 c 128,-1,88
 1444 451 1444 451 1379.5 367.5 c 128,-1,89
 1315 284 1315 284 1227.5 235 c 128,-1,90
 1140 186 1140 186 1040 186 c 0,0,1
686 378 m 0,91,92
 705 378 705 378 724 385 c 128,-1,93
 743 392 743 392 761.5 410 c 128,-1,94
 780 428 780 428 798 457 c 128,-1,95
 816 486 816 486 831 529 c 2,96,-1
 934 810 l 1,97,98
 912 813 912 813 891 813 c 0,99,100
 842 813 842 813 793.5 785 c 128,-1,101
 745 757 745 757 707.5 710 c 128,-1,102
 670 663 670 663 646.5 601 c 128,-1,103
 623 539 623 539 623 472 c 0,104,105
 623 378 623 378 686 378 c 0,91,92
EndSplineSet
Validated: 1
EndChar

StartChar: A
Encoding: 65 65 36
Width: 1357
GlyphClass: 1
Flags: W
LayerCount: 2
Fore
SplineSet
1319 0 m 1,0,-1
 1061 0 l 2,1,2
 1018 0 1018 0 992 20 c 128,-1,3
 966 40 966 40 961 73 c 2,4,-1
 914 341 l 1,5,-1
 408 341 l 1,6,-1
 297 73 l 2,7,8
 286 44 286 44 253 22 c 128,-1,9
 220 0 220 0 180 0 c 2,10,-1
 -82 0 l 1,11,-1
 631 1492 l 1,12,-1
 973 1492 l 1,13,-1
 1319 0 l 1,0,-1
501 568 m 1,14,-1
 876 568 l 1,15,-1
 803 994 l 2,16,17
 794 1047 794 1047 783 1102 c 128,-1,18
 772 1157 772 1157 765 1202 c 1,19,20
 757 1177 757 1177 743.5 1146 c 128,-1,21
 730 1115 730 1115 717.5 1085.5 c 128,-1,22
 705 1056 705 1056 693 1030.5 c 128,-1,23
 681 1005 681 1005 676 992 c 2,24,-1
 501 568 l 1,14,-1
EndSplineSet
Validated: 1
EndChar

StartChar: B
Encoding: 66 66 37
Width: 1236
GlyphClass: 1
Flags: W
LayerCount: 2
Fore
SplineSet
45 0 m 1,0,-1
 229 1492 l 1,1,-1
 741 1492 l 2,2,3
 871 1492 871 1492 964 1467.5 c 128,-1,4
 1057 1443 1057 1443 1116 1397.5 c 128,-1,5
 1175 1352 1175 1352 1202 1288 c 128,-1,6
 1229 1224 1229 1224 1229 1146 c 0,7,8
 1229 1085 1229 1085 1213 1028 c 128,-1,9
 1197 971 1197 971 1162.5 922.5 c 128,-1,10
 1128 874 1128 874 1074 835 c 128,-1,11
 1020 796 1020 796 943 769 c 1,12,13
 1064 736 1064 736 1122 667 c 128,-1,14
 1180 598 1180 598 1180 493 c 0,15,16
 1180 390 1180 390 1140.5 300 c 128,-1,17
 1101 210 1101 210 1026 143.5 c 128,-1,18
 951 77 951 77 844 38.5 c 128,-1,19
 737 0 737 0 602 0 c 2,20,-1
 45 0 l 1,0,-1
457 637 m 1,21,-1
 410 251 l 1,22,-1
 629 251 l 2,23,24
 690 251 690 251 732 269 c 128,-1,25
 774 287 774 287 800 319 c 128,-1,26
 826 351 826 351 838 394 c 128,-1,27
 850 437 850 437 850 488 c 0,28,29
 850 522 850 522 841.5 550 c 128,-1,30
 833 578 833 578 812 596.5 c 128,-1,31
 791 615 791 615 756.5 626 c 128,-1,32
 722 637 722 637 672 637 c 2,33,-1
 457 637 l 1,21,-1
483 858 m 1,34,-1
 643 858 l 2,35,36
 699 858 699 858 744.5 869.5 c 128,-1,37
 790 881 790 881 822 908 c 128,-1,38
 854 935 854 935 871.5 980 c 128,-1,39
 889 1025 889 1025 889 1092 c 0,40,41
 889 1175 889 1175 845.5 1209 c 128,-1,42
 802 1243 802 1243 711 1243 c 2,43,-1
 530 1243 l 1,44,-1
 483 858 l 1,34,-1
EndSplineSet
Validated: 1
EndChar

StartChar: C
Encoding: 67 67 38
Width: 1210
GlyphClass: 1
Flags: W
LayerCount: 2
Fore
SplineSet
694 258 m 0,0,1
 750 258 750 258 792 266.5 c 128,-1,2
 834 275 834 275 863.5 288.5 c 128,-1,3
 893 302 893 302 913.5 318 c 128,-1,4
 934 334 934 334 950.5 347 c 128,-1,5
 967 360 967 360 981 369 c 128,-1,6
 995 378 995 378 1012 378 c 256,7,8
 1028 378 1028 378 1039 372.5 c 128,-1,9
 1050 367 1050 367 1055 359 c 2,10,-1
 1171 219 l 1,11,12
 1074 103 1074 103 940.5 43.5 c 128,-1,13
 807 -16 807 -16 637 -16 c 0,14,15
 496 -16 496 -16 387 33.5 c 128,-1,16
 278 83 278 83 203 170 c 128,-1,17
 128 257 128 257 89.5 376.5 c 128,-1,18
 51 496 51 496 51 634 c 0,19,20
 51 762 51 762 80 876.5 c 128,-1,21
 109 991 109 991 161 1088.5 c 128,-1,22
 213 1186 213 1186 286 1263.5 c 128,-1,23
 359 1341 359 1341 448.5 1395.5 c 128,-1,24
 538 1450 538 1450 640 1479 c 128,-1,25
 742 1508 742 1508 854 1508 c 0,26,27
 938 1508 938 1508 1007 1492.5 c 128,-1,28
 1076 1477 1076 1477 1132 1448.5 c 128,-1,29
 1188 1420 1188 1420 1232 1381 c 128,-1,30
 1276 1342 1276 1342 1309 1295 c 1,31,-1
 1192 1160 l 2,32,33
 1180 1146 1180 1146 1163.5 1134.5 c 128,-1,34
 1147 1123 1147 1123 1120 1123 c 0,35,36
 1103 1123 1103 1123 1088.5 1131.5 c 128,-1,37
 1074 1140 1074 1140 1059 1151.5 c 128,-1,38
 1044 1163 1044 1163 1026 1177.5 c 128,-1,39
 1008 1192 1008 1192 982 1203.5 c 128,-1,40
 956 1215 956 1215 921 1223.5 c 128,-1,41
 886 1232 886 1232 838 1232 c 0,42,43
 744 1232 744 1232 662.5 1192 c 128,-1,44
 581 1152 581 1152 521 1078 c 128,-1,45
 461 1004 461 1004 427 898 c 128,-1,46
 393 792 393 792 393 660 c 0,47,48
 393 565 393 565 416 490.5 c 128,-1,49
 439 416 439 416 479 364 c 128,-1,50
 519 312 519 312 574 285 c 128,-1,51
 629 258 629 258 694 258 c 0,0,1
EndSplineSet
Validated: 1
EndChar

StartChar: D
Encoding: 68 68 39
Width: 1396
GlyphClass: 1
Flags: W
LayerCount: 2
Fore
SplineSet
1399 842 m 0,0,1
 1399 720 1399 720 1371 611 c 128,-1,2
 1343 502 1343 502 1292 408 c 128,-1,3
 1241 314 1241 314 1168 239 c 128,-1,4
 1095 164 1095 164 1004 110.5 c 128,-1,5
 913 57 913 57 806 28.5 c 128,-1,6
 699 0 699 0 582 0 c 2,7,-1
 45 0 l 1,8,-1
 229 1492 l 1,9,-1
 766 1492 l 2,10,11
 912 1492 912 1492 1029.5 1442.5 c 128,-1,12
 1147 1393 1147 1393 1229 1306 c 128,-1,13
 1311 1219 1311 1219 1355 1100 c 128,-1,14
 1399 981 1399 981 1399 842 c 0,0,1
1057 834 m 0,15,16
 1057 925 1057 925 1036 999 c 128,-1,17
 1015 1073 1015 1073 973.5 1125.5 c 128,-1,18
 932 1178 932 1178 871.5 1206.5 c 128,-1,19
 811 1235 811 1235 733 1235 c 2,20,-1
 532 1235 l 1,21,-1
 414 257 l 1,22,-1
 614 257 l 2,23,24
 716 257 716 257 798.5 297.5 c 128,-1,25
 881 338 881 338 938 412.5 c 128,-1,26
 995 487 995 487 1026 594 c 128,-1,27
 1057 701 1057 701 1057 834 c 0,15,16
EndSplineSet
Validated: 1
EndChar

StartChar: E
Encoding: 69 69 40
Width: 1060
GlyphClass: 1
Flags: W
LayerCount: 2
Fore
SplineSet
1085 1235 m 1,0,-1
 534 1235 l 1,1,-1
 488 874 l 1,2,-1
 911 874 l 1,3,-1
 879 627 l 1,4,-1
 458 627 l 1,5,-1
 413 257 l 1,6,-1
 969 257 l 1,7,-1
 936 0 l 1,8,-1
 45 0 l 1,9,-1
 229 1492 l 1,10,-1
 1118 1492 l 1,11,-1
 1085 1235 l 1,0,-1
EndSplineSet
Validated: 1
EndChar

StartChar: F
Encoding: 70 70 41
Width: 1048
GlyphClass: 1
Flags: W
LayerCount: 2
Fore
SplineSet
1085 1235 m 1,0,-1
 534 1235 l 1,1,-1
 484 842 l 1,2,-1
 946 842 l 1,3,-1
 911 585 l 1,4,-1
 453 585 l 1,5,-1
 381 0 l 1,6,-1
 45 0 l 1,7,-1
 229 1492 l 1,8,-1
 1118 1492 l 1,9,-1
 1085 1235 l 1,0,-1
EndSplineSet
Validated: 1
EndChar

StartChar: G
Encoding: 71 71 42
Width: 1337
GlyphClass: 1
Flags: W
LayerCount: 2
Fore
SplineSet
727 241 m 0,0,1
 788 241 788 241 837.5 251.5 c 128,-1,2
 887 262 887 262 932 282 c 1,3,-1
 961 525 l 1,4,-1
 834 525 l 2,5,6
 805 525 805 525 789.5 538.5 c 128,-1,7
 774 552 774 552 774 574 c 2,8,-1
 797 767 l 1,9,-1
 1294 767 l 1,10,-1
 1217 143 l 1,11,12
 1160 101 1160 101 1098 71 c 128,-1,13
 1036 41 1036 41 969 21.5 c 128,-1,14
 902 2 902 2 828 -7 c 128,-1,15
 754 -16 754 -16 670 -16 c 0,16,17
 532 -16 532 -16 417.5 34.5 c 128,-1,18
 303 85 303 85 221.5 174 c 128,-1,19
 140 263 140 263 95.5 385 c 128,-1,20
 51 507 51 507 51 649 c 0,21,22
 51 773 51 773 79.5 885 c 128,-1,23
 108 997 108 997 160 1092.5 c 128,-1,24
 212 1188 212 1188 285 1264.5 c 128,-1,25
 358 1341 358 1341 448 1395.5 c 128,-1,26
 538 1450 538 1450 641 1479 c 128,-1,27
 744 1508 744 1508 858 1508 c 0,28,29
 953 1508 953 1508 1030.5 1491 c 128,-1,30
 1108 1474 1108 1474 1169.5 1444.5 c 128,-1,31
 1231 1415 1231 1415 1279 1376.5 c 128,-1,32
 1327 1338 1327 1338 1364 1297 c 1,33,-1
 1255 1163 l 2,34,35
 1218 1118 1218 1118 1172 1118 c 0,36,37
 1144 1118 1144 1118 1116 1137 c 0,38,39
 1079 1161 1079 1161 1047.5 1178.5 c 128,-1,40
 1016 1196 1016 1196 983.5 1208 c 128,-1,41
 951 1220 951 1220 915 1226 c 128,-1,42
 879 1232 879 1232 834 1232 c 0,43,44
 737 1232 737 1232 655.5 1190.5 c 128,-1,45
 574 1149 574 1149 516 1073.5 c 128,-1,46
 458 998 458 998 425.5 892.5 c 128,-1,47
 393 787 393 787 393 660 c 0,48,49
 393 562 393 562 417 484 c 128,-1,50
 441 406 441 406 485 352 c 128,-1,51
 529 298 529 298 590.5 269.5 c 128,-1,52
 652 241 652 241 727 241 c 0,0,1
EndSplineSet
Validated: 1
EndChar

StartChar: H
Encoding: 72 72 43
Width: 1425
GlyphClass: 1
Flags: W
LayerCount: 2
Fore
SplineSet
1255 0 m 1,0,-1
 920 0 l 1,1,-1
 997 635 l 1,2,-1
 459 635 l 1,3,-1
 381 0 l 1,4,-1
 45 0 l 1,5,-1
 229 1492 l 1,6,-1
 565 1492 l 1,7,-1
 487 862 l 1,8,-1
 1026 862 l 1,9,-1
 1104 1492 l 1,10,-1
 1440 1492 l 1,11,-1
 1255 0 l 1,0,-1
EndSplineSet
Validated: 1
EndChar

StartChar: I
Encoding: 73 73 44
Width: 606
GlyphClass: 1
Flags: W
LayerCount: 2
Fore
SplineSet
410 0 m 1,0,-1
 74 0 l 1,1,-1
 256 1492 l 1,2,-1
 592 1492 l 1,3,-1
 410 0 l 1,0,-1
EndSplineSet
Validated: 1
EndChar

StartChar: J
Encoding: 74 74 45
Width: 806
GlyphClass: 1
Flags: W
LayerCount: 2
Fore
SplineSet
705 536 m 2,0,1
 690 411 690 411 648.5 309.5 c 128,-1,2
 607 208 607 208 539.5 135 c 128,-1,3
 472 62 472 62 378.5 23 c 128,-1,4
 285 -16 285 -16 164 -16 c 0,5,6
 110 -16 110 -16 58 -10 c 128,-1,7
 6 -4 6 -4 -49 10 c 1,8,-1
 -25 202 l 2,9,10
 -22 228 -22 228 -7 244.5 c 128,-1,11
 8 261 8 261 41 261 c 0,12,13
 66 261 66 261 96.5 255.5 c 128,-1,14
 127 250 127 250 164 250 c 0,15,16
 247 250 247 250 300 315 c 128,-1,17
 353 380 353 380 371 527 c 2,18,-1
 487 1492 l 1,19,-1
 821 1492 l 1,20,-1
 705 536 l 2,0,1
EndSplineSet
Validated: 1
EndChar

StartChar: K
Encoding: 75 75 46
Width: 1351
GlyphClass: 1
Flags: W
LayerCount: 2
Fore
SplineSet
485 882 m 1,0,-1
 535 882 l 2,1,2
 571 882 571 882 598.5 893.5 c 128,-1,3
 626 905 626 905 643 931 c 2,4,-1
 997 1425 l 2,5,6
 1026 1465 1026 1465 1063 1478.5 c 128,-1,7
 1100 1492 1100 1492 1149 1492 c 2,8,-1
 1438 1492 l 1,9,-1
 969 883 l 2,10,11
 945 851 945 851 919.5 830.5 c 128,-1,12
 894 810 894 810 866 796 c 1,13,14
 901 782 901 782 927.5 757.5 c 128,-1,15
 954 733 954 733 973 692 c 2,16,-1
 1288 0 l 1,17,-1
 991 0 l 2,18,19
 962 0 962 0 942.5 4 c 128,-1,20
 923 8 923 8 909 16 c 128,-1,21
 895 24 895 24 886 35.5 c 128,-1,22
 877 47 877 47 870 61 c 2,23,-1
 639 586 l 2,24,25
 626 616 626 616 600.5 627.5 c 128,-1,26
 575 639 575 639 532 639 c 2,27,-1
 456 639 l 1,28,-1
 377 0 l 1,29,-1
 45 0 l 1,30,-1
 227 1492 l 1,31,-1
 561 1492 l 1,32,-1
 485 882 l 1,0,-1
EndSplineSet
Validated: 1
EndChar

StartChar: L
Encoding: 76 76 47
Width: 978
GlyphClass: 1
Flags: W
LayerCount: 2
Fore
SplineSet
412 266 m 1,0,-1
 913 266 l 1,1,-1
 881 0 l 1,2,-1
 45 0 l 1,3,-1
 229 1492 l 1,4,-1
 563 1492 l 1,5,-1
 412 266 l 1,0,-1
EndSplineSet
Validated: 1
EndChar

StartChar: M
Encoding: 77 77 48
Width: 1773
GlyphClass: 1
Flags: W
LayerCount: 2
Fore
SplineSet
887 523 m 17,0,1
 903 557 903 557 921 590 c 128,-1,2
 939 623 939 623 958 655 c 2,3,-1
 1415 1441 l 2,4,5
 1435 1476 1435 1476 1466 1484 c 128,-1,6
 1497 1492 1497 1492 1526 1492 c 2,7,-1
 1788 1492 l 1,8,-1
 1604 0 l 1,9,-1
 1311 0 l 1,10,-1
 1415 868 l 2,11,12
 1418 896 1418 896 1425 929.5 c 128,-1,13
 1432 963 1432 963 1440 998 c 1,14,-1
 991 228 l 2,15,16
 971 193 971 193 938 176.5 c 128,-1,17
 905 160 905 160 866 160 c 2,18,-1
 821 160 l 2,19,20
 782 160 782 160 753 177.5 c 128,-1,21
 724 195 724 195 713 228 c 2,22,-1
 451 1000 l 1,23,24
 449 965 449 965 447 932.5 c 128,-1,25
 445 900 445 900 442 873 c 2,26,-1
 340 0 l 1,27,-1
 45 0 l 1,28,-1
 229 1492 l 1,29,-1
 483 1492 l 2,30,31
 505 1492 505 1492 521.5 1491 c 128,-1,32
 538 1490 538 1490 550.5 1485.5 c 128,-1,33
 563 1481 563 1481 572.5 1470.5 c 128,-1,34
 582 1460 582 1460 588 1441 c 2,35,-1
 850 655 l 9,36,-1
 887 523 l 17,0,1
EndSplineSet
Validated: 1
EndChar

StartChar: N
Encoding: 78 78 49
Width: 1425
GlyphClass: 1
Flags: W
LayerCount: 2
Fore
SplineSet
442 1490 m 16,0,1
 458 1488 458 1488 468 1484 c 0,2,3
 480 1478 480 1478 489.5 1467.5 c 128,-1,4
 499 1457 499 1457 508 1441 c 2,5,-1
 1031 519 l 1,6,7
 1033 555 1033 555 1037 588 c 128,-1,8
 1041 621 1041 621 1044 649 c 2,9,-1
 1145 1492 l 1,10,-1
 1440 1492 l 1,11,-1
 1255 0 l 1,12,-1
 1081 0 l 2,13,14
 1042 0 1042 0 1016.5 11.5 c 128,-1,15
 991 23 991 23 973 55 c 2,16,-1
 452 976 l 1,17,18
 450 947 450 947 447 920.5 c 128,-1,19
 444 894 444 894 442 870 c 2,20,-1
 340 0 l 1,21,-1
 45 0 l 1,22,-1
 229 1492 l 1,23,-1
 406 1492 l 9,24,25
 432 1492 432 1492 442 1490 c 16,0,1
EndSplineSet
Validated: 1
EndChar

StartChar: O
Encoding: 79 79 50
Width: 1499
GlyphClass: 1
Flags: W
LayerCount: 2
Fore
SplineSet
1503 842 m 0,0,1
 1503 721 1503 721 1475 610.5 c 128,-1,2
 1447 500 1447 500 1395 404.5 c 128,-1,3
 1343 309 1343 309 1270 231.5 c 128,-1,4
 1197 154 1197 154 1106 99 c 128,-1,5
 1015 44 1015 44 908.5 14 c 128,-1,6
 802 -16 802 -16 684 -16 c 0,7,8
 537 -16 537 -16 419.5 35.5 c 128,-1,9
 302 87 302 87 220 176.5 c 128,-1,10
 138 266 138 266 94.5 387.5 c 128,-1,11
 51 509 51 509 51 649 c 0,12,13
 51 770 51 770 79.5 881 c 128,-1,14
 108 992 108 992 159.5 1087.5 c 128,-1,15
 211 1183 211 1183 284.5 1260.5 c 128,-1,16
 358 1338 358 1338 449.5 1393 c 128,-1,17
 541 1448 541 1448 647.5 1478 c 128,-1,18
 754 1508 754 1508 872 1508 c 0,19,20
 1018 1508 1018 1508 1135.5 1456.5 c 128,-1,21
 1253 1405 1253 1405 1334.5 1315 c 128,-1,22
 1416 1225 1416 1225 1459.5 1103 c 128,-1,23
 1503 981 1503 981 1503 842 c 0,0,1
1161 834 m 0,24,25
 1161 926 1161 926 1139 1001 c 128,-1,26
 1117 1076 1117 1076 1074.5 1130 c 128,-1,27
 1032 1184 1032 1184 970.5 1213 c 128,-1,28
 909 1242 909 1242 831 1242 c 0,29,30
 729 1242 729 1242 648 1199.5 c 128,-1,31
 567 1157 567 1157 510.5 1080.5 c 128,-1,32
 454 1004 454 1004 423.5 895.5 c 128,-1,33
 393 787 393 787 393 656 c 0,34,35
 393 564 393 564 414.5 489.5 c 128,-1,36
 436 415 436 415 477.5 361.5 c 128,-1,37
 519 308 519 308 580.5 279 c 128,-1,38
 642 250 642 250 721 250 c 0,39,40
 823 250 823 250 904.5 292 c 128,-1,41
 986 334 986 334 1043 410.5 c 128,-1,42
 1100 487 1100 487 1130.5 595 c 128,-1,43
 1161 703 1161 703 1161 834 c 0,24,25
EndSplineSet
Validated: 1
EndChar

StartChar: P
Encoding: 80 80 51
Width: 1208
GlyphClass: 1
Flags: W
LayerCount: 2
Fore
SplineSet
438 503 m 1,0,-1
 377 0 l 1,1,-1
 45 0 l 1,2,-1
 227 1492 l 1,3,-1
 721 1492 l 2,4,5
 854 1492 854 1492 948.5 1459.5 c 128,-1,6
 1043 1427 1043 1427 1104 1370.5 c 128,-1,7
 1165 1314 1165 1314 1194 1236.5 c 128,-1,8
 1223 1159 1223 1159 1223 1070 c 0,9,10
 1223 948 1223 948 1185.5 844 c 128,-1,11
 1148 740 1148 740 1071 664.5 c 128,-1,12
 994 589 994 589 876.5 546 c 128,-1,13
 759 503 759 503 598 503 c 2,14,-1
 438 503 l 1,0,-1
530 1243 m 1,15,-1
 470 754 l 1,16,-1
 631 754 l 2,17,18
 703 754 703 754 751.5 775 c 128,-1,19
 800 796 800 796 830 834 c 128,-1,20
 860 872 860 872 873.5 925.5 c 128,-1,21
 887 979 887 979 887 1042 c 0,22,23
 887 1086 887 1086 875 1123 c 128,-1,24
 863 1160 863 1160 838.5 1186.5 c 128,-1,25
 814 1213 814 1213 776.5 1228 c 128,-1,26
 739 1243 739 1243 688 1243 c 2,27,-1
 530 1243 l 1,15,-1
EndSplineSet
Validated: 1
EndChar

StartChar: Q
Encoding: 81 81 52
Width: 1499
GlyphClass: 1
Flags: W
LayerCount: 2
Fore
SplineSet
1503 842 m 0,0,1
 1503 728 1503 728 1478.5 623.5 c 128,-1,2
 1454 519 1454 519 1408 427.5 c 128,-1,3
 1362 336 1362 336 1296.5 259.5 c 128,-1,4
 1231 183 1231 183 1150 127 c 1,5,-1
 1448 -281 l 1,6,-1
 1174 -281 l 2,7,8
 1116 -281 1116 -281 1068.5 -267 c 128,-1,9
 1021 -253 1021 -253 991 -209 c 2,10,-1
 847 -1 l 1,11,12
 768 -16 768 -16 684 -16 c 0,13,14
 537 -16 537 -16 419.5 35.5 c 128,-1,15
 302 87 302 87 220 176.5 c 128,-1,16
 138 266 138 266 94.5 387.5 c 128,-1,17
 51 509 51 509 51 649 c 0,18,19
 51 770 51 770 79.5 881 c 128,-1,20
 108 992 108 992 159.5 1087.5 c 128,-1,21
 211 1183 211 1183 284.5 1260.5 c 128,-1,22
 358 1338 358 1338 449.5 1393 c 128,-1,23
 541 1448 541 1448 647.5 1478 c 128,-1,24
 754 1508 754 1508 872 1508 c 0,25,26
 1018 1508 1018 1508 1135.5 1456.5 c 128,-1,27
 1253 1405 1253 1405 1334.5 1315 c 128,-1,28
 1416 1225 1416 1225 1459.5 1103 c 128,-1,29
 1503 981 1503 981 1503 842 c 0,0,1
1161 834 m 0,30,31
 1161 926 1161 926 1139 1001 c 128,-1,32
 1117 1076 1117 1076 1074.5 1130 c 128,-1,33
 1032 1184 1032 1184 970.5 1213 c 128,-1,34
 909 1242 909 1242 831 1242 c 0,35,36
 729 1242 729 1242 648 1199.5 c 128,-1,37
 567 1157 567 1157 510.5 1080.5 c 128,-1,38
 454 1004 454 1004 423.5 895.5 c 128,-1,39
 393 787 393 787 393 656 c 0,40,41
 393 564 393 564 414.5 489.5 c 128,-1,42
 436 415 436 415 477.5 361.5 c 128,-1,43
 519 308 519 308 580.5 279 c 128,-1,44
 642 250 642 250 721 250 c 0,45,46
 823 250 823 250 904.5 292 c 128,-1,47
 986 334 986 334 1043 410.5 c 128,-1,48
 1100 487 1100 487 1130.5 595 c 128,-1,49
 1161 703 1161 703 1161 834 c 0,30,31
EndSplineSet
Validated: 1
EndChar

StartChar: R
Encoding: 82 82 53
Width: 1257
GlyphClass: 1
Flags: W
LayerCount: 2
Fore
SplineSet
445 557 m 1,0,-1
 377 0 l 1,1,-1
 45 0 l 1,2,-1
 227 1492 l 1,3,-1
 680 1492 l 2,4,5
 817 1492 817 1492 914 1463 c 128,-1,6
 1011 1434 1011 1434 1072.5 1382.5 c 128,-1,7
 1134 1331 1134 1331 1162 1261 c 128,-1,8
 1190 1191 1190 1191 1190 1109 c 0,9,10
 1190 1026 1190 1026 1168 952.5 c 128,-1,11
 1146 879 1146 879 1104 817 c 128,-1,12
 1062 755 1062 755 1001 707 c 128,-1,13
 940 659 940 659 862 629 c 1,14,15
 893 612 893 612 920 587 c 128,-1,16
 947 562 947 562 963 525 c 2,17,-1
 1180 0 l 1,18,-1
 879 0 l 2,19,20
 837 0 837 0 808 16.5 c 128,-1,21
 779 33 779 33 768 63 c 2,22,-1
 606 505 l 2,23,24
 595 534 595 534 576 545.5 c 128,-1,25
 557 557 557 557 520 557 c 2,26,-1
 445 557 l 1,0,-1
530 1243 m 1,27,-1
 474 787 l 1,28,-1
 596 787 l 2,29,30
 668 787 668 787 718 809 c 128,-1,31
 768 831 768 831 799 868 c 128,-1,32
 830 905 830 905 844 954.5 c 128,-1,33
 858 1004 858 1004 858 1058 c 0,34,35
 858 1100 858 1100 846 1134 c 128,-1,36
 834 1168 834 1168 807.5 1192.5 c 128,-1,37
 781 1217 781 1217 741.5 1230 c 128,-1,38
 702 1243 702 1243 649 1243 c 2,39,-1
 530 1243 l 1,27,-1
EndSplineSet
Validated: 1
EndChar

StartChar: S
Encoding: 83 83 54
Width: 1024
GlyphClass: 1
Flags: W
LayerCount: 2
Fore
SplineSet
965 1193 m 2,0,1
 948 1168 948 1168 929.5 1157 c 128,-1,2
 911 1146 911 1146 887 1146 c 256,3,4
 863 1146 863 1146 839.5 1161.5 c 128,-1,5
 816 1177 816 1177 787 1195 c 128,-1,6
 758 1213 758 1213 720 1228.5 c 128,-1,7
 682 1244 682 1244 631 1244 c 0,8,9
 584 1244 584 1244 548.5 1231 c 128,-1,10
 513 1218 513 1218 489.5 1194 c 128,-1,11
 466 1170 466 1170 454 1138.5 c 128,-1,12
 442 1107 442 1107 442 1069 c 0,13,14
 442 1028 442 1028 465 1000.5 c 128,-1,15
 488 973 488 973 526.5 952 c 128,-1,16
 565 931 565 931 613.5 913.5 c 128,-1,17
 662 896 662 896 712.5 875.5 c 128,-1,18
 763 855 763 855 811.5 828.5 c 128,-1,19
 860 802 860 802 898.5 762 c 128,-1,20
 937 722 937 722 960 665.5 c 128,-1,21
 983 609 983 609 983 530 c 0,22,23
 983 417 983 417 944 318 c 128,-1,24
 905 219 905 219 832.5 145 c 128,-1,25
 760 71 760 71 656 27.5 c 128,-1,26
 552 -16 552 -16 422 -16 c 0,27,28
 357 -16 357 -16 292 -2 c 128,-1,29
 227 12 227 12 167.5 38.5 c 128,-1,30
 108 65 108 65 56.5 100.5 c 128,-1,31
 5 136 5 136 -31 180 c 1,32,-1
 88 336 l 2,33,34
 101 353 101 353 122.5 364.5 c 128,-1,35
 144 376 144 376 166 376 c 0,36,37
 195 376 195 376 222 356 c 128,-1,38
 249 336 249 336 281.5 312 c 128,-1,39
 314 288 314 288 357.5 268 c 128,-1,40
 401 248 401 248 465 248 c 0,41,42
 558 248 558 248 608.5 298.5 c 128,-1,43
 659 349 659 349 659 449 c 0,44,45
 659 495 659 495 636 524.5 c 128,-1,46
 613 554 613 554 576 574.5 c 128,-1,47
 539 595 539 595 490.5 611 c 128,-1,48
 442 627 442 627 392 645.5 c 128,-1,49
 342 664 342 664 294 689 c 128,-1,50
 246 714 246 714 208.5 754.5 c 128,-1,51
 171 795 171 795 148 853.5 c 128,-1,52
 125 912 125 912 125 998 c 0,53,54
 125 1097 125 1097 162.5 1189 c 128,-1,55
 200 1281 200 1281 269.5 1351.5 c 128,-1,56
 339 1422 339 1422 438.5 1464 c 128,-1,57
 538 1506 538 1506 662 1506 c 0,58,59
 725 1506 725 1506 785 1493 c 128,-1,60
 845 1480 845 1480 897 1456.5 c 128,-1,61
 949 1433 949 1433 992 1400.5 c 128,-1,62
 1035 1368 1035 1368 1065 1330 c 1,63,-1
 965 1193 l 2,0,1
EndSplineSet
Validated: 1
EndChar

StartChar: T
Encoding: 84 84 55
Width: 1130
GlyphClass: 1
Flags: W
LayerCount: 2
Fore
SplineSet
1235 1492 m 1,0,-1
 1200 1228 l 1,1,-1
 821 1228 l 1,2,-1
 670 0 l 1,3,-1
 338 0 l 1,4,-1
 487 1228 l 1,5,-1
 106 1228 l 1,6,-1
 139 1492 l 1,7,-1
 1235 1492 l 1,0,-1
EndSplineSet
Validated: 1
EndChar

StartChar: U
Encoding: 85 85 56
Width: 1366
GlyphClass: 1
Flags: W
LayerCount: 2
Fore
SplineSet
655 262 m 0,0,1
 717 262 717 262 768.5 286 c 128,-1,2
 820 310 820 310 859 354.5 c 128,-1,3
 898 399 898 399 923.5 462.5 c 128,-1,4
 949 526 949 526 958 605 c 2,5,-1
 1067 1492 l 1,6,-1
 1401 1492 l 1,7,-1
 1292 605 l 2,8,9
 1275 469 1275 469 1220 355 c 128,-1,10
 1165 241 1165 241 1077.5 158.5 c 128,-1,11
 990 76 990 76 874.5 30 c 128,-1,12
 759 -16 759 -16 621 -16 c 0,13,14
 496 -16 496 -16 398 21.5 c 128,-1,15
 300 59 300 59 233 128.5 c 128,-1,16
 166 198 166 198 131 294 c 128,-1,17
 96 390 96 390 96 506 c 0,18,19
 96 554 96 554 102 605 c 2,20,-1
 209 1492 l 1,21,-1
 543 1492 l 1,22,-1
 434 605 l 2,23,24
 432 587 432 587 431 569 c 128,-1,25
 430 551 430 551 430 534 c 0,26,27
 430 407 430 407 487.5 334.5 c 128,-1,28
 545 262 545 262 655 262 c 0,0,1
EndSplineSet
Validated: 1
EndChar

StartChar: V
Encoding: 86 86 57
Width: 1400
GlyphClass: 1
Flags: W
LayerCount: 2
Fore
SplineSet
121 1492 m 1,0,-1
 389 1492 l 2,1,2
 432 1492 432 1492 457.5 1471.5 c 128,-1,3
 483 1451 483 1451 489 1419 c 2,4,-1
 645 597 l 2,5,6
 654 547 654 547 667 484 c 128,-1,7
 680 421 680 421 688 356 c 1,8,9
 710 421 710 421 737.5 483 c 128,-1,10
 765 545 765 545 786 597 c 2,11,-1
 1135 1419 l 2,12,13
 1141 1432 1141 1432 1152 1445.5 c 128,-1,14
 1163 1459 1163 1459 1179 1469.5 c 128,-1,15
 1195 1480 1195 1480 1214 1486 c 128,-1,16
 1233 1492 1233 1492 1253 1492 c 2,17,-1
 1524 1492 l 1,18,-1
 791 0 l 1,19,-1
 487 0 l 1,20,-1
 121 1492 l 1,0,-1
EndSplineSet
Validated: 1
EndChar

StartChar: W
Encoding: 87 87 58
Width: 2027
GlyphClass: 1
Flags: W
LayerCount: 2
Fore
SplineSet
131 1492 m 1,0,-1
 393 1492 l 2,1,2
 436 1492 436 1492 462 1472 c 128,-1,3
 488 1452 488 1452 494 1419 c 2,4,-1
 598 615 l 2,5,6
 602 586 602 586 604 556 c 128,-1,7
 606 526 606 526 608 502 c 0,8,9
 610 472 610 472 610 444 c 1,10,11
 625 492 625 492 642 535 c 128,-1,12
 659 578 659 578 674 615 c 2,13,-1
 979 1419 l 2,14,15
 990 1447 990 1447 1022 1469.5 c 128,-1,16
 1054 1492 1054 1492 1096 1492 c 2,17,-1
 1174 1492 l 2,18,19
 1217 1492 1217 1492 1244 1472 c 128,-1,20
 1271 1452 1271 1452 1276 1419 c 2,21,-1
 1391 615 l 2,22,23
 1396 579 1396 579 1401.5 537 c 128,-1,24
 1407 495 1407 495 1411 449 c 1,25,26
 1424 495 1424 495 1437.5 537 c 128,-1,27
 1451 579 1451 579 1464 615 c 2,28,-1
 1759 1419 l 2,29,30
 1769 1448 1769 1448 1802.5 1470 c 128,-1,31
 1836 1492 1836 1492 1878 1492 c 2,32,-1
 2142 1492 l 1,33,-1
 1534 0 l 1,34,-1
 1231 0 l 1,35,-1
 1094 942 l 2,36,37
 1091 965 1091 965 1086.5 992 c 128,-1,38
 1082 1019 1082 1019 1079 1049 c 1,39,40
 1068 1019 1068 1019 1057.5 992 c 128,-1,41
 1047 965 1047 965 1038 942 c 2,42,-1
 674 0 l 1,43,-1
 373 0 l 1,44,-1
 131 1492 l 1,0,-1
EndSplineSet
Validated: 1
EndChar

StartChar: X
Encoding: 88 88 59
Width: 1355
GlyphClass: 1
Flags: W
LayerCount: 2
Fore
SplineSet
483 796 m 1,0,-1
 160 1492 l 1,1,-1
 463 1492 l 2,2,3
 496 1492 496 1492 509.5 1483.5 c 128,-1,4
 523 1475 523 1475 532 1454 c 2,5,-1
 729 983 l 1,6,7
 734 993 734 993 740 1002.5 c 128,-1,8
 746 1012 746 1012 754 1023 c 2,9,-1
 1016 1449 l 2,10,11
 1030 1473 1030 1473 1047 1482.5 c 128,-1,12
 1064 1492 1064 1492 1087 1492 c 2,13,-1
 1438 1492 l 1,14,-1
 941 812 l 1,15,-1
 1300 0 l 1,16,-1
 1001 0 l 2,17,18
 968 0 968 0 950 16.5 c 128,-1,19
 932 33 932 33 924 53 c 2,20,-1
 703 601 l 1,21,22
 699 594 699 594 694.5 588 c 128,-1,23
 690 582 690 582 686 575 c 2,24,-1
 356 53 l 2,25,26
 337 23 337 23 311.5 11.5 c 128,-1,27
 286 0 286 0 256 0 c 2,28,-1
 -78 0 l 1,29,-1
 483 796 l 1,0,-1
EndSplineSet
Validated: 1
EndChar

StartChar: Y
Encoding: 89 89 60
Width: 1286
GlyphClass: 1
Flags: W
LayerCount: 2
Fore
SplineSet
818 571 m 1,0,-1
 748 0 l 1,1,-1
 414 0 l 1,2,-1
 484 568 l 1,3,-1
 100 1492 l 1,4,-1
 397 1492 l 2,5,6
 440 1492 440 1492 464 1472 c 128,-1,7
 488 1452 488 1452 500 1419 c 2,8,-1
 643 968 l 2,9,10
 657 923 657 923 669 881 c 128,-1,11
 681 839 681 839 689 800 c 1,12,13
 708 839 708 839 732 880.5 c 128,-1,14
 756 922 756 922 782 968 c 2,15,-1
 1036 1419 l 2,16,17
 1051 1447 1051 1447 1081 1469.5 c 128,-1,18
 1111 1492 1111 1492 1153 1492 c 2,19,-1
 1430 1492 l 1,20,-1
 818 571 l 1,0,-1
EndSplineSet
Validated: 1
EndChar

StartChar: Z
Encoding: 90 90 61
Width: 1146
GlyphClass: 1
Flags: W
LayerCount: 2
Fore
SplineSet
1241 1492 m 1,0,-1
 1227 1392 l 2,1,2
 1224 1372 1224 1372 1214 1353 c 128,-1,3
 1204 1334 1204 1334 1192 1317 c 2,4,-1
 438 257 l 1,5,-1
 1069 257 l 1,6,-1
 1036 0 l 1,7,-1
 -29 0 l 1,8,-1
 -16 98 l 2,9,10
 -13 118 -13 118 -3.5 137 c 128,-1,11
 6 156 6 156 18 173 c 2,12,-1
 773 1235 l 1,13,-1
 176 1235 l 1,14,-1
 209 1492 l 1,15,-1
 1241 1492 l 1,0,-1
EndSplineSet
Validated: 1
EndChar

StartChar: bracketleft
Encoding: 91 91 62
Width: 565
GlyphClass: 1
Flags: W
LayerCount: 2
Fore
SplineSet
-23 -328 m 1,0,-1
 213 1592 l 1,1,-1
 643 1592 l 1,2,-1
 629 1476 l 2,3,4
 625 1446 625 1446 599.5 1424.5 c 128,-1,5
 574 1403 574 1403 541 1403 c 2,6,-1
 445 1403 l 1,7,-1
 255 -137 l 1,8,-1
 354 -137 l 2,9,10
 385 -137 385 -137 404 -156 c 128,-1,11
 423 -175 423 -175 423 -203 c 0,12,13
 423 -204 423 -204 422.5 -207 c 128,-1,14
 422 -210 422 -210 420.5 -221.5 c 128,-1,15
 419 -233 419 -233 416 -258.5 c 128,-1,16
 413 -284 413 -284 408 -328 c 1,17,-1
 -23 -328 l 1,0,-1
EndSplineSet
Validated: 1
EndChar

StartChar: backslash
Encoding: 92 92 63
Width: 765
GlyphClass: 1
Flags: W
LayerCount: 2
Fore
SplineSet
102 1494 m 1,0,-1
 231 1494 l 2,1,2
 285 1494 285 1494 321.5 1466.5 c 128,-1,3
 358 1439 358 1439 373 1390 c 2,4,-1
 705 -103 l 1,5,-1
 575 -103 l 2,6,7
 527 -103 527 -103 485.5 -75 c 128,-1,8
 444 -47 444 -47 430 7 c 2,9,-1
 102 1494 l 1,0,-1
EndSplineSet
Validated: 1
EndChar

StartChar: bracketright
Encoding: 93 93 64
Width: 565
GlyphClass: 1
Flags: W
LayerCount: 2
Fore
SplineSet
-31 -212 m 2,0,1
 -26 -181 -26 -181 -2 -159 c 128,-1,2
 22 -137 22 -137 55 -137 c 2,3,-1
 153 -137 l 1,4,-1
 343 1403 l 1,5,-1
 244 1403 l 2,6,7
 212 1403 212 1403 192.5 1421.5 c 128,-1,8
 173 1440 173 1440 173 1466 c 0,9,10
 173 1468 173 1468 173.5 1471 c 128,-1,11
 174 1474 174 1474 174 1476 c 2,12,-1
 190 1592 l 1,13,-1
 621 1592 l 1,14,-1
 383 -328 l 1,15,-1
 -47 -328 l 1,16,-1
 -31 -212 l 2,0,1
EndSplineSet
Validated: 1
EndChar

StartChar: asciicircum
Encoding: 94 94 65
Width: 1187
GlyphClass: 1
Flags: W
LayerCount: 2
Fore
SplineSet
1141 786 m 1,0,-1
 907 786 l 2,1,2
 879 786 879 786 861 800 c 128,-1,3
 843 814 843 814 831 836 c 2,4,-1
 705 1078 l 2,5,6
 688 1111 688 1111 672.5 1140.5 c 128,-1,7
 657 1170 657 1170 646 1200 c 1,8,9
 636 1170 636 1170 622.5 1140.5 c 128,-1,10
 609 1111 609 1111 592 1078 c 2,11,-1
 469 836 l 2,12,13
 458 816 458 816 439 801 c 128,-1,14
 420 786 420 786 389 786 c 2,15,-1
 143 786 l 1,16,-1
 539 1492 l 1,17,-1
 745 1492 l 1,18,-1
 1141 786 l 1,0,-1
EndSplineSet
Validated: 1
EndChar

StartChar: underscore
Encoding: 95 95 66
Width: 743
GlyphClass: 1
Flags: W
LayerCount: 2
Fore
SplineSet
668 -117 m 1,0,-1
 643 -307 l 1,1,-1
 -100 -307 l 1,2,-1
 -76 -117 l 1,3,-1
 668 -117 l 1,0,-1
EndSplineSet
Validated: 1
EndChar

StartChar: grave
Encoding: 96 96 67
Width: 626
GlyphClass: 1
Flags: W
LayerCount: 2
Fore
SplineSet
285 1506 m 2,0,1
 330 1506 330 1506 351 1491.5 c 128,-1,2
 372 1477 372 1477 383 1447 c 2,3,-1
 479 1196 l 1,4,-1
 305 1196 l 2,5,6
 271 1196 271 1196 251 1205 c 128,-1,7
 231 1214 231 1214 213 1237 c 2,8,-1
 -2 1506 l 1,9,-1
 285 1506 l 2,0,1
EndSplineSet
Validated: 1
Substitution2: "'case' Case-Sensitive Forms in Latin lookup 0 subtable" grave.case
EndChar

StartChar: a
Encoding: 97 97 68
Width: 1083
GlyphClass: 1
Flags: W
LayerCount: 2
Fore
SplineSet
919 0 m 1,0,-1
 749 0 l 2,1,2
 719 0 719 0 699 7.5 c 128,-1,3
 679 15 679 15 667 28.5 c 128,-1,4
 655 42 655 42 650.5 60.5 c 128,-1,5
 646 79 646 79 646 100 c 2,6,-1
 646 176 l 1,7,8
 580 86 580 86 500.5 35 c 128,-1,9
 421 -16 421 -16 325 -16 c 0,10,11
 268 -16 268 -16 214.5 7 c 128,-1,12
 161 30 161 30 120 76.5 c 128,-1,13
 79 123 79 123 54.5 195 c 128,-1,14
 30 267 30 267 30 366 c 0,15,16
 30 510 30 510 82.5 639.5 c 128,-1,17
 135 769 135 769 230 866.5 c 128,-1,18
 325 964 325 964 455 1021 c 128,-1,19
 585 1078 585 1078 740 1078 c 0,20,21
 816 1078 816 1078 894 1068 c 128,-1,22
 972 1058 972 1058 1048 1031 c 1,23,-1
 919 0 l 1,0,-1
452 234 m 0,24,25
 487 234 487 234 519.5 260.5 c 128,-1,26
 552 287 552 287 581 332 c 128,-1,27
 610 377 610 377 634.5 437.5 c 128,-1,28
 659 498 659 498 677 566 c 1,29,-1
 714 860 l 1,30,-1
 695 860 l 2,31,32
 617 860 617 860 553 825.5 c 128,-1,33
 489 791 489 791 443 731 c 128,-1,34
 397 671 397 671 372 591.5 c 128,-1,35
 347 512 347 512 347 422 c 0,36,37
 347 371 347 371 355.5 335 c 128,-1,38
 364 299 364 299 377.5 277 c 128,-1,39
 391 255 391 255 410 244.5 c 128,-1,40
 429 234 429 234 452 234 c 0,24,25
EndSplineSet
Validated: 1
EndChar

StartChar: b
Encoding: 98 98 69
Width: 1126
GlyphClass: 1
Flags: W
LayerCount: 2
Fore
SplineSet
44 0 m 1,0,-1
 230 1533 l 1,1,-1
 542 1533 l 1,2,-1
 463 895 l 1,3,4
 534 981 534 981 617 1029.5 c 128,-1,5
 700 1078 700 1078 794 1078 c 0,6,7
 860 1078 860 1078 914 1055 c 128,-1,8
 968 1032 968 1032 1007.5 983 c 128,-1,9
 1047 934 1047 934 1069 857.5 c 128,-1,10
 1091 781 1091 781 1091 676 c 0,11,12
 1091 537 1091 537 1048.5 411.5 c 128,-1,13
 1006 286 1006 286 934 190.5 c 128,-1,14
 862 95 862 95 768.5 39.5 c 128,-1,15
 675 -16 675 -16 572 -16 c 0,16,17
 493 -16 493 -16 433.5 14 c 128,-1,18
 374 44 374 44 332 93 c 1,19,-1
 329 83 l 2,20,21
 315 40 315 40 292 20 c 128,-1,22
 269 0 269 0 218 0 c 2,23,-1
 44 0 l 1,0,-1
667 838 m 0,24,25
 633 838 633 838 596.5 812 c 128,-1,26
 560 786 560 786 526.5 741.5 c 128,-1,27
 493 697 493 697 463.5 637.5 c 128,-1,28
 434 578 434 578 415 510 c 1,29,-1
 384 262 l 1,30,31
 414 237 414 237 450.5 227 c 128,-1,32
 487 217 487 217 521 217 c 0,33,34
 576 217 576 217 623 254 c 128,-1,35
 670 291 670 291 703.5 351 c 128,-1,36
 737 411 737 411 756 487.5 c 128,-1,37
 775 564 775 564 775 644 c 0,38,39
 775 745 775 745 745.5 791.5 c 128,-1,40
 716 838 716 838 667 838 c 0,24,25
EndSplineSet
Validated: 1
EndChar

StartChar: c
Encoding: 99 99 70
Width: 897
GlyphClass: 1
Flags: W
LayerCount: 2
Fore
SplineSet
778 91 m 0,0,1
 724 48 724 48 680 28 c 0,2,3
 630 4 630 4 573 -6 c 128,-1,4
 516 -16 516 -16 447 -16 c 0,5,6
 354 -16 354 -16 279.5 15.5 c 128,-1,7
 205 47 205 47 152 105.5 c 128,-1,8
 99 164 99 164 70.5 247 c 128,-1,9
 42 330 42 330 42 433 c 0,10,11
 42 563 42 563 84.5 680 c 128,-1,12
 127 797 127 797 203.5 885 c 128,-1,13
 280 973 280 973 384 1024.5 c 128,-1,14
 488 1076 488 1076 613 1076 c 0,15,16
 719 1076 719 1076 795.5 1040 c 128,-1,17
 872 1004 872 1004 933 926 c 1,18,-1
 830 808 l 2,19,20
 819 797 819 797 805 788 c 128,-1,21
 791 779 791 779 773 779 c 0,22,23
 753 779 753 779 739 788 c 128,-1,24
 725 797 725 797 708.5 806.5 c 128,-1,25
 692 816 692 816 668.5 825 c 128,-1,26
 645 834 645 834 607 834 c 0,27,28
 560 834 560 834 515.5 806.5 c 128,-1,29
 471 779 471 779 436 728 c 128,-1,30
 401 677 401 677 380 602 c 128,-1,31
 359 527 359 527 359 432 c 0,32,33
 359 379 359 379 371.5 339.5 c 128,-1,34
 384 300 384 300 405.5 274 c 128,-1,35
 427 248 427 248 455.5 234.5 c 128,-1,36
 484 221 484 221 517 221 c 0,37,38
 566 221 566 221 596.5 235 c 128,-1,39
 627 249 627 249 649.5 265.5 c 128,-1,40
 672 282 672 282 691.5 295.5 c 128,-1,41
 711 309 711 309 738 309 c 0,42,43
 753 309 753 309 768 302 c 128,-1,44
 783 295 783 295 794 283 c 2,45,-1
 876 186 l 1,46,47
 840 136 840 136 778 91 c 0,0,1
EndSplineSet
Validated: 1
EndChar

StartChar: d
Encoding: 100 100 71
Width: 1128
GlyphClass: 1
Flags: W
LayerCount: 2
Fore
SplineSet
783 0 m 2,0,1
 753 0 753 0 733.5 7.5 c 128,-1,2
 714 15 714 15 702 28.5 c 128,-1,3
 690 42 690 42 685.5 60.5 c 128,-1,4
 681 79 681 79 681 100 c 2,5,-1
 681 189 l 1,6,7
 608 93 608 93 520 38.5 c 128,-1,8
 432 -16 432 -16 333 -16 c 0,9,10
 267 -16 267 -16 213 7 c 128,-1,11
 159 30 159 30 119.5 79 c 128,-1,12
 80 128 80 128 58 204.5 c 128,-1,13
 36 281 36 281 36 387 c 0,14,15
 36 479 36 479 55.5 566.5 c 128,-1,16
 75 654 75 654 109.5 731 c 128,-1,17
 144 808 144 808 192.5 872 c 128,-1,18
 241 936 241 936 298.5 981.5 c 128,-1,19
 356 1027 356 1027 420.5 1052.5 c 128,-1,20
 485 1078 485 1078 554 1078 c 0,21,22
 620 1078 620 1078 672.5 1056 c 128,-1,23
 725 1034 725 1034 765 998 c 1,24,-1
 833 1533 l 1,25,-1
 1144 1533 l 1,26,-1
 953 0 l 1,27,-1
 783 0 l 2,0,1
460 225 m 0,28,29
 493 225 493 225 528 249.5 c 128,-1,30
 563 274 563 274 596.5 317 c 128,-1,31
 630 360 630 360 658.5 418 c 128,-1,32
 687 476 687 476 708 543 c 1,33,-1
 740 801 l 1,34,35
 710 825 710 825 674 835 c 128,-1,36
 638 845 638 845 605 845 c 0,37,38
 550 845 550 845 503.5 808 c 128,-1,39
 457 771 457 771 423 711 c 128,-1,40
 389 651 389 651 370 574.5 c 128,-1,41
 351 498 351 498 351 418 c 0,42,43
 351 317 351 317 381 271 c 128,-1,44
 411 225 411 225 460 225 c 0,28,29
EndSplineSet
Validated: 1
EndChar

StartChar: e
Encoding: 101 101 72
Width: 991
GlyphClass: 1
Flags: W
LayerCount: 2
Fore
SplineSet
974 801 m 0,0,1
 974 728 974 728 945 667.5 c 128,-1,2
 916 607 916 607 845 560.5 c 128,-1,3
 774 514 774 514 654 481.5 c 128,-1,4
 534 449 534 449 351 430 c 1,5,6
 353 321 353 321 398.5 271 c 128,-1,7
 444 221 444 221 534 221 c 0,8,9
 576 221 576 221 606.5 228.5 c 128,-1,10
 637 236 637 236 660 247 c 128,-1,11
 683 258 683 258 701.5 270.5 c 128,-1,12
 720 283 720 283 737 294 c 128,-1,13
 754 305 754 305 772.5 312 c 128,-1,14
 791 319 791 319 814 319 c 0,15,16
 829 319 829 319 843.5 311.5 c 128,-1,17
 858 304 858 304 869 292 c 2,18,-1
 951 197 l 1,19,20
 895 142 895 142 841 101 c 128,-1,21
 787 60 787 60 730.5 34 c 128,-1,22
 674 8 674 8 610 -4 c 128,-1,23
 546 -16 546 -16 470 -16 c 0,24,25
 376 -16 376 -16 297 16 c 128,-1,26
 218 48 218 48 161 107 c 128,-1,27
 104 166 104 166 73 249 c 128,-1,28
 42 332 42 332 42 433 c 0,29,30
 42 518 42 518 61 599 c 128,-1,31
 80 680 80 680 115.5 751 c 128,-1,32
 151 822 151 822 202 882 c 128,-1,33
 253 942 253 942 317 985 c 128,-1,34
 381 1028 381 1028 457.5 1052 c 128,-1,35
 534 1076 534 1076 620 1076 c 0,36,37
 705 1076 705 1076 771 1051.5 c 128,-1,38
 837 1027 837 1027 882 987.5 c 128,-1,39
 927 948 927 948 950.5 899 c 128,-1,40
 974 850 974 850 974 801 c 0,0,1
601 862 m 0,41,42
 522 862 522 862 462.5 799 c 128,-1,43
 403 736 403 736 374 627 c 1,44,45
 473 642 473 642 534.5 659 c 128,-1,46
 596 676 596 676 630 696 c 128,-1,47
 664 716 664 716 675.5 739 c 128,-1,48
 687 762 687 762 687 788 c 256,49,50
 687 815 687 815 666.5 838.5 c 128,-1,51
 646 862 646 862 601 862 c 0,41,42
EndSplineSet
Validated: 1
EndChar

StartChar: f
Encoding: 102 102 73
Width: 679
GlyphClass: 1
Flags: W
LayerCount: 2
Fore
SplineSet
496 843 m 1,0,-1
 400 51 l 1,1,-1
 345 -127 l 2,2,3
 327 -186 327 -186 289 -219 c 128,-1,4
 251 -252 251 -252 181 -252 c 2,5,-1
 52 -252 l 1,6,-1
 184 844 l 1,7,-1
 122 858 l 2,8,9
 95 864 95 864 77 880 c 128,-1,10
 59 896 59 896 59 924 c 0,11,12
 59 931 59 931 60 935 c 2,13,-1
 77 1060 l 1,14,-1
 211 1060 l 1,15,-1
 218 1120 l 2,16,17
 229 1211 229 1211 268 1285 c 128,-1,18
 307 1359 307 1359 367.5 1411 c 128,-1,19
 428 1463 428 1463 507.5 1492 c 128,-1,20
 587 1521 587 1521 679 1521 c 0,21,22
 715 1521 715 1521 745 1516 c 128,-1,23
 775 1511 775 1511 806 1501 c 1,24,-1
 777 1341 l 2,25,26
 772 1314 772 1314 748.5 1306 c 128,-1,27
 725 1298 725 1298 701 1298 c 0,28,29
 622 1298 622 1298 575.5 1256 c 128,-1,30
 529 1214 529 1214 517 1110 c 2,31,-1
 511 1060 l 1,32,-1
 726 1060 l 1,33,-1
 697 843 l 1,34,-1
 496 843 l 1,0,-1
EndSplineSet
Validated: 1
EndChar

StartChar: g
Encoding: 103 103 74
Width: 1032
GlyphClass: 1
Flags: W
LayerCount: 2
Fore
SplineSet
923 744 m 0,0,1
 923 678 923 678 905 632.5 c 128,-1,2
 887 587 887 587 865.5 546 c 128,-1,3
 844 505 844 505 826 462 c 128,-1,4
 808 419 808 419 808 360 c 0,5,6
 808 318 808 318 822 283 c 128,-1,7
 836 248 836 248 852 211 c 128,-1,8
 868 174 868 174 882 133 c 128,-1,9
 896 92 896 92 896 39 c 0,10,11
 896 -43 896 -43 860 -116 c 128,-1,12
 824 -189 824 -189 756.5 -244 c 128,-1,13
 689 -299 689 -299 590.5 -331.5 c 128,-1,14
 492 -364 492 -364 366 -364 c 0,15,16
 263 -364 263 -364 180.5 -342.5 c 128,-1,17
 98 -321 98 -321 41.5 -284 c 128,-1,18
 -15 -247 -15 -247 -46 -196 c 128,-1,19
 -77 -145 -77 -145 -77 -87 c 0,20,21
 -77 3 -77 3 -31.5 63 c 128,-1,22
 14 123 14 123 86 159.5 c 128,-1,23
 158 196 158 196 245 210.5 c 128,-1,24
 332 225 332 225 415 225 c 0,25,26
 462 225 462 225 504.5 221 c 128,-1,27
 547 217 547 217 583 210 c 1,28,29
 581 222 581 222 581 235 c 128,-1,30
 581 248 581 248 581 262 c 0,31,32
 581 316 581 316 608 386 c 1,33,34
 568 359 568 359 516.5 344 c 128,-1,35
 465 329 465 329 388 329 c 0,36,37
 328 329 328 329 272.5 349 c 128,-1,38
 217 369 217 369 174.5 410 c 128,-1,39
 132 451 132 451 106.5 512.5 c 128,-1,40
 81 574 81 574 81 659 c 0,41,42
 81 738 81 738 111 813.5 c 128,-1,43
 141 889 141 889 201 948 c 128,-1,44
 261 1007 261 1007 349.5 1042.5 c 128,-1,45
 438 1078 438 1078 556 1078 c 0,46,47
 616 1078 616 1078 672 1064.5 c 128,-1,48
 728 1051 728 1051 775 1023 c 1,49,-1
 1080 1023 l 1,50,-1
 1066 924 l 2,51,52
 1057 862 1057 862 1007 845 c 2,53,-1
 916 814 l 1,54,55
 923 780 923 780 923 744 c 0,0,1
480 513 m 0,56,57
 518 513 518 513 546 532.5 c 128,-1,58
 574 552 574 552 593 583 c 128,-1,59
 612 614 612 614 622 653 c 128,-1,60
 632 692 632 692 632 732 c 0,61,62
 632 799 632 799 604.5 835.5 c 128,-1,63
 577 872 577 872 519 872 c 0,64,65
 481 872 481 872 453 854.5 c 128,-1,66
 425 837 425 837 406.5 807 c 128,-1,67
 388 777 388 777 379 738 c 128,-1,68
 370 699 370 699 370 657 c 0,69,70
 370 589 370 589 397.5 551 c 128,-1,71
 425 513 425 513 480 513 c 0,56,57
607 14 m 0,72,73
 607 20 607 20 607 26.5 c 128,-1,74
 607 33 607 33 606 38 c 1,75,76
 554 46 554 46 510.5 50 c 128,-1,77
 467 54 467 54 431 54 c 0,78,79
 376 54 376 54 336.5 46 c 128,-1,80
 297 38 297 38 272 24 c 128,-1,81
 247 10 247 10 235.5 -9 c 128,-1,82
 224 -28 224 -28 224 -48 c 0,83,84
 224 -100 224 -100 262.5 -127 c 128,-1,85
 301 -154 301 -154 392 -154 c 0,86,87
 439 -154 439 -154 479 -141.5 c 128,-1,88
 519 -129 519 -129 547 -107 c 128,-1,89
 575 -85 575 -85 591 -54.5 c 128,-1,90
 607 -24 607 -24 607 14 c 0,72,73
EndSplineSet
Validated: 1
EndChar

StartChar: h
Encoding: 104 104 75
Width: 1134
GlyphClass: 1
Flags: W
LayerCount: 2
Fore
SplineSet
44 0 m 1,0,-1
 230 1533 l 1,1,-1
 548 1533 l 1,2,-1
 473 923 l 1,3,4
 546 1003 546 1003 627 1040.5 c 128,-1,5
 708 1078 708 1078 794 1078 c 0,6,7
 853 1078 853 1078 903.5 1056.5 c 128,-1,8
 954 1035 954 1035 990 993.5 c 128,-1,9
 1026 952 1026 952 1046.5 891.5 c 128,-1,10
 1067 831 1067 831 1067 753 c 0,11,12
 1067 735 1067 735 1065.5 715 c 128,-1,13
 1064 695 1064 695 1062 675 c 2,14,-1
 982 0 l 1,15,-1
 665 0 l 1,16,-1
 744 675 l 2,17,18
 746 691 746 691 747.5 705 c 128,-1,19
 749 719 749 719 749 731 c 0,20,21
 749 786 749 786 729.5 807.5 c 128,-1,22
 710 829 710 829 671 829 c 0,23,24
 639 829 639 829 604 810.5 c 128,-1,25
 569 792 569 792 537 757 c 128,-1,26
 505 722 505 722 477 673 c 128,-1,27
 449 624 449 624 430 563 c 1,28,-1
 361 0 l 1,29,-1
 44 0 l 1,0,-1
EndSplineSet
Validated: 1
EndChar

StartChar: i
Encoding: 105 105 76
Width: 552
GlyphClass: 1
Flags: W
LayerCount: 2
Fore
SplineSet
497 1062 m 1,0,-1
 370 0 l 1,1,-1
 56 0 l 1,2,-1
 183 1062 l 1,3,-1
 497 1062 l 1,0,-1
556 1353 m 0,4,5
 556 1315 556 1315 539.5 1281.5 c 128,-1,6
 523 1248 523 1248 496.5 1223 c 128,-1,7
 470 1198 470 1198 435.5 1183 c 128,-1,8
 401 1168 401 1168 366 1168 c 256,9,10
 330 1168 330 1168 297 1183 c 128,-1,11
 264 1198 264 1198 239 1223 c 128,-1,12
 214 1248 214 1248 198.5 1281.5 c 128,-1,13
 183 1315 183 1315 183 1353 c 256,14,15
 183 1391 183 1391 198.5 1424.5 c 128,-1,16
 214 1458 214 1458 240 1483.5 c 128,-1,17
 266 1509 266 1509 299 1524 c 128,-1,18
 332 1539 332 1539 368 1539 c 0,19,20
 405 1539 405 1539 438.5 1524.5 c 128,-1,21
 472 1510 472 1510 498 1484.5 c 128,-1,22
 524 1459 524 1459 540 1425.5 c 128,-1,23
 556 1392 556 1392 556 1353 c 0,4,5
EndSplineSet
Validated: 1
EndChar

StartChar: j
Encoding: 106 106 77
Width: 546
GlyphClass: 1
Flags: W
LayerCount: 2
Fore
SplineSet
499 1062 m 1,0,-1
 370 -2 l 2,1,2
 361 -77 361 -77 332.5 -143 c 128,-1,3
 304 -209 304 -209 255.5 -258.5 c 128,-1,4
 207 -308 207 -308 137.5 -337 c 128,-1,5
 68 -366 68 -366 -24 -366 c 0,6,7
 -69 -366 -69 -366 -100.5 -361 c 128,-1,8
 -132 -356 -132 -356 -165 -347 c 1,9,-1
 -134 -180 l 2,10,11
 -130 -158 -130 -158 -116 -148 c 128,-1,12
 -102 -138 -102 -138 -69 -138 c 256,13,14
 -36 -138 -36 -138 -14 -132 c 128,-1,15
 8 -126 8 -126 22.5 -110.5 c 128,-1,16
 37 -95 37 -95 45 -69 c 128,-1,17
 53 -43 53 -43 58 -2 c 2,18,-1
 187 1062 l 1,19,-1
 499 1062 l 1,0,-1
546 1353 m 0,20,21
 546 1315 546 1315 529.5 1281.5 c 128,-1,22
 513 1248 513 1248 486.5 1223 c 128,-1,23
 460 1198 460 1198 425.5 1183 c 128,-1,24
 391 1168 391 1168 355 1168 c 256,25,26
 319 1168 319 1168 286.5 1183 c 128,-1,27
 254 1198 254 1198 229 1223 c 128,-1,28
 204 1248 204 1248 188.5 1281.5 c 128,-1,29
 173 1315 173 1315 173 1353 c 256,30,31
 173 1391 173 1391 188.5 1424.5 c 128,-1,32
 204 1458 204 1458 230 1483.5 c 128,-1,33
 256 1509 256 1509 289 1524 c 128,-1,34
 322 1539 322 1539 357 1539 c 0,35,36
 394 1539 394 1539 428 1524.5 c 128,-1,37
 462 1510 462 1510 488 1484.5 c 128,-1,38
 514 1459 514 1459 530 1425.5 c 128,-1,39
 546 1392 546 1392 546 1353 c 0,20,21
EndSplineSet
Validated: 1
EndChar

StartChar: k
Encoding: 107 107 78
Width: 1099
GlyphClass: 1
Flags: W
LayerCount: 2
Fore
SplineSet
550 1533 m 1,0,-1
 444 674 l 1,1,-1
 466 674 l 2,2,3
 493 674 493 674 509 682 c 128,-1,4
 525 690 525 690 542 712 c 2,5,-1
 761 1011 l 2,6,7
 780 1038 780 1038 803.5 1050 c 128,-1,8
 827 1062 827 1062 861 1062 c 2,9,-1
 1146 1062 l 1,10,-1
 849 684 l 2,11,12
 829 657 829 657 804 636.5 c 128,-1,13
 779 616 779 616 753 601 c 1,14,15
 775 584 775 584 790.5 561 c 128,-1,16
 806 538 806 538 818 508 c 2,17,-1
 1031 0 l 1,18,-1
 755 0 l 2,19,20
 721 0 721 0 699 12 c 128,-1,21
 677 24 677 24 665 53 c 2,22,-1
 517 429 l 2,23,24
 506 455 506 455 493 462.5 c 128,-1,25
 480 470 480 470 452 470 c 2,26,-1
 419 470 l 1,27,-1
 361 0 l 1,28,-1
 48 0 l 1,29,-1
 237 1533 l 1,30,-1
 550 1533 l 1,0,-1
EndSplineSet
Validated: 1
EndChar

StartChar: l
Encoding: 108 108 79
Width: 532
GlyphClass: 1
Flags: W
LayerCount: 2
Fore
SplineSet
44 0 m 1,0,-1
 230 1533 l 1,1,-1
 544 1533 l 1,2,-1
 357 0 l 1,3,-1
 44 0 l 1,0,-1
EndSplineSet
Validated: 1
EndChar

StartChar: m
Encoding: 109 109 80
Width: 1632
GlyphClass: 1
Flags: W
LayerCount: 2
Fore
SplineSet
36 0 m 1,0,-1
 165 1062 l 1,1,-1
 329 1062 l 2,2,3
 378 1062 378 1062 405.5 1039 c 128,-1,4
 433 1016 433 1016 433 964 c 2,5,-1
 433 901 l 1,6,7
 501 991 501 991 575.5 1034.5 c 128,-1,8
 650 1078 650 1078 732 1078 c 0,9,10
 822 1078 822 1078 881.5 1020 c 128,-1,11
 941 962 941 962 957 850 c 1,12,13
 1028 968 1028 968 1112 1023 c 128,-1,14
 1196 1078 1196 1078 1302 1078 c 0,15,16
 1361 1078 1361 1078 1409.5 1057 c 128,-1,17
 1458 1036 1458 1036 1492.5 995 c 128,-1,18
 1527 954 1527 954 1546 895 c 128,-1,19
 1565 836 1565 836 1565 758 c 0,20,21
 1565 739 1565 739 1563.5 717.5 c 128,-1,22
 1562 696 1562 696 1560 675 c 2,23,-1
 1480 0 l 1,24,-1
 1166 0 l 1,25,-1
 1246 675 l 2,26,27
 1248 692 1248 692 1249 706.5 c 128,-1,28
 1250 721 1250 721 1250 734 c 0,29,30
 1250 786 1250 786 1234 806.5 c 128,-1,31
 1218 827 1218 827 1185 827 c 0,32,33
 1153 827 1153 827 1124 810.5 c 128,-1,34
 1095 794 1095 794 1068.5 761.5 c 128,-1,35
 1042 729 1042 729 1020.5 683.5 c 128,-1,36
 999 638 999 638 983 582 c 1,37,-1
 914 0 l 1,38,-1
 601 0 l 1,39,-1
 681 675 l 2,40,41
 683 692 683 692 684 706.5 c 128,-1,42
 685 721 685 721 685 734 c 0,43,44
 685 786 685 786 668.5 806.5 c 128,-1,45
 652 827 652 827 620 827 c 256,46,47
 588 827 588 827 558 810 c 128,-1,48
 528 793 528 793 502 760 c 128,-1,49
 476 727 476 727 454.5 680.5 c 128,-1,50
 433 634 433 634 417 577 c 1,51,-1
 347 0 l 1,52,-1
 36 0 l 1,0,-1
EndSplineSet
Validated: 1
EndChar

StartChar: n
Encoding: 110 110 81
Width: 1126
GlyphClass: 1
Flags: W
LayerCount: 2
Fore
SplineSet
656 0 m 1,0,-1
 736 675 l 2,1,2
 738 691 738 691 739 705 c 128,-1,3
 740 719 740 719 740 731 c 0,4,5
 740 785 740 785 721 806 c 128,-1,6
 702 827 702 827 665 827 c 0,7,8
 630 827 630 827 592 805.5 c 128,-1,9
 554 784 554 784 519.5 745.5 c 128,-1,10
 485 707 485 707 456.5 651 c 128,-1,11
 428 595 428 595 412 527 c 1,12,-1
 353 0 l 1,13,-1
 36 0 l 1,14,-1
 163 1062 l 1,15,-1
 327 1062 l 2,16,17
 376 1062 376 1062 403.5 1039 c 128,-1,18
 431 1016 431 1016 431 964 c 2,19,-1
 431 879 l 1,20,21
 508 981 508 981 599 1029.5 c 128,-1,22
 690 1078 690 1078 787 1078 c 0,23,24
 846 1078 846 1078 896 1056.5 c 128,-1,25
 946 1035 946 1035 982 993.5 c 128,-1,26
 1018 952 1018 952 1038.5 891.5 c 128,-1,27
 1059 831 1059 831 1059 753 c 0,28,29
 1059 735 1059 735 1057.5 715 c 128,-1,30
 1056 695 1056 695 1054 675 c 2,31,-1
 974 0 l 1,32,-1
 656 0 l 1,0,-1
EndSplineSet
Validated: 1
EndChar

StartChar: o
Encoding: 111 111 82
Width: 1058
GlyphClass: 1
Flags: W
LayerCount: 2
Fore
SplineSet
482 219 m 0,0,1
 535 219 535 219 577.5 251.5 c 128,-1,2
 620 284 620 284 649 339.5 c 128,-1,3
 678 395 678 395 694 469.5 c 128,-1,4
 710 544 710 544 710 628 c 0,5,6
 710 744 710 744 678.5 793.5 c 128,-1,7
 647 843 647 843 577 843 c 0,8,9
 524 843 524 843 481.5 810.5 c 128,-1,10
 439 778 439 778 410 723 c 128,-1,11
 381 668 381 668 365 593 c 128,-1,12
 349 518 349 518 349 434 c 0,13,14
 349 320 349 320 380 269.5 c 128,-1,15
 411 219 411 219 482 219 c 0,0,1
454 -16 m 0,16,17
 365 -16 365 -16 287.5 13.5 c 128,-1,18
 210 43 210 43 153 100 c 128,-1,19
 96 157 96 157 64 240.5 c 128,-1,20
 32 324 32 324 32 432 c 0,21,22
 32 573 32 573 78.5 691.5 c 128,-1,23
 125 810 125 810 204 896 c 128,-1,24
 283 982 283 982 386.5 1030 c 128,-1,25
 490 1078 490 1078 605 1078 c 0,26,27
 694 1078 694 1078 771 1048.5 c 128,-1,28
 848 1019 848 1019 905 962 c 128,-1,29
 962 905 962 905 994.5 821.5 c 128,-1,30
 1027 738 1027 738 1027 630 c 0,31,32
 1027 491 1027 491 980.5 372.5 c 128,-1,33
 934 254 934 254 855 167.5 c 128,-1,34
 776 81 776 81 672.5 32.5 c 128,-1,35
 569 -16 569 -16 454 -16 c 0,16,17
EndSplineSet
Validated: 1
EndChar

StartChar: p
Encoding: 112 112 83
Width: 1107
GlyphClass: 1
Flags: W
LayerCount: 2
Fore
SplineSet
-5 -337 m 1,0,-1
 165 1062 l 1,1,-1
 329 1062 l 2,2,3
 378 1062 378 1062 405.5 1039 c 128,-1,4
 433 1016 433 1016 433 964 c 2,5,-1
 433 867 l 1,6,7
 506 965 506 965 595 1021.5 c 128,-1,8
 684 1078 684 1078 785 1078 c 0,9,10
 851 1078 851 1078 905 1055 c 128,-1,11
 959 1032 959 1032 998.5 983 c 128,-1,12
 1038 934 1038 934 1060 857.5 c 128,-1,13
 1082 781 1082 781 1082 676 c 0,14,15
 1082 537 1082 537 1039.5 411.5 c 128,-1,16
 997 286 997 286 925.5 190.5 c 128,-1,17
 854 95 854 95 760.5 39.5 c 128,-1,18
 667 -16 667 -16 564 -16 c 0,19,20
 497 -16 497 -16 445 5.5 c 128,-1,21
 393 27 393 27 353 62 c 1,22,-1
 304 -337 l 1,23,-1
 -5 -337 l 1,0,-1
658 838 m 0,24,25
 625 838 625 838 589.5 812.5 c 128,-1,26
 554 787 554 787 520.5 743.5 c 128,-1,27
 487 700 487 700 458 642 c 128,-1,28
 429 584 429 584 410 517 c 1,29,-1
 378 261 l 1,30,31
 408 237 408 237 444 227 c 128,-1,32
 480 217 480 217 513 217 c 0,33,34
 568 217 568 217 615 254 c 128,-1,35
 662 291 662 291 695.5 351 c 128,-1,36
 729 411 729 411 748 487.5 c 128,-1,37
 767 564 767 564 767 644 c 0,38,39
 767 745 767 745 737 791.5 c 128,-1,40
 707 838 707 838 658 838 c 0,24,25
EndSplineSet
Validated: 1
EndChar

StartChar: q
Encoding: 113 113 84
Width: 1083
GlyphClass: 1
Flags: W
LayerCount: 2
Fore
SplineSet
876 -337 m 1,0,-1
 667 -337 l 2,1,2
 640 -337 640 -337 622.5 -328 c 128,-1,3
 605 -319 605 -319 594 -306 c 128,-1,4
 583 -293 583 -293 578 -276.5 c 128,-1,5
 573 -260 573 -260 573 -244 c 0,6,7
 573 -234 573 -234 574 -228 c 2,8,-1
 623 145 l 1,9,10
 561 68 561 68 486.5 26 c 128,-1,11
 412 -16 412 -16 325 -16 c 0,12,13
 268 -16 268 -16 214.5 7 c 128,-1,14
 161 30 161 30 120 76.5 c 128,-1,15
 79 123 79 123 54.5 195 c 128,-1,16
 30 267 30 267 30 366 c 0,17,18
 30 510 30 510 82.5 639.5 c 128,-1,19
 135 769 135 769 230 866.5 c 128,-1,20
 325 964 325 964 455 1021 c 128,-1,21
 585 1078 585 1078 740 1078 c 0,22,23
 816 1078 816 1078 894 1068 c 128,-1,24
 972 1058 972 1058 1048 1031 c 1,25,-1
 876 -337 l 1,0,-1
452 234 m 0,26,27
 486 234 486 234 518.5 260.5 c 128,-1,28
 551 287 551 287 580 331.5 c 128,-1,29
 609 376 609 376 633.5 436 c 128,-1,30
 658 496 658 496 676 563 c 1,31,-1
 714 860 l 1,32,-1
 695 860 l 2,33,34
 617 860 617 860 553 825.5 c 128,-1,35
 489 791 489 791 443 731 c 128,-1,36
 397 671 397 671 372 591.5 c 128,-1,37
 347 512 347 512 347 422 c 0,38,39
 347 371 347 371 355.5 335 c 128,-1,40
 364 299 364 299 377.5 277 c 128,-1,41
 391 255 391 255 410 244.5 c 128,-1,42
 429 234 429 234 452 234 c 0,26,27
EndSplineSet
Validated: 1
EndChar

StartChar: r
Encoding: 114 114 85
Width: 768
GlyphClass: 1
Flags: W
LayerCount: 2
Fore
SplineSet
36 0 m 1,0,-1
 165 1062 l 1,1,-1
 329 1062 l 2,2,3
 378 1062 378 1062 405.5 1039 c 128,-1,4
 433 1016 433 1016 433 964 c 2,5,-1
 433 843 l 1,6,7
 494 952 494 952 566 1010 c 128,-1,8
 638 1068 638 1068 715 1068 c 0,9,10
 758 1068 758 1068 800 1049 c 1,11,-1
 742 755 l 1,12,13
 692 777 692 777 647 777 c 0,14,15
 645 777 645 777 643 777 c 0,16,17
 564 777 564 777 503 706 c 128,-1,18
 442 635 442 635 404 477 c 1,19,-1
 347 0 l 1,20,-1
 36 0 l 1,0,-1
EndSplineSet
Validated: 1
EndChar

StartChar: s
Encoding: 115 115 86
Width: 808
GlyphClass: 1
Flags: W
LayerCount: 2
Fore
SplineSet
761 839 m 2,0,1
 747 821 747 821 734.5 812.5 c 128,-1,2
 722 804 722 804 701 804 c 256,3,4
 681 804 681 804 661 813 c 128,-1,5
 641 822 641 822 618 834 c 128,-1,6
 595 846 595 846 566 855 c 128,-1,7
 537 864 537 864 499 864 c 0,8,9
 428 864 428 864 398 837 c 128,-1,10
 368 810 368 810 368 767 c 0,11,12
 368 739 368 739 384.5 719.5 c 128,-1,13
 401 700 401 700 429 685 c 128,-1,14
 457 670 457 670 492 657 c 128,-1,15
 527 644 527 644 564 628 c 128,-1,16
 601 612 601 612 636.5 591.5 c 128,-1,17
 672 571 672 571 699.5 541.5 c 128,-1,18
 727 512 727 512 744 471 c 128,-1,19
 761 430 761 430 761 374 c 0,20,21
 761 294 761 294 729 223 c 128,-1,22
 697 152 697 152 638 99 c 128,-1,23
 579 46 579 46 494.5 15 c 128,-1,24
 410 -16 410 -16 304 -16 c 0,25,26
 254 -16 254 -16 205 -6 c 128,-1,27
 156 4 156 4 112.5 21.5 c 128,-1,28
 69 39 69 39 33 63 c 128,-1,29
 -3 87 -3 87 -26 115 c 1,30,-1
 52 231 l 2,31,32
 66 251 66 251 85 263 c 128,-1,33
 104 275 104 275 132 275 c 0,34,35
 158 275 158 275 176.5 263 c 128,-1,36
 195 251 195 251 216.5 236.5 c 128,-1,37
 238 222 238 222 267.5 210 c 128,-1,38
 297 198 297 198 345 198 c 0,39,40
 413 198 413 198 445.5 228 c 128,-1,41
 478 258 478 258 478 299 c 0,42,43
 478 331 478 331 461 351.5 c 128,-1,44
 444 372 444 372 416.5 386.5 c 128,-1,45
 389 401 389 401 354 413 c 128,-1,46
 319 425 319 425 282.5 439.5 c 128,-1,47
 246 454 246 454 211 473 c 128,-1,48
 176 492 176 492 148.5 520.5 c 128,-1,49
 121 549 121 549 104 591 c 128,-1,50
 87 633 87 633 87 692 c 0,51,52
 87 766 87 766 114 835.5 c 128,-1,53
 141 905 141 905 195 959 c 128,-1,54
 249 1013 249 1013 329 1045.5 c 128,-1,55
 409 1078 409 1078 515 1078 c 256,56,57
 621 1078 621 1078 704.5 1041.5 c 128,-1,58
 788 1005 788 1005 843 951 c 1,59,-1
 761 839 l 2,0,1
EndSplineSet
Validated: 1
EndChar

StartChar: t
Encoding: 116 116 87
Width: 747
GlyphClass: 1
Flags: W
LayerCount: 2
Fore
SplineSet
138 229 m 0,0,1
 138 236 138 236 138 246.5 c 128,-1,2
 138 257 138 257 139.5 276 c 128,-1,3
 141 295 141 295 144.5 326 c 128,-1,4
 148 357 148 357 155 409 c 2,5,-1
 209 843 l 1,6,-1
 124 843 l 2,7,8
 105 843 105 843 91.5 855.5 c 128,-1,9
 78 868 78 868 78 894 c 0,10,11
 78 895 78 895 80 912 c 128,-1,12
 82 929 82 929 84 948 c 128,-1,13
 86 967 86 967 88 983 c 128,-1,14
 90 999 90 999 90 1001 c 2,15,-1
 93 1029 l 1,16,-1
 254 1062 l 1,17,-1
 343 1321 l 2,18,19
 358 1370 358 1370 413 1370 c 2,20,-1
 585 1370 l 1,21,-1
 546 1060 l 1,22,-1
 783 1060 l 1,23,-1
 757 843 l 1,24,-1
 519 843 l 1,25,-1
 468 426 l 2,26,27
 463 384 463 384 460.5 360 c 128,-1,28
 458 336 458 336 456.5 323 c 128,-1,29
 455 310 455 310 454.5 305.5 c 128,-1,30
 454 301 454 301 454 300 c 0,31,32
 454 270 454 270 467.5 250 c 128,-1,33
 481 230 481 230 511 230 c 0,34,35
 527 230 527 230 538 234 c 128,-1,36
 549 238 549 238 557 242.5 c 128,-1,37
 565 247 565 247 572.5 250.5 c 128,-1,38
 580 254 580 254 589 254 c 0,39,40
 603 254 603 254 610 247.5 c 128,-1,41
 617 241 617 241 624 226 c 2,42,-1
 693 76 l 1,43,44
 630 30 630 30 557 7 c 128,-1,45
 484 -16 484 -16 411 -16 c 0,46,47
 350 -16 350 -16 300.5 0.5 c 128,-1,48
 251 17 251 17 215.5 49.5 c 128,-1,49
 180 82 180 82 160 127 c 128,-1,50
 140 172 140 172 138 229 c 0,0,1
EndSplineSet
Validated: 1
EndChar

StartChar: u
Encoding: 117 117 88
Width: 1124
GlyphClass: 1
Flags: W
LayerCount: 2
Fore
SplineSet
470 1062 m 1,0,-1
 390 388 l 2,1,2
 388 372 388 372 387 358 c 128,-1,3
 386 344 386 344 386 332 c 0,4,5
 386 278 386 278 405 256 c 128,-1,6
 424 234 424 234 462 234 c 0,7,8
 494 234 494 234 529 253 c 128,-1,9
 564 272 564 272 597 306.5 c 128,-1,10
 630 341 630 341 658 390 c 128,-1,11
 686 439 686 439 705 500 c 1,12,-1
 773 1062 l 1,13,-1
 1091 1062 l 1,14,-1
 962 0 l 1,15,-1
 800 0 l 2,16,17
 687 0 687 0 687 104 c 2,18,-1
 687 172 l 1,19,20
 610 76 610 76 522 30 c 128,-1,21
 434 -16 434 -16 339 -16 c 0,22,23
 280 -16 280 -16 230 5.5 c 128,-1,24
 180 27 180 27 144 68.5 c 128,-1,25
 108 110 108 110 88 170.5 c 128,-1,26
 68 231 68 231 68 310 c 0,27,28
 68 328 68 328 69.5 348 c 128,-1,29
 71 368 71 368 73 388 c 2,30,-1
 153 1062 l 1,31,-1
 470 1062 l 1,0,-1
EndSplineSet
Validated: 1
EndChar

StartChar: v
Encoding: 118 118 89
Width: 1056
GlyphClass: 1
Flags: W
LayerCount: 2
Fore
SplineSet
65 1062 m 1,0,-1
 327 1062 l 2,1,2
 360 1062 360 1062 379 1046 c 128,-1,3
 398 1030 398 1030 402 1007 c 2,4,-1
 472 530 l 2,5,6
 481 470 481 470 487.5 412 c 128,-1,7
 494 354 494 354 498 296 c 1,8,9
 516 353 516 353 538 410.5 c 128,-1,10
 560 468 560 468 585 530 c 2,11,-1
 771 1007 l 2,12,13
 780 1032 780 1032 803.5 1047 c 128,-1,14
 827 1062 827 1062 855 1062 c 2,15,-1
 1107 1062 l 1,16,-1
 591 0 l 1,17,-1
 323 0 l 1,18,-1
 65 1062 l 1,0,-1
EndSplineSet
Validated: 1
EndChar

StartChar: w
Encoding: 119 119 90
Width: 1546
GlyphClass: 1
Flags: W
LayerCount: 2
Fore
SplineSet
75 1062 m 1,0,-1
 318 1062 l 2,1,2
 349 1062 349 1062 370.5 1046.5 c 128,-1,3
 392 1031 392 1031 394 1007 c 2,4,-1
 425 530 l 2,5,6
 425 526 425 526 425.5 522.5 c 128,-1,7
 426 519 426 519 426 515 c 0,8,9
 429 466 429 466 431 420 c 128,-1,10
 433 374 433 374 434 328 c 1,11,12
 452 377 452 377 473.5 427 c 128,-1,13
 495 477 495 477 515 530 c 2,14,-1
 693 1008 l 2,15,16
 701 1032 701 1032 725.5 1047.5 c 128,-1,17
 750 1063 750 1063 777 1063 c 2,18,-1
 914 1063 l 2,19,20
 947 1063 947 1063 967 1047 c 128,-1,21
 987 1031 987 1031 990 1008 c 2,22,-1
 1052 530 l 2,23,24
 1059 478 1059 478 1065.5 428 c 128,-1,25
 1072 378 1072 378 1077 329 c 1,26,27
 1091 378 1091 378 1107.5 427 c 128,-1,28
 1124 476 1124 476 1142 530 c 2,29,-1
 1291 1007 l 2,30,31
 1299 1031 1299 1031 1322.5 1046.5 c 128,-1,32
 1346 1062 1346 1062 1373 1062 c 2,33,-1
 1607 1062 l 1,34,-1
 1175 0 l 1,35,-1
 927 0 l 2,36,37
 909 0 909 0 897 12.5 c 128,-1,38
 885 25 885 25 880 53 c 2,39,-1
 802 583 l 2,40,41
 799 606 799 606 796.5 627.5 c 128,-1,42
 794 649 794 649 792 672 c 1,43,44
 784 648 784 648 774.5 625.5 c 128,-1,45
 765 603 765 603 757 581 c 2,46,-1
 554 53 l 2,47,48
 532 0 532 0 486 0 c 2,49,-1
 249 0 l 1,50,-1
 75 1062 l 1,0,-1
EndSplineSet
Validated: 1
EndChar

StartChar: x
Encoding: 120 120 91
Width: 1095
GlyphClass: 1
Flags: W
LayerCount: 2
Fore
SplineSet
354 575 m 1,0,-1
 116 1062 l 1,1,-1
 407 1062 l 2,2,3
 438 1062 438 1062 451.5 1054 c 128,-1,4
 465 1046 465 1046 474 1025 c 2,5,-1
 592 752 l 1,6,7
 599 765 599 765 607 777.5 c 128,-1,8
 615 790 615 790 624 803 c 2,9,-1
 763 1019 l 2,10,11
 790 1062 790 1062 830 1062 c 2,12,-1
 1119 1062 l 1,13,-1
 751 577 l 1,14,-1
 1015 0 l 1,15,-1
 724 0 l 2,16,17
 693 0 693 0 675 16.5 c 128,-1,18
 657 33 657 33 648 55 c 2,19,-1
 516 380 l 1,20,21
 511 369 511 369 505 358.5 c 128,-1,22
 499 348 499 348 493 340 c 2,23,-1
 304 55 l 2,24,25
 290 33 290 33 270 16.5 c 128,-1,26
 250 0 250 0 220 0 c 2,27,-1
 -60 0 l 1,28,-1
 354 575 l 1,0,-1
EndSplineSet
Validated: 1
EndChar

StartChar: y
Encoding: 121 121 92
Width: 1056
GlyphClass: 1
Flags: W
LayerCount: 2
Fore
SplineSet
431 -276 m 2,0,1
 415 -308 415 -308 391 -322.5 c 128,-1,2
 367 -337 367 -337 333 -337 c 2,3,-1
 95 -337 l 1,4,-1
 338 95 l 1,5,-1
 75 1062 l 1,6,-1
 343 1062 l 2,7,8
 377 1062 377 1062 394 1045.5 c 128,-1,9
 411 1029 411 1029 417 1007 c 2,10,-1
 509 549 l 2,11,12
 515 519 515 519 520 490 c 128,-1,13
 525 461 525 461 528 431 c 1,14,15
 540 461 540 461 554.5 491 c 128,-1,16
 569 521 569 521 583 551 c 2,17,-1
 779 1007 l 2,18,19
 791 1031 791 1031 815 1046.5 c 128,-1,20
 839 1062 839 1062 863 1062 c 2,21,-1
 1119 1062 l 1,22,-1
 431 -276 l 2,0,1
EndSplineSet
Validated: 1
EndChar

StartChar: z
Encoding: 122 122 93
Width: 913
GlyphClass: 1
Flags: W
LayerCount: 2
Fore
SplineSet
910 935 m 2,0,1
 906 902 906 902 891.5 872.5 c 128,-1,2
 877 843 877 843 859 821 c 2,3,-1
 400 236 l 1,4,-1
 818 236 l 1,5,-1
 790 0 l 1,6,-1
 -5 0 l 1,7,-1
 11 129 l 2,8,9
 13 148 13 148 27.5 177.5 c 128,-1,10
 42 207 42 207 62 233 c 2,11,-1
 525 826 l 1,12,-1
 122 826 l 1,13,-1
 151 1062 l 1,14,-1
 927 1062 l 1,15,-1
 910 935 l 2,0,1
EndSplineSet
Validated: 1
EndChar

StartChar: braceleft
Encoding: 123 123 94
Width: 565
GlyphClass: 1
Flags: W
LayerCount: 2
Fore
SplineSet
98 442 m 0,0,1
 98 488 98 488 79 517.5 c 128,-1,2
 60 547 60 547 14 547 c 1,3,-1
 37 718 l 1,4,5
 75 718 75 718 98.5 734.5 c 128,-1,6
 122 751 122 751 135 783 c 128,-1,7
 148 815 148 815 153 864 c 128,-1,8
 158 913 158 913 158 979 c 0,9,10
 158 990 158 990 157.5 1007.5 c 128,-1,11
 157 1025 157 1025 157 1044 c 128,-1,12
 157 1063 157 1063 156.5 1080.5 c 128,-1,13
 156 1098 156 1098 156 1110 c 0,14,15
 156 1227 156 1227 181.5 1316.5 c 128,-1,16
 207 1406 207 1406 260.5 1467.5 c 128,-1,17
 314 1529 314 1529 398 1560.5 c 128,-1,18
 482 1592 482 1592 598 1592 c 2,19,-1
 645 1592 l 1,20,-1
 629 1459 l 2,21,22
 627 1444 627 1444 619 1433.5 c 128,-1,23
 611 1423 611 1423 601 1416 c 128,-1,24
 591 1409 591 1409 580 1406 c 128,-1,25
 569 1403 569 1403 561 1403 c 0,26,27
 503 1403 503 1403 472 1361 c 128,-1,28
 441 1319 441 1319 432 1245 c 0,29,30
 425 1189 425 1189 423 1139.5 c 128,-1,31
 421 1090 421 1090 419.5 1043 c 128,-1,32
 418 996 418 996 416.5 951.5 c 128,-1,33
 415 907 415 907 410 861 c 0,34,35
 405 822 405 822 390.5 786 c 128,-1,36
 376 750 376 750 353 719 c 128,-1,37
 330 688 330 688 298.5 665.5 c 128,-1,38
 267 643 267 643 227 631 c 1,39,40
 292 608 292 608 323 555 c 128,-1,41
 354 502 354 502 354 437 c 0,42,43
 354 379 354 379 342.5 323 c 128,-1,44
 331 267 331 267 316.5 212 c 128,-1,45
 302 157 302 157 290.5 100.5 c 128,-1,46
 279 44 279 44 279 -16 c 0,47,48
 279 -71 279 -71 301.5 -104 c 128,-1,49
 324 -137 324 -137 373 -137 c 0,50,51
 389 -137 389 -137 407.5 -150 c 128,-1,52
 426 -163 426 -163 426 -189 c 0,53,54
 426 -196 426 -196 424 -216 c 128,-1,55
 422 -236 422 -236 419 -258 c 128,-1,56
 416 -280 416 -280 413.5 -299.5 c 128,-1,57
 411 -319 411 -319 410 -328 c 1,58,-1
 360 -328 l 2,59,60
 269 -328 269 -328 203 -306 c 128,-1,61
 137 -284 137 -284 94.5 -243.5 c 128,-1,62
 52 -203 52 -203 32 -146.5 c 128,-1,63
 12 -90 12 -90 12 -23 c 0,64,65
 12 43 12 43 25.5 103 c 128,-1,66
 39 163 39 163 55.5 219 c 128,-1,67
 72 275 72 275 85 330.5 c 128,-1,68
 98 386 98 386 98 442 c 0,0,1
EndSplineSet
Validated: 1
EndChar

StartChar: bar
Encoding: 124 124 95
Width: 614
GlyphClass: 1
Flags: W
LayerCount: 2
Fore
SplineSet
123 1594 m 1,0,-1
 369 1594 l 1,1,-1
 369 -337 l 1,2,-1
 123 -337 l 1,3,-1
 123 1594 l 1,0,-1
EndSplineSet
Validated: 1
EndChar

StartChar: braceright
Encoding: 125 125 96
Width: 565
GlyphClass: 1
Flags: W
LayerCount: 2
Fore
SplineSet
440 155 m 2,0,1
 440 38 440 38 414.5 -51.5 c 128,-1,2
 389 -141 389 -141 335.5 -202.5 c 128,-1,3
 282 -264 282 -264 198.5 -296 c 128,-1,4
 115 -328 115 -328 0 -328 c 2,5,-1
 -49 -328 l 1,6,-1
 -31 -197 l 2,7,8
 -26 -166 -26 -166 -2 -151.5 c 128,-1,9
 22 -137 22 -137 39 -137 c 0,10,11
 96 -136 96 -136 126.5 -94.5 c 128,-1,12
 157 -53 157 -53 166 19 c 0,13,14
 173 74 173 74 175.5 124 c 128,-1,15
 178 174 178 174 179 220.5 c 128,-1,16
 180 267 180 267 181.5 311.5 c 128,-1,17
 183 356 183 356 188 401 c 0,18,19
 192 440 192 440 206.5 476.5 c 128,-1,20
 221 513 221 513 244 543.5 c 128,-1,21
 267 574 267 574 298.5 597 c 128,-1,22
 330 620 330 620 369 632 c 1,23,24
 304 655 304 655 273 708.5 c 128,-1,25
 242 762 242 762 242 828 c 0,26,27
 242 885 242 885 254 940.5 c 128,-1,28
 266 996 266 996 280.5 1051.5 c 128,-1,29
 295 1107 295 1107 307 1164 c 128,-1,30
 319 1221 319 1221 319 1281 c 0,31,32
 319 1335 319 1335 297 1368.5 c 128,-1,33
 275 1402 275 1402 227 1403 c 0,34,35
 219 1403 219 1403 209.5 1405.5 c 128,-1,36
 200 1408 200 1408 191.5 1414 c 128,-1,37
 183 1420 183 1420 177.5 1429.5 c 128,-1,38
 172 1439 172 1439 172 1452 c 0,39,40
 172 1453 172 1453 174 1469.5 c 128,-1,41
 176 1486 176 1486 178 1506 c 128,-1,42
 180 1526 180 1526 182 1543 c 128,-1,43
 184 1560 184 1560 184 1561 c 2,44,-1
 188 1592 l 1,45,-1
 238 1592 l 2,46,47
 328 1592 328 1592 393.5 1570 c 128,-1,48
 459 1548 459 1548 501.5 1507.5 c 128,-1,49
 544 1467 544 1467 564 1410.5 c 128,-1,50
 584 1354 584 1354 584 1285 c 0,51,52
 584 1220 584 1220 570.5 1160.5 c 128,-1,53
 557 1101 557 1101 541.5 1044.5 c 128,-1,54
 526 988 526 988 513 933 c 128,-1,55
 500 878 500 878 500 822 c 0,56,57
 500 776 500 776 518 747 c 128,-1,58
 536 718 536 718 582 718 c 1,59,-1
 561 547 l 1,60,61
 523 547 523 547 499.5 531 c 128,-1,62
 476 515 476 515 463 482.5 c 128,-1,63
 450 450 450 450 445 400.5 c 128,-1,64
 440 351 440 351 440 285 c 2,65,-1
 440 155 l 2,0,1
EndSplineSet
Validated: 1
EndChar

StartChar: asciitilde
Encoding: 126 126 97
Width: 1187
GlyphClass: 1
Flags: W
LayerCount: 2
Fore
SplineSet
686 693 m 0,0,1
 735 693 735 693 761.5 725 c 128,-1,2
 788 757 788 757 788 818 c 1,3,-1
 1044 818 l 1,4,5
 1044 731 1044 731 1021 661.5 c 128,-1,6
 998 592 998 592 955 543.5 c 128,-1,7
 912 495 912 495 849 468.5 c 128,-1,8
 786 442 786 442 707 442 c 0,9,10
 653 442 653 442 605 454 c 128,-1,11
 557 466 557 466 516 481 c 128,-1,12
 475 496 475 496 441 507.5 c 128,-1,13
 407 519 407 519 379 519 c 0,14,15
 330 519 330 519 303 487.5 c 128,-1,16
 276 456 276 456 276 394 c 1,17,-1
 20 394 l 1,18,19
 20 481 20 481 43.5 551 c 128,-1,20
 67 621 67 621 110 669.5 c 128,-1,21
 153 718 153 718 216 744 c 128,-1,22
 279 770 279 770 358 770 c 0,23,24
 412 770 412 770 460 758 c 128,-1,25
 508 746 508 746 549 731.5 c 128,-1,26
 590 717 590 717 624 705 c 128,-1,27
 658 693 658 693 686 693 c 0,0,1
EndSplineSet
Validated: 1
EndChar

StartChar: exclamdown
Encoding: 161 161 99
Width: 714
GlyphClass: 1
Flags: W
LayerCount: 2
Fore
SplineSet
113 -339 m 1,0,-1
 180 203 l 2,1,2
 191 297 191 297 214 389.5 c 128,-1,3
 237 482 237 482 266 579 c 1,4,-1
 475 579 l 1,5,6
 477 540 477 540 478.5 502.5 c 128,-1,7
 480 465 480 465 480 427 c 0,8,9
 480 371 480 371 477 315 c 128,-1,10
 474 259 474 259 467 203 c 2,11,-1
 401 -339 l 1,12,-1
 113 -339 l 1,0,-1
227 903 m 256,13,14
 227 940 227 940 241 972 c 128,-1,15
 255 1004 255 1004 279 1027.5 c 128,-1,16
 303 1051 303 1051 336 1064.5 c 128,-1,17
 369 1078 369 1078 408 1078 c 0,18,19
 446 1078 446 1078 478.5 1064.5 c 128,-1,20
 511 1051 511 1051 535.5 1027.5 c 128,-1,21
 560 1004 560 1004 574 972 c 128,-1,22
 588 940 588 940 588 903 c 256,23,24
 588 866 588 866 574 834 c 128,-1,25
 560 802 560 802 535.5 778.5 c 128,-1,26
 511 755 511 755 478 741.5 c 128,-1,27
 445 728 445 728 408 728 c 0,28,29
 369 728 369 728 336 741.5 c 128,-1,30
 303 755 303 755 279 778.5 c 128,-1,31
 255 802 255 802 241 834 c 128,-1,32
 227 866 227 866 227 903 c 256,13,14
EndSplineSet
Validated: 1
EndChar

StartChar: cent
Encoding: 162 162 100
Width: 1187
GlyphClass: 1
Flags: W
LayerCount: 2
Fore
SplineSet
472 -7 m 1,0,1
 393 8 393 8 327.5 46.5 c 128,-1,2
 262 85 262 85 214 144 c 128,-1,3
 166 203 166 203 139.5 281.5 c 128,-1,4
 113 360 113 360 113 457 c 0,5,6
 113 583 113 583 153.5 692.5 c 128,-1,7
 194 802 194 802 270.5 884.5 c 128,-1,8
 347 967 347 967 458 1017 c 128,-1,9
 569 1067 569 1067 711 1073 c 1,10,-1
 743 1221 l 2,11,12
 746 1234 746 1234 754.5 1247 c 128,-1,13
 763 1260 763 1260 774.5 1270 c 128,-1,14
 786 1280 786 1280 801 1286.5 c 128,-1,15
 816 1293 816 1293 834 1293 c 2,16,-1
 946 1293 l 1,17,-1
 894 1059 l 1,18,19
 971 1043 971 1043 1031.5 1008.5 c 128,-1,20
 1092 974 1092 974 1141 922 c 1,21,-1
 1049 817 l 2,22,23
 1035 800 1035 800 1021 792 c 128,-1,24
 1007 784 1007 784 983 784 c 0,25,26
 968 784 968 784 954 789.5 c 128,-1,27
 940 795 940 795 923.5 803 c 128,-1,28
 907 811 907 811 888 819.5 c 128,-1,29
 869 828 869 828 845 837 c 1,30,-1
 707 209 l 1,31,32
 754 215 754 215 786.5 228.5 c 128,-1,33
 819 242 819 242 844 255.5 c 128,-1,34
 869 269 869 269 889.5 280 c 128,-1,35
 910 291 910 291 934 291 c 0,36,37
 973 291 973 291 987 267 c 2,38,-1
 1059 162 l 1,39,40
 1014 118 1014 118 964.5 86.5 c 128,-1,41
 915 55 915 55 864 34.5 c 128,-1,42
 813 14 813 14 761 3 c 128,-1,43
 709 -8 709 -8 657 -12 c 1,44,-1
 629 -144 l 2,45,46
 623 -173 623 -173 597.5 -195.5 c 128,-1,47
 572 -218 572 -218 539 -218 c 2,48,-1
 426 -218 l 1,49,-1
 472 -7 l 1,0,1
414 471 m 0,50,51
 414 384 414 384 442 323.5 c 128,-1,52
 470 263 470 263 525 233 c 1,53,-1
 660 847 l 1,54,55
 595 836 595 836 548.5 805 c 128,-1,56
 502 774 502 774 472 725.5 c 128,-1,57
 442 677 442 677 428 612.5 c 128,-1,58
 414 548 414 548 414 471 c 0,50,51
EndSplineSet
Validated: 1
EndChar

StartChar: sterling
Encoding: 163 163 101
Width: 1187
GlyphClass: 1
Flags: W
LayerCount: 2
Fore
SplineSet
942 652 m 16,0,1
 934 638 934 638 922 628 c 128,-1,2
 910 618 910 618 894 611.5 c 128,-1,3
 878 605 878 605 859 605 c 2,4,-1
 509 605 l 1,5,-1
 489 436 l 2,6,7
 481 371 481 371 459.5 320.5 c 128,-1,8
 438 270 438 270 399 226 c 1,9,10
 449 237 449 237 499 244 c 128,-1,11
 549 251 549 251 598 251 c 2,12,-1
 1128 251 l 1,13,-1
 1112 128 l 2,14,15
 1109 105 1109 105 1096.5 82.5 c 128,-1,16
 1084 60 1084 60 1065.5 42 c 128,-1,17
 1047 24 1047 24 1021 12 c 128,-1,18
 995 0 995 0 967 0 c 2,19,-1
 -12 0 l 1,20,-1
 12 184 l 1,21,22
 82 198 82 198 118.5 238 c 128,-1,23
 155 278 155 278 164 354 c 2,24,-1
 195 605 l 1,25,-1
 45 605 l 1,26,-1
 60 725 l 2,27,28
 62 738 62 738 70 751 c 128,-1,29
 78 764 78 764 90 774 c 128,-1,30
 102 784 102 784 118 791 c 128,-1,31
 134 798 134 798 153 798 c 2,32,-1
 218 798 l 1,33,-1
 246 1024 l 2,34,35
 258 1121 258 1121 301.5 1208.5 c 128,-1,36
 345 1296 345 1296 417 1362 c 128,-1,37
 489 1428 489 1428 588.5 1467 c 128,-1,38
 688 1506 688 1506 811 1506 c 0,39,40
 901 1506 901 1506 968.5 1485.5 c 128,-1,41
 1036 1465 1036 1465 1086.5 1429.5 c 128,-1,42
 1137 1394 1137 1394 1170.5 1343 c 128,-1,43
 1204 1292 1204 1292 1227 1233 c 1,44,-1
 1094 1154 l 2,45,46
 1077 1143 1077 1143 1058 1139.5 c 128,-1,47
 1039 1136 1039 1136 1022 1136 c 0,48,49
 975 1136 975 1136 944 1172 c 0,50,51
 926 1195 926 1195 910 1211.5 c 128,-1,52
 894 1228 894 1228 876 1238 c 128,-1,53
 858 1248 858 1248 835 1252.5 c 128,-1,54
 812 1257 812 1257 780 1257 c 0,55,56
 692 1257 692 1257 632 1197.5 c 128,-1,57
 572 1138 572 1138 559 1026 c 2,58,-1
 531 798 l 1,59,-1
 966 798 l 1,60,-1
 951 678 l 9,61,62
 950 664 950 664 942 652 c 16,0,1
EndSplineSet
Validated: 1
EndChar

StartChar: currency
Encoding: 164 164 102
Width: 1187
GlyphClass: 1
Flags: W
LayerCount: 2
Fore
SplineSet
244 690 m 0,0,1
 244 740 244 740 255.5 786.5 c 128,-1,2
 267 833 267 833 289 873 c 1,3,-1
 131 1030 l 1,4,-1
 291 1182 l 1,5,-1
 444 1030 l 1,6,7
 486 1053 486 1053 533.5 1065 c 128,-1,8
 581 1077 581 1077 633 1077 c 0,9,10
 682 1077 682 1077 727.5 1065.5 c 128,-1,11
 773 1054 773 1054 814 1032 c 1,12,-1
 971 1188 l 1,13,-1
 1128 1034 l 1,14,-1
 972 880 l 1,15,16
 996 838 996 838 1009 790 c 128,-1,17
 1022 742 1022 742 1022 690 c 0,18,19
 1022 640 1022 640 1010 594 c 128,-1,20
 998 548 998 548 976 507 c 1,21,-1
 1135 351 l 1,22,-1
 975 199 l 1,23,-1
 820 350 l 1,24,25
 778 327 778 327 731 315 c 128,-1,26
 684 303 684 303 633 303 c 0,27,28
 584 303 584 303 538.5 314.5 c 128,-1,29
 493 326 493 326 452 346 c 1,30,-1
 295 193 l 1,31,-1
 137 346 l 1,32,-1
 293 500 l 1,33,34
 269 542 269 542 256.5 590 c 128,-1,35
 244 638 244 638 244 690 c 0,0,1
477 690 m 0,36,37
 477 657 477 657 489.5 627.5 c 128,-1,38
 502 598 502 598 523 575.5 c 128,-1,39
 544 553 544 553 572 540 c 128,-1,40
 600 527 600 527 633 527 c 256,41,42
 666 527 666 527 694.5 540 c 128,-1,43
 723 553 723 553 744.5 575.5 c 128,-1,44
 766 598 766 598 778.5 627.5 c 128,-1,45
 791 657 791 657 791 690 c 0,46,47
 791 725 791 725 778.5 754.5 c 128,-1,48
 766 784 766 784 744.5 806.5 c 128,-1,49
 723 829 723 829 694.5 842 c 128,-1,50
 666 855 666 855 633 855 c 256,51,52
 600 855 600 855 572 842 c 128,-1,53
 544 829 544 829 523 806.5 c 128,-1,54
 502 784 502 784 489.5 754.5 c 128,-1,55
 477 725 477 725 477 690 c 0,36,37
EndSplineSet
Validated: 1
EndChar

StartChar: yen
Encoding: 165 165 103
Width: 1187
GlyphClass: 1
Flags: W
LayerCount: 2
Fore
SplineSet
145 652 m 1,0,-1
 404 652 l 1,1,-1
 106 1490 l 1,2,-1
 362 1490 l 2,3,4
 404 1490 404 1490 429 1470 c 128,-1,5
 454 1450 454 1450 463 1417 c 2,6,-1
 590 968 l 2,7,8
 604 916 604 916 614.5 871.5 c 128,-1,9
 625 827 625 827 630 784 c 1,10,11
 644 827 644 827 665 871 c 128,-1,12
 686 915 686 915 713 968 c 2,13,-1
 944 1417 l 2,14,15
 958 1446 958 1446 988.5 1468 c 128,-1,16
 1019 1490 1019 1490 1061 1490 c 2,17,-1
 1319 1490 l 1,18,-1
 812 652 l 1,19,-1
 1073 652 l 1,20,-1
 1053 488 l 1,21,-1
 742 488 l 1,22,-1
 731 398 l 1,23,-1
 1040 398 l 1,24,-1
 1020 236 l 1,25,-1
 711 236 l 1,26,-1
 682 0 l 1,27,-1
 377 0 l 1,28,-1
 406 236 l 1,29,-1
 92 236 l 1,30,-1
 115 398 l 1,31,-1
 425 398 l 1,32,-1
 436 488 l 1,33,-1
 125 488 l 1,34,-1
 145 652 l 1,0,-1
EndSplineSet
Validated: 1
EndChar

StartChar: brokenbar
Encoding: 166 166 104
Width: 614
GlyphClass: 1
Flags: W
LayerCount: 2
Fore
SplineSet
123 1594 m 1,0,-1
 369 1594 l 1,1,-1
 369 756 l 1,2,-1
 123 756 l 1,3,-1
 123 1594 l 1,0,-1
123 502 m 1,4,-1
 369 502 l 1,5,-1
 369 -337 l 1,6,-1
 123 -337 l 1,7,-1
 123 502 l 1,4,-1
EndSplineSet
Validated: 1
EndChar

StartChar: section
Encoding: 167 167 105
Width: 956
GlyphClass: 1
Flags: W
LayerCount: 2
Fore
SplineSet
881 1262 m 2,0,1
 867 1243 867 1243 852.5 1234.5 c 128,-1,2
 838 1226 838 1226 817 1226 c 0,3,4
 795 1226 795 1226 775.5 1235.5 c 128,-1,5
 756 1245 756 1245 733 1257.5 c 128,-1,6
 710 1270 710 1270 682 1279.5 c 128,-1,7
 654 1289 654 1289 616 1289 c 0,8,9
 580 1289 580 1289 554 1280.5 c 128,-1,10
 528 1272 528 1272 511.5 1256.5 c 128,-1,11
 495 1241 495 1241 486 1220.5 c 128,-1,12
 477 1200 477 1200 477 1178 c 0,13,14
 477 1143 477 1143 510.5 1117.5 c 128,-1,15
 544 1092 544 1092 594 1066.5 c 128,-1,16
 644 1041 644 1041 702.5 1013.5 c 128,-1,17
 761 986 761 986 811 948.5 c 128,-1,18
 861 911 861 911 894.5 860 c 128,-1,19
 928 809 928 809 928 736 c 0,20,21
 928 646 928 646 885 570 c 128,-1,22
 842 494 842 494 744 445 c 1,23,24
 775 412 775 412 794 370 c 128,-1,25
 813 328 813 328 813 272 c 0,26,27
 813 188 813 188 782.5 116.5 c 128,-1,28
 752 45 752 45 693 -7.5 c 128,-1,29
 634 -60 634 -60 548 -90 c 128,-1,30
 462 -120 462 -120 350 -120 c 0,31,32
 300 -120 300 -120 250.5 -110 c 128,-1,33
 201 -100 201 -100 156.5 -83 c 128,-1,34
 112 -66 112 -66 74.5 -42 c 128,-1,35
 37 -18 37 -18 12 9 c 1,36,-1
 98 123 l 2,37,38
 112 143 112 143 131.5 153.5 c 128,-1,39
 151 164 151 164 180 164 c 0,40,41
 206 164 206 164 225 151.5 c 128,-1,42
 244 139 244 139 266.5 125 c 128,-1,43
 289 111 289 111 320.5 98.5 c 128,-1,44
 352 86 352 86 403 86 c 0,45,46
 466 86 466 86 502.5 116 c 128,-1,47
 539 146 539 146 539 202 c 0,48,49
 539 247 539 247 505.5 276.5 c 128,-1,50
 472 306 472 306 422 329.5 c 128,-1,51
 372 353 372 353 313.5 377 c 128,-1,52
 255 401 255 401 205 436.5 c 128,-1,53
 155 472 155 472 121.5 524.5 c 128,-1,54
 88 577 88 577 88 656 c 0,55,56
 88 749 88 749 134 822.5 c 128,-1,57
 180 896 180 896 273 939 c 1,58,59
 241 975 241 975 222 1021 c 128,-1,60
 203 1067 203 1067 203 1130 c 0,61,62
 203 1205 203 1205 230.5 1272.5 c 128,-1,63
 258 1340 258 1340 313.5 1392 c 128,-1,64
 369 1444 369 1444 450 1474 c 128,-1,65
 531 1504 531 1504 639 1504 c 0,66,67
 692 1504 692 1504 741 1494 c 128,-1,68
 790 1484 790 1484 831 1466 c 128,-1,69
 872 1448 872 1448 905.5 1423 c 128,-1,70
 939 1398 939 1398 963 1369 c 1,71,-1
 881 1262 l 2,0,1
367 731 m 256,72,73
 367 698 367 698 387 673 c 128,-1,74
 407 648 407 648 439.5 627 c 128,-1,75
 472 606 472 606 513 586.5 c 128,-1,76
 554 567 554 567 597 546 c 1,77,78
 627 566 627 566 639 593 c 128,-1,79
 651 620 651 620 651 650 c 0,80,81
 651 684 651 684 631.5 709 c 128,-1,82
 612 734 612 734 580 754.5 c 128,-1,83
 548 775 548 775 507 794 c 128,-1,84
 466 813 466 813 423 835 c 1,85,86
 392 815 392 815 379.5 789.5 c 128,-1,87
 367 764 367 764 367 731 c 256,72,73
EndSplineSet
Validated: 1
EndChar

StartChar: dieresis
Encoding: 168 168 106
Width: 626
GlyphClass: 1
Flags: W
LayerCount: 2
Fore
SplineSet
385 1349 m 0,0,1
 385 1316 385 1316 371.5 1287 c 128,-1,2
 358 1258 358 1258 335 1237.5 c 128,-1,3
 312 1217 312 1217 282 1204.5 c 128,-1,4
 252 1192 252 1192 217 1192 c 0,5,6
 184 1192 184 1192 155 1204.5 c 128,-1,7
 126 1217 126 1217 104 1237.5 c 128,-1,8
 82 1258 82 1258 68.5 1287 c 128,-1,9
 55 1316 55 1316 55 1349 c 0,10,11
 55 1383 55 1383 68.5 1412.5 c 128,-1,12
 82 1442 82 1442 104 1464 c 128,-1,13
 126 1486 126 1486 155 1498.5 c 128,-1,14
 184 1511 184 1511 217 1511 c 0,15,16
 252 1511 252 1511 282 1498.5 c 128,-1,17
 312 1486 312 1486 335 1464 c 128,-1,18
 358 1442 358 1442 371.5 1412.5 c 128,-1,19
 385 1383 385 1383 385 1349 c 0,0,1
780 1349 m 0,20,21
 780 1316 780 1316 767.5 1287 c 128,-1,22
 755 1258 755 1258 732.5 1237.5 c 128,-1,23
 710 1217 710 1217 679.5 1204.5 c 128,-1,24
 649 1192 649 1192 614 1192 c 0,25,26
 580 1192 580 1192 550.5 1204.5 c 128,-1,27
 521 1217 521 1217 498.5 1237.5 c 128,-1,28
 476 1258 476 1258 463.5 1287 c 128,-1,29
 451 1316 451 1316 451 1349 c 0,30,31
 451 1383 451 1383 463.5 1412.5 c 128,-1,32
 476 1442 476 1442 498.5 1464 c 128,-1,33
 521 1486 521 1486 551 1498.5 c 128,-1,34
 581 1511 581 1511 614 1511 c 0,35,36
 649 1511 649 1511 679.5 1498.5 c 128,-1,37
 710 1486 710 1486 732.5 1464 c 128,-1,38
 755 1442 755 1442 767.5 1412.5 c 128,-1,39
 780 1383 780 1383 780 1349 c 0,20,21
EndSplineSet
Validated: 1
Substitution2: "'case' Case-Sensitive Forms in Latin lookup 0 subtable" dieresis.case
EndChar

StartChar: copyright
Encoding: 169 169 107
Width: 1607
GlyphClass: 1
Flags: W
LayerCount: 2
Fore
SplineSet
1038 555 m 0,0,1
 1050 555 1050 555 1061.5 549 c 128,-1,2
 1073 543 1073 543 1081 534 c 2,3,-1
 1186 426 l 1,4,5
 1131 349 1131 349 1041 309.5 c 128,-1,6
 951 270 951 270 834 270 c 0,7,8
 731 270 731 270 647 307.5 c 128,-1,9
 563 345 563 345 504.5 410 c 128,-1,10
 446 475 446 475 414.5 562 c 128,-1,11
 383 649 383 649 383 750 c 0,12,13
 383 854 383 854 420 941.5 c 128,-1,14
 457 1029 457 1029 521 1093 c 128,-1,15
 585 1157 585 1157 671 1192.5 c 128,-1,16
 757 1228 757 1228 856 1228 c 0,17,18
 974 1228 974 1228 1059 1187 c 128,-1,19
 1144 1146 1144 1146 1196 1084 c 1,20,-1
 1112 973 l 2,21,22
 1105 964 1105 964 1092 953.5 c 128,-1,23
 1079 943 1079 943 1059 943 c 256,24,25
 1039 943 1039 943 1024 952.5 c 128,-1,26
 1009 962 1009 962 990.5 973 c 128,-1,27
 972 984 972 984 945 993 c 128,-1,28
 918 1002 918 1002 872 1002 c 0,29,30
 769 1002 769 1002 716.5 934 c 128,-1,31
 664 866 664 866 664 750 c 0,32,33
 664 689 664 689 677.5 641.5 c 128,-1,34
 691 594 691 594 715.5 562 c 128,-1,35
 740 530 740 530 774.5 514 c 128,-1,36
 809 498 809 498 850 498 c 0,37,38
 898 498 898 498 926 506.5 c 128,-1,39
 954 515 954 515 972.5 525.5 c 128,-1,40
 991 536 991 536 1004.5 545 c 128,-1,41
 1018 554 1018 554 1038 555 c 0,0,1
72 746 m 256,42,43
 72 851 72 851 99 949 c 128,-1,44
 126 1047 126 1047 175.5 1131 c 128,-1,45
 225 1215 225 1215 295 1285 c 128,-1,46
 365 1355 365 1355 450 1404.5 c 128,-1,47
 535 1454 535 1454 631.5 1481 c 128,-1,48
 728 1508 728 1508 834 1508 c 256,49,50
 939 1508 939 1508 1037 1481 c 128,-1,51
 1135 1454 1135 1454 1219.5 1404.5 c 128,-1,52
 1304 1355 1304 1355 1374 1285 c 128,-1,53
 1444 1215 1444 1215 1493.5 1131 c 128,-1,54
 1543 1047 1543 1047 1570 949.5 c 128,-1,55
 1597 852 1597 852 1597 746 c 0,56,57
 1597 642 1597 642 1570 544.5 c 128,-1,58
 1543 447 1543 447 1493.5 363 c 128,-1,59
 1444 279 1444 279 1374 209 c 128,-1,60
 1304 139 1304 139 1219.5 89.5 c 128,-1,61
 1135 40 1135 40 1037 13 c 128,-1,62
 939 -14 939 -14 834 -14 c 256,63,64
 729 -14 729 -14 632 13 c 128,-1,65
 535 40 535 40 450 89.5 c 128,-1,66
 365 139 365 139 295 209 c 128,-1,67
 225 279 225 279 175.5 363 c 128,-1,68
 126 447 126 447 99 544 c 128,-1,69
 72 641 72 641 72 746 c 256,42,43
242 746 m 256,70,71
 242 616 242 616 287.5 503.5 c 128,-1,72
 333 391 333 391 413 307.5 c 128,-1,73
 493 224 493 224 601 176.5 c 128,-1,74
 709 129 709 129 834 129 c 0,75,76
 960 129 960 129 1069 176.5 c 128,-1,77
 1178 224 1178 224 1258.5 307.5 c 128,-1,78
 1339 391 1339 391 1385.5 503.5 c 128,-1,79
 1432 616 1432 616 1432 746 c 0,80,81
 1432 833 1432 833 1411 913 c 128,-1,82
 1390 993 1390 993 1351.5 1062.5 c 128,-1,83
 1313 1132 1313 1132 1258.5 1188.5 c 128,-1,84
 1204 1245 1204 1245 1137.5 1285 c 128,-1,85
 1071 1325 1071 1325 994.5 1347 c 128,-1,86
 918 1369 918 1369 834 1369 c 0,87,88
 709 1369 709 1369 601 1321 c 128,-1,89
 493 1273 493 1273 413 1188.5 c 128,-1,90
 333 1104 333 1104 287.5 990 c 128,-1,91
 242 876 242 876 242 746 c 256,70,71
EndSplineSet
Validated: 1
EndChar

StartChar: ordfeminine
Encoding: 170 170 108
Width: 667
GlyphClass: 1
Flags: W
LayerCount: 2
Fore
SplineSet
555 862 m 2,0,1
 525 862 525 862 510.5 870 c 128,-1,2
 496 878 496 878 487 903 c 2,3,-1
 479 931 l 1,4,5
 455 912 455 912 434 897.5 c 128,-1,6
 413 883 413 883 391 873 c 128,-1,7
 369 863 369 863 345 858.5 c 128,-1,8
 321 854 321 854 291 854 c 0,9,10
 212 854 212 854 169.5 894 c 128,-1,11
 127 934 127 934 127 1006 c 0,12,13
 127 1043 127 1043 142 1082.5 c 128,-1,14
 157 1122 157 1122 197 1156 c 128,-1,15
 237 1190 237 1190 308 1213.5 c 128,-1,16
 379 1237 379 1237 492 1240 c 1,17,-1
 494 1258 l 2,18,19
 494 1273 494 1273 493 1289 c 128,-1,20
 492 1305 492 1305 486.5 1316.5 c 128,-1,21
 481 1328 481 1328 470.5 1335.5 c 128,-1,22
 460 1343 460 1343 440 1343 c 0,23,24
 412 1343 412 1343 394.5 1336.5 c 128,-1,25
 377 1330 377 1330 361.5 1322.5 c 128,-1,26
 346 1315 346 1315 330 1309 c 128,-1,27
 314 1303 314 1303 291 1303 c 256,28,29
 267 1303 267 1303 254 1314.5 c 128,-1,30
 241 1326 241 1326 233 1341 c 2,31,-1
 203 1410 l 1,32,33
 266 1464 266 1464 338.5 1488 c 128,-1,34
 411 1512 411 1512 489 1512 c 0,35,36
 538 1512 538 1512 578 1495 c 128,-1,37
 618 1478 618 1478 647 1447 c 128,-1,38
 676 1416 676 1416 692 1374.5 c 128,-1,39
 708 1333 708 1333 708 1286 c 0,40,41
 708 1279 708 1279 708 1272.5 c 128,-1,42
 708 1266 708 1266 707 1258 c 2,43,-1
 657 862 l 1,44,-1
 555 862 l 2,0,1
381 997 m 256,45,46
 405 997 405 997 424.5 1006.5 c 128,-1,47
 444 1016 444 1016 468 1038 c 1,48,-1
 476 1111 l 1,49,50
 433 1109 433 1109 406.5 1102.5 c 128,-1,51
 380 1096 380 1096 364.5 1085 c 128,-1,52
 349 1074 349 1074 343.5 1060.5 c 128,-1,53
 338 1047 338 1047 338 1031 c 0,54,55
 338 1013 338 1013 347.5 1005 c 128,-1,56
 357 997 357 997 381 997 c 256,45,46
EndSplineSet
Validated: 1
EndChar

StartChar: guillemotleft
Encoding: 171 171 109
Width: 987
GlyphClass: 1
Flags: W
LayerCount: 2
Fore
SplineSet
114 538 m 1,0,-1
 120 575 l 1,1,-1
 419 985 l 1,2,-1
 513 940 l 2,3,4
 552 922 552 922 552 887 c 0,5,6
 552 873 552 873 546 858.5 c 128,-1,7
 540 844 540 844 529 827 c 2,8,-1
 394 603 l 2,9,10
 385 588 385 588 374.5 576 c 128,-1,11
 364 564 364 564 352 556 c 1,12,13
 360 547 360 547 368.5 535.5 c 128,-1,14
 377 524 377 524 382 510 c 2,15,-1
 464 286 l 2,16,17
 468 275 468 275 470.5 264.5 c 128,-1,18
 473 254 473 254 473 244 c 0,19,20
 473 196 473 196 419 171 c 2,21,-1
 312 126 l 1,22,-1
 114 538 l 1,0,-1
460 538 m 1,23,-1
 466 575 l 1,24,-1
 765 985 l 1,25,-1
 859 940 l 2,26,27
 898 922 898 922 898 887 c 0,28,29
 898 873 898 873 892 858.5 c 128,-1,30
 886 844 886 844 876 827 c 2,31,-1
 740 603 l 2,32,33
 731 588 731 588 720.5 576 c 128,-1,34
 710 564 710 564 698 556 c 1,35,36
 706 547 706 547 714.5 535.5 c 128,-1,37
 723 524 723 524 728 510 c 2,38,-1
 810 286 l 2,39,40
 814 275 814 275 816.5 264.5 c 128,-1,41
 819 254 819 254 819 244 c 0,42,43
 819 196 819 196 765 171 c 2,44,-1
 658 126 l 1,45,-1
 460 538 l 1,23,-1
EndSplineSet
Validated: 1
EndChar

StartChar: logicalnot
Encoding: 172 172 110
Width: 1187
GlyphClass: 1
Flags: W
LayerCount: 2
Fore
SplineSet
166 798 m 1,0,-1
 1094 798 l 1,1,-1
 1030 293 l 1,2,-1
 772 293 l 1,3,-1
 808 579 l 1,4,-1
 139 579 l 1,5,-1
 166 798 l 1,0,-1
EndSplineSet
Validated: 1
EndChar

StartChar: uni00AD
Encoding: 173 173 111
Width: 702
GlyphClass: 1
Flags: W
LayerCount: 2
Fore
SplineSet
125 745 m 1,0,-1
 639 745 l 1,1,-1
 606 498 l 1,2,-1
 94 498 l 1,3,-1
 125 745 l 1,0,-1
EndSplineSet
Validated: 1
EndChar

StartChar: registered
Encoding: 174 174 112
Width: 1607
GlyphClass: 1
Flags: W
LayerCount: 2
Fore
SplineSet
66 746 m 256,0,1
 66 851 66 851 93 949 c 128,-1,2
 120 1047 120 1047 169.5 1131 c 128,-1,3
 219 1215 219 1215 288.5 1285 c 128,-1,4
 358 1355 358 1355 443 1404.5 c 128,-1,5
 528 1454 528 1454 625 1481 c 128,-1,6
 722 1508 722 1508 827 1508 c 256,7,8
 932 1508 932 1508 1030 1481 c 128,-1,9
 1128 1454 1128 1454 1212.5 1404.5 c 128,-1,10
 1297 1355 1297 1355 1367.5 1285 c 128,-1,11
 1438 1215 1438 1215 1487.5 1131 c 128,-1,12
 1537 1047 1537 1047 1564 949.5 c 128,-1,13
 1591 852 1591 852 1591 746 c 0,14,15
 1591 642 1591 642 1564 544.5 c 128,-1,16
 1537 447 1537 447 1487.5 363 c 128,-1,17
 1438 279 1438 279 1367.5 209 c 128,-1,18
 1297 139 1297 139 1212.5 89.5 c 128,-1,19
 1128 40 1128 40 1030.5 13 c 128,-1,20
 933 -14 933 -14 827 -14 c 256,21,22
 722 -14 722 -14 625 13 c 128,-1,23
 528 40 528 40 443 89.5 c 128,-1,24
 358 139 358 139 288.5 209 c 128,-1,25
 219 279 219 279 169.5 363 c 128,-1,26
 120 447 120 447 93 544 c 128,-1,27
 66 641 66 641 66 746 c 256,0,1
236 746 m 256,28,29
 236 616 236 616 281.5 503.5 c 128,-1,30
 327 391 327 391 406.5 307.5 c 128,-1,31
 486 224 486 224 594 176.5 c 128,-1,32
 702 129 702 129 827 129 c 0,33,34
 945 129 945 129 1048 171 c 128,-1,35
 1151 213 1151 213 1231 288 c 1,36,-1
 1010 288 l 2,37,38
 954 288 954 288 932 328 c 1,39,-1
 838 564 l 2,40,41
 830 582 830 582 815.5 589.5 c 128,-1,42
 801 597 801 597 776 597 c 2,43,-1
 743 597 l 1,44,-1
 743 288 l 1,45,-1
 469 288 l 1,46,-1
 469 1210 l 1,47,-1
 829 1210 l 2,48,49
 931 1210 931 1210 1005.5 1192 c 128,-1,50
 1080 1174 1080 1174 1128 1139 c 128,-1,51
 1176 1104 1176 1104 1198.5 1052.5 c 128,-1,52
 1221 1001 1221 1001 1221 936 c 0,53,54
 1221 893 1221 893 1210.5 853.5 c 128,-1,55
 1200 814 1200 814 1179 781 c 128,-1,56
 1158 748 1158 748 1125 721 c 128,-1,57
 1092 694 1092 694 1046 677 c 1,58,59
 1076 662 1076 662 1096 637.5 c 128,-1,60
 1116 613 1116 613 1133 580 c 2,61,-1
 1260 316 l 1,62,63
 1338 399 1338 399 1381.5 508.5 c 128,-1,64
 1425 618 1425 618 1425 746 c 0,65,66
 1425 833 1425 833 1404 913 c 128,-1,67
 1383 993 1383 993 1345 1062.5 c 128,-1,68
 1307 1132 1307 1132 1252.5 1188.5 c 128,-1,69
 1198 1245 1198 1245 1131.5 1285 c 128,-1,70
 1065 1325 1065 1325 988 1347 c 128,-1,71
 911 1369 911 1369 827 1369 c 0,72,73
 702 1369 702 1369 594 1321 c 128,-1,74
 486 1273 486 1273 406.5 1188.5 c 128,-1,75
 327 1104 327 1104 281.5 990 c 128,-1,76
 236 876 236 876 236 746 c 256,28,29
743 785 m 1,77,-1
 809 785 l 2,78,79
 858 785 858 785 886 793 c 128,-1,80
 914 801 914 801 928.5 815 c 128,-1,81
 943 829 943 829 946.5 851 c 128,-1,82
 950 873 950 873 950 901 c 0,83,84
 950 928 950 928 946.5 948 c 128,-1,85
 943 968 943 968 931 981.5 c 128,-1,86
 919 995 919 995 894.5 1002.5 c 128,-1,87
 870 1010 870 1010 829 1010 c 2,88,-1
 743 1010 l 1,89,-1
 743 785 l 1,77,-1
EndSplineSet
Validated: 1
EndChar

StartChar: macron
Encoding: 175 175 113
Width: 626
GlyphClass: 1
Flags: W
LayerCount: 2
Fore
SplineSet
135 1420 m 1,0,-1
 723 1420 l 1,1,-1
 698 1232 l 1,2,-1
 111 1232 l 1,3,-1
 135 1420 l 1,0,-1
EndSplineSet
Validated: 1
Substitution2: "'case' Case-Sensitive Forms in Latin lookup 0 subtable" macron.case
EndChar

StartChar: degree
Encoding: 176 176 114
Width: 813
GlyphClass: 1
Flags: W
LayerCount: 2
Fore
SplineSet
115 1146 m 0,0,1
 115 1222 115 1222 143.5 1288.5 c 128,-1,2
 172 1355 172 1355 222 1404 c 128,-1,3
 272 1453 272 1453 340.5 1481.5 c 128,-1,4
 409 1510 409 1510 487 1510 c 256,5,6
 566 1510 566 1510 634.5 1481.5 c 128,-1,7
 703 1453 703 1453 754 1404 c 128,-1,8
 805 1355 805 1355 833.5 1288.5 c 128,-1,9
 862 1222 862 1222 862 1146 c 0,10,11
 862 1072 862 1072 833.5 1006 c 128,-1,12
 805 940 805 940 754 891 c 128,-1,13
 703 842 703 842 634.5 812.5 c 128,-1,14
 566 783 566 783 487 783 c 256,15,16
 408 783 408 783 340 812.5 c 128,-1,17
 272 842 272 842 222 891 c 128,-1,18
 172 940 172 940 143.5 1006 c 128,-1,19
 115 1072 115 1072 115 1146 c 0,0,1
334 1144 m 0,20,21
 334 1110 334 1110 345 1081 c 128,-1,22
 356 1052 356 1052 376.5 1030 c 128,-1,23
 397 1008 397 1008 425.5 995.5 c 128,-1,24
 454 983 454 983 487 983 c 256,25,26
 521 983 521 983 549.5 995.5 c 128,-1,27
 578 1008 578 1008 598 1030 c 128,-1,28
 618 1052 618 1052 629.5 1081 c 128,-1,29
 641 1110 641 1110 641 1144 c 0,30,31
 641 1179 641 1179 629.5 1209 c 128,-1,32
 618 1239 618 1239 598 1261 c 128,-1,33
 578 1283 578 1283 549.5 1296 c 128,-1,34
 521 1309 521 1309 487 1309 c 256,35,36
 453 1309 453 1309 425 1296 c 128,-1,37
 397 1283 397 1283 376.5 1261 c 128,-1,38
 356 1239 356 1239 345 1209 c 128,-1,39
 334 1179 334 1179 334 1144 c 0,20,21
EndSplineSet
Validated: 1
EndChar

StartChar: plusminus
Encoding: 177 177 115
Width: 1187
GlyphClass: 1
Flags: W
LayerCount: 2
Fore
SplineSet
815 1296 m 1,0,-1
 772 948 l 1,1,-1
 1155 948 l 1,2,-1
 1126 729 l 1,3,-1
 745 729 l 1,4,-1
 705 397 l 1,5,-1
 457 397 l 1,6,-1
 498 729 l 1,7,-1
 117 729 l 1,8,-1
 143 948 l 1,9,-1
 524 948 l 1,10,-1
 567 1296 l 1,11,-1
 815 1296 l 1,0,-1
63 302 m 1,12,-1
 1075 302 l 1,13,-1
 1047 82 l 1,14,-1
 37 82 l 1,15,-1
 63 302 l 1,12,-1
EndSplineSet
Validated: 1
EndChar

StartChar: twosuperior
Encoding: 178 178 116
Width: 684
GlyphClass: 1
Flags: W
LayerCount: 2
Fore
SplineSet
504 1696 m 0,0,1
 563 1696 563 1696 607.5 1679.5 c 128,-1,2
 652 1663 652 1663 681.5 1635.5 c 128,-1,3
 711 1608 711 1608 725 1571 c 128,-1,4
 739 1534 739 1534 739 1493 c 0,5,6
 739 1446 739 1446 724 1407 c 128,-1,7
 709 1368 709 1368 682.5 1333.5 c 128,-1,8
 656 1299 656 1299 622.5 1267.5 c 128,-1,9
 589 1236 589 1236 553 1203 c 2,10,-1
 429 1091 l 1,11,12
 464 1101 464 1101 497 1106.5 c 128,-1,13
 530 1112 530 1112 557 1112 c 2,14,-1
 639 1112 l 2,15,16
 671 1112 671 1112 686.5 1097 c 128,-1,17
 702 1082 702 1082 702 1057 c 0,18,19
 702 1052 702 1052 699.5 1031 c 128,-1,20
 697 1010 697 1010 695 985 c 0,21,22
 691 956 691 956 688 922 c 1,23,-1
 109 922 l 1,24,-1
 119 990 l 2,25,26
 122 1009 122 1009 132.5 1032 c 128,-1,27
 143 1055 143 1055 164 1073 c 2,28,-1
 393 1275 l 2,29,30
 419 1298 419 1298 441 1323.5 c 128,-1,31
 463 1349 463 1349 480 1374.5 c 128,-1,32
 497 1400 497 1400 506.5 1424.5 c 128,-1,33
 516 1449 516 1449 516 1470 c 0,34,35
 516 1494 516 1494 506 1510.5 c 128,-1,36
 496 1527 496 1527 471 1527 c 0,37,38
 447 1527 447 1527 432.5 1515.5 c 128,-1,39
 418 1504 418 1504 401 1480 c 0,40,41
 387 1458 387 1458 369.5 1447 c 128,-1,42
 352 1436 352 1436 325 1436 c 0,43,44
 312 1436 312 1436 295 1439 c 2,45,-1
 176 1458 l 1,46,47
 210 1581 210 1581 297 1638.5 c 128,-1,48
 384 1696 384 1696 504 1696 c 0,0,1
EndSplineSet
Validated: 1
EndChar

StartChar: threesuperior
Encoding: 179 179 117
Width: 684
GlyphClass: 1
Flags: W
LayerCount: 2
Fore
SplineSet
526 1696 m 0,0,1
 584 1696 584 1696 628 1679.5 c 128,-1,2
 672 1663 672 1663 701 1637 c 128,-1,3
 730 1611 730 1611 745 1577.5 c 128,-1,4
 760 1544 760 1544 760 1510 c 0,5,6
 760 1442 760 1442 733.5 1397.5 c 128,-1,7
 707 1353 707 1353 639 1326 c 1,8,9
 685 1308 685 1308 708 1276 c 128,-1,10
 731 1244 731 1244 731 1193 c 0,11,12
 731 1119 731 1119 702.5 1066.5 c 128,-1,13
 674 1014 674 1014 629.5 979.5 c 128,-1,14
 585 945 585 945 529 929 c 128,-1,15
 473 913 473 913 420 913 c 256,16,17
 367 913 367 913 324 922.5 c 128,-1,18
 281 932 281 932 247 955.5 c 128,-1,19
 213 979 213 979 189 1019.5 c 128,-1,20
 165 1060 165 1060 152 1123 c 1,21,-1
 252 1162 l 2,22,23
 277 1171 277 1171 300 1171 c 256,24,25
 323 1171 323 1171 338.5 1163 c 128,-1,26
 354 1155 354 1155 360 1139 c 0,27,28
 369 1113 369 1113 388 1101 c 128,-1,29
 407 1089 407 1089 430 1089 c 0,30,31
 467 1089 467 1089 489.5 1111.5 c 128,-1,32
 512 1134 512 1134 512 1176 c 0,33,34
 512 1215 512 1215 484 1227 c 128,-1,35
 456 1239 456 1239 387 1239 c 1,36,-1
 406 1386 l 1,37,38
 447 1386 447 1386 474 1390.5 c 128,-1,39
 501 1395 501 1395 516.5 1404.5 c 128,-1,40
 532 1414 532 1414 538.5 1430 c 128,-1,41
 545 1446 545 1446 545 1469 c 256,42,43
 545 1492 545 1492 534 1507.5 c 128,-1,44
 523 1523 523 1523 494 1523 c 0,45,46
 466 1523 466 1523 451 1512.5 c 128,-1,47
 436 1502 436 1502 424 1482 c 0,48,49
 409 1458 409 1458 393 1447 c 128,-1,50
 377 1436 377 1436 352 1436 c 0,51,52
 340 1436 340 1436 322 1439 c 2,53,-1
 211 1458 l 1,54,55
 227 1519 227 1519 258.5 1564 c 128,-1,56
 290 1609 290 1609 331.5 1638 c 128,-1,57
 373 1667 373 1667 422.5 1681.5 c 128,-1,58
 472 1696 472 1696 526 1696 c 0,0,1
EndSplineSet
Validated: 1
EndChar

StartChar: acute
Encoding: 180 180 118
Width: 626
GlyphClass: 1
Flags: W
LayerCount: 2
Fore
SplineSet
821 1506 m 1,0,-1
 541 1237 l 2,1,2
 516 1213 516 1213 493 1204.5 c 128,-1,3
 470 1196 470 1196 436 1196 c 2,4,-1
 254 1196 l 1,5,-1
 412 1447 l 2,6,7
 430 1476 430 1476 455 1491 c 128,-1,8
 480 1506 480 1506 526 1506 c 2,9,-1
 821 1506 l 1,0,-1
EndSplineSet
Validated: 1
Substitution2: "'case' Case-Sensitive Forms in Latin lookup 0 subtable" acute.case
EndChar

StartChar: mu
Encoding: 181 181 119
Width: 1097
GlyphClass: 1
Flags: W
LayerCount: 2
Fore
SplineSet
467 1060 m 1,0,-1
 383 386 l 2,1,2
 381 375 381 375 381 365 c 128,-1,3
 381 355 381 355 381 346 c 0,4,5
 381 283 381 283 407 249 c 128,-1,6
 433 215 433 215 485 215 c 0,7,8
 530 215 530 215 572 236 c 128,-1,9
 614 257 614 257 655 293 c 1,10,-1
 752 1060 l 1,11,-1
 1057 1060 l 1,12,-1
 926 0 l 1,13,-1
 735 0 l 2,14,15
 680 0 680 0 668 51 c 2,16,-1
 657 114 l 1,17,18
 627 87 627 87 602 69 c 128,-1,19
 577 51 577 51 551 40.5 c 128,-1,20
 525 30 525 30 498 25 c 128,-1,21
 471 20 471 20 440 20 c 0,22,23
 398 20 398 20 363.5 32.5 c 128,-1,24
 329 45 329 45 301 68 c 1,25,26
 307 28 307 28 307 -16 c 0,27,28
 307 -43 307 -43 305 -68 c 128,-1,29
 303 -93 303 -93 301 -117 c 2,30,-1
 274 -339 l 1,31,-1
 123 -339 l 2,32,33
 65 -339 65 -339 34 -312 c 128,-1,34
 3 -285 3 -285 3 -236 c 0,35,36
 3 -231 3 -231 3 -226 c 128,-1,37
 3 -221 3 -221 4 -216 c 2,38,-1
 162 1060 l 1,39,-1
 467 1060 l 1,0,-1
EndSplineSet
Validated: 1
EndChar

StartChar: paragraph
Encoding: 182 182 120
Width: 1492
GlyphClass: 1
Flags: W
LayerCount: 2
Fore
SplineSet
1587 1492 m 1,0,-1
 1554 1235 l 1,1,-1
 1340 1235 l 1,2,-1
 1161 -221 l 1,3,-1
 885 -221 l 1,4,-1
 1064 1235 l 1,5,-1
 863 1235 l 1,6,-1
 684 -221 l 1,7,-1
 408 -221 l 1,8,-1
 511 621 l 1,9,10
 414 621 414 621 335 650 c 128,-1,11
 256 679 256 679 200.5 730 c 128,-1,12
 145 781 145 781 115.5 851 c 128,-1,13
 86 921 86 921 86 1002 c 0,14,15
 86 1100 86 1100 125 1189 c 128,-1,16
 164 1278 164 1278 234 1345.5 c 128,-1,17
 304 1413 304 1413 402 1452.5 c 128,-1,18
 500 1492 500 1492 618 1492 c 2,19,-1
 1587 1492 l 1,0,-1
EndSplineSet
Validated: 1
EndChar

StartChar: periodcentered
Encoding: 183 183 121
Width: 583
GlyphClass: 1
Flags: W
LayerCount: 2
Fore
SplineSet
80 610 m 256,0,1
 80 656 80 656 98 697 c 128,-1,2
 116 738 116 738 147 768.5 c 128,-1,3
 178 799 178 799 219.5 816.5 c 128,-1,4
 261 834 261 834 309 834 c 256,5,6
 357 834 357 834 399.5 816.5 c 128,-1,7
 442 799 442 799 473.5 768.5 c 128,-1,8
 505 738 505 738 523 697 c 128,-1,9
 541 656 541 656 541 610 c 256,10,11
 541 564 541 564 523 523.5 c 128,-1,12
 505 483 505 483 473.5 453 c 128,-1,13
 442 423 442 423 399.5 405.5 c 128,-1,14
 357 388 357 388 309 388 c 256,15,16
 261 388 261 388 219.5 405.5 c 128,-1,17
 178 423 178 423 147 453 c 128,-1,18
 116 483 116 483 98 523.5 c 128,-1,19
 80 564 80 564 80 610 c 256,0,1
EndSplineSet
Validated: 1
EndChar

StartChar: cedilla
Encoding: 184 184 122
Width: 626
GlyphClass: 1
Flags: W
LayerCount: 2
Fore
SplineSet
98 -219 m 0,0,1
 113 -219 113 -219 125 -224 c 128,-1,2
 137 -229 137 -229 156 -229 c 0,3,4
 180 -229 180 -229 190.5 -217 c 128,-1,5
 201 -205 201 -205 201 -190 c 0,6,7
 201 -170 201 -170 174.5 -159 c 128,-1,8
 148 -148 148 -148 84 -139 c 1,9,-1
 145 17 l 1,10,-1
 336 17 l 1,11,-1
 311 -48 l 1,12,13
 384 -70 384 -70 412 -105 c 128,-1,14
 440 -140 440 -140 440 -182 c 0,15,16
 440 -222 440 -222 419 -254.5 c 128,-1,17
 398 -287 398 -287 361.5 -309.5 c 128,-1,18
 325 -332 325 -332 273.5 -343.5 c 128,-1,19
 222 -355 222 -355 162 -355 c 0,20,21
 123 -355 123 -355 90.5 -351 c 128,-1,22
 58 -347 58 -347 23 -337 c 1,23,-1
 63 -245 l 2,24,25
 68 -234 68 -234 76 -226.5 c 128,-1,26
 84 -219 84 -219 98 -219 c 0,0,1
EndSplineSet
Validated: 1
EndChar

StartChar: onesuperior
Encoding: 185 185 123
Width: 684
GlyphClass: 1
Flags: W
LayerCount: 2
Fore
SplineSet
231 1075 m 1,0,-1
 364 1075 l 1,1,-1
 399 1374 l 1,2,-1
 412 1428 l 1,3,-1
 352 1385 l 2,4,5
 341 1377 341 1377 329.5 1374.5 c 128,-1,6
 318 1372 318 1372 308 1372 c 0,7,8
 291 1372 291 1372 277.5 1379 c 128,-1,9
 264 1386 264 1386 258 1396 c 2,10,-1
 203 1486 l 1,11,-1
 473 1688 l 1,12,-1
 657 1688 l 1,13,-1
 582 1075 l 1,14,-1
 670 1075 l 1,15,-1
 651 922 l 1,16,-1
 211 922 l 1,17,-1
 231 1075 l 1,0,-1
EndSplineSet
Validated: 1
EndChar

StartChar: ordmasculine
Encoding: 186 186 124
Width: 745
GlyphClass: 1
Flags: W
LayerCount: 2
Fore
SplineSet
498 1510 m 0,1,2
 564 1510 564 1510 617 1490 c 128,-1,3
 670 1470 670 1470 707.5 1433.5 c 128,-1,4
 745 1397 745 1397 765.5 1344.5 c 128,-1,5
 786 1292 786 1292 786 1228 c 0,6,7
 786 1141 786 1141 758 1070.5 c 128,-1,8
 730 1000 730 1000 680.5 951 c 128,-1,9
 631 902 631 902 563.5 876 c 128,-1,10
 496 850 496 850 418 850 c 0,11,12
 351 850 351 850 297.5 870 c 128,-1,13
 244 890 244 890 205.5 927 c 128,-1,14
 167 964 167 964 146 1017 c 128,-1,15
 125 1070 125 1070 125 1137 c 0,16,17
 125 1223 125 1223 153.5 1292.5 c 128,-1,18
 182 1362 182 1362 233 1410 c 128,-1,19
 284 1458 284 1458 351.5 1484 c 128,-1,20
 419 1510 419 1510 498 1510 c 0,1,2
440 1022 m 0,21,22
 500 1022 500 1022 524.5 1074.5 c 128,-1,23
 549 1127 549 1127 549 1228 c 0,24,25
 549 1337 549 1337 478 1337 c 0,26,27
 477 1337 477 1337 477 1337 c 0,28,29
 439 1337 439 1337 416.5 1322.5 c 128,-1,30
 394 1308 394 1308 382 1281 c 128,-1,31
 370 1254 370 1254 366 1216.5 c 128,-1,32
 362 1179 362 1179 362 1133 c 0,33,34
 362 1022 362 1022 440 1022 c 0,21,22
EndSplineSet
Validated: 1
EndChar

StartChar: guillemotright
Encoding: 187 187 125
Width: 987
GlyphClass: 1
Flags: W
LayerCount: 2
Fore
SplineSet
545 575 m 1,0,-1
 541 538 l 1,1,-1
 242 126 l 1,2,-1
 147 171 l 2,3,4
 108 190 108 190 108 224 c 0,5,6
 108 225 108 225 108 226 c 0,7,8
 108 240 108 240 113.5 254.5 c 128,-1,9
 119 269 119 269 129 286 c 2,10,-1
 266 510 l 2,11,12
 274 524 274 524 285 535.5 c 128,-1,13
 296 547 296 547 307 555 c 1,14,15
 289 573 289 573 279 603 c 2,16,-1
 195 827 l 2,17,18
 187 849 187 849 186 866 c 0,19,20
 186 890 186 890 199.5 909.5 c 128,-1,21
 213 929 213 929 242 940 c 2,22,-1
 348 985 l 1,23,-1
 545 575 l 1,0,-1
891 575 m 1,24,-1
 887 538 l 1,25,-1
 588 126 l 1,26,-1
 494 171 l 2,27,28
 454 190 454 190 454 226 c 0,29,30
 454 240 454 240 459.5 254.5 c 128,-1,31
 465 269 465 269 475 286 c 2,32,-1
 612 510 l 2,33,34
 620 524 620 524 631 535.5 c 128,-1,35
 642 547 642 547 653 555 c 1,36,37
 635 573 635 573 625 603 c 2,38,-1
 541 827 l 2,39,40
 533 849 533 849 532 866 c 0,41,42
 532 890 532 890 545.5 909.5 c 128,-1,43
 559 929 559 929 588 940 c 2,44,-1
 694 985 l 1,45,-1
 891 575 l 1,24,-1
EndSplineSet
Validated: 1
EndChar

StartChar: onequarter
Encoding: 188 188 126
Width: 1510
GlyphClass: 1
Flags: W
LayerCount: 2
Fore
SplineSet
487 87 m 2,0,1
 451 36 451 36 412 18 c 128,-1,2
 373 0 373 0 324 0 c 2,3,-1
 199 0 l 1,4,-1
 1172 1390 l 2,5,6
 1207 1439 1207 1439 1249.5 1464.5 c 128,-1,7
 1292 1490 1292 1490 1348 1490 c 2,8,-1
 1473 1490 l 1,9,-1
 487 87 l 2,0,1
1354 317 m 1,10,-1
 1438 317 l 1,11,-1
 1423 194 l 2,12,13
 1420 180 1420 180 1408.5 167.5 c 128,-1,14
 1397 155 1397 155 1378 155 c 2,15,-1
 1333 155 l 1,16,-1
 1315 0 l 1,17,-1
 1133 0 l 1,18,-1
 1151 155 l 1,19,-1
 868 155 l 2,20,21
 840 155 840 155 825.5 167.5 c 128,-1,22
 811 180 811 180 809 200 c 2,23,-1
 801 304 l 1,24,-1
 1198 766 l 1,25,-1
 1409 766 l 1,26,-1
 1354 317 l 1,10,-1
190 879 m 1,27,-1
 323 879 l 1,28,-1
 358 1178 l 1,29,-1
 371 1232 l 1,30,-1
 311 1189 l 2,31,32
 291 1175 291 1175 263 1175 c 0,33,34
 246 1175 246 1175 234.5 1182.5 c 128,-1,35
 223 1190 223 1190 217 1199 c 2,36,-1
 162 1289 l 1,37,-1
 432 1491 l 1,38,-1
 616 1491 l 1,39,-1
 541 879 l 1,40,-1
 629 879 l 1,41,-1
 610 725 l 1,42,-1
 170 725 l 1,43,-1
 190 879 l 1,27,-1
1184 423 m 2,44,45
 1190 478 1190 478 1207 549 c 1,46,-1
 1014 317 l 1,47,-1
 1170 317 l 1,48,-1
 1184 423 l 2,44,45
EndSplineSet
Validated: 1
EndChar

StartChar: onehalf
Encoding: 189 189 127
Width: 1510
GlyphClass: 1
Flags: W
LayerCount: 2
Fore
SplineSet
459 87 m 2,0,1
 423 36 423 36 383.5 18 c 128,-1,2
 344 0 344 0 295 0 c 2,3,-1
 170 0 l 1,4,-1
 1144 1390 l 2,5,6
 1179 1439 1179 1439 1221.5 1464.5 c 128,-1,7
 1264 1490 1264 1490 1319 1490 c 2,8,-1
 1444 1490 l 1,9,-1
 459 87 l 2,0,1
1200 774 m 0,10,11
 1259 774 1259 774 1304 757.5 c 128,-1,12
 1349 741 1349 741 1378 713.5 c 128,-1,13
 1407 686 1407 686 1421.5 649 c 128,-1,14
 1436 612 1436 612 1436 571 c 0,15,16
 1436 524 1436 524 1420.5 485 c 128,-1,17
 1405 446 1405 446 1379 412 c 128,-1,18
 1353 378 1353 378 1319 346 c 128,-1,19
 1285 314 1285 314 1249 282 c 2,20,-1
 1125 169 l 1,21,22
 1160 179 1160 179 1193.5 184.5 c 128,-1,23
 1227 190 1227 190 1253 190 c 2,24,-1
 1335 190 l 2,25,26
 1367 190 1367 190 1383 175.5 c 128,-1,27
 1399 161 1399 161 1399 135 c 0,28,29
 1399 133 1399 133 1398.5 126 c 128,-1,30
 1398 119 1398 119 1395 90 c 2,31,-1
 1384 0 l 1,32,-1
 805 0 l 1,33,-1
 815 69 l 2,34,35
 817 88 817 88 828.5 110.5 c 128,-1,36
 840 133 840 133 860 152 c 2,37,-1
 1090 353 l 2,38,39
 1116 376 1116 376 1137.5 401.5 c 128,-1,40
 1159 427 1159 427 1176 452.5 c 128,-1,41
 1193 478 1193 478 1202.5 502.5 c 128,-1,42
 1212 527 1212 527 1212 549 c 0,43,44
 1212 573 1212 573 1202 589 c 128,-1,45
 1192 605 1192 605 1167 605 c 0,46,47
 1143 605 1143 605 1128.5 593.5 c 128,-1,48
 1114 582 1114 582 1098 558 c 0,49,50
 1083 536 1083 536 1066.5 525 c 128,-1,51
 1050 514 1050 514 1022 514 c 0,52,53
 1015 514 1015 514 1005.5 515 c 128,-1,54
 996 516 996 516 976 519 c 2,55,-1
 872 537 l 1,56,57
 906 660 906 660 993 717 c 128,-1,58
 1080 774 1080 774 1200 774 c 0,10,11
201 879 m 1,59,-1
 333 879 l 1,60,-1
 369 1178 l 1,61,-1
 381 1232 l 1,62,-1
 322 1189 l 2,63,64
 302 1175 302 1175 273 1175 c 0,65,66
 256 1175 256 1175 244.5 1182.5 c 128,-1,67
 233 1190 233 1190 227 1199 c 2,68,-1
 172 1289 l 1,69,-1
 442 1491 l 1,70,-1
 627 1491 l 1,71,-1
 551 879 l 1,72,-1
 639 879 l 1,73,-1
 621 725 l 1,74,-1
 180 725 l 1,75,-1
 201 879 l 1,59,-1
EndSplineSet
Validated: 1
EndChar

StartChar: threequarters
Encoding: 190 190 128
Width: 1510
GlyphClass: 1
Flags: W
LayerCount: 2
Fore
SplineSet
500 87 m 2,0,1
 464 36 464 36 424.5 18 c 128,-1,2
 385 0 385 0 336 0 c 2,3,-1
 211 0 l 1,4,-1
 1185 1390 l 2,5,6
 1220 1439 1220 1439 1262.5 1464.5 c 128,-1,7
 1305 1490 1305 1490 1360 1490 c 2,8,-1
 1485 1490 l 1,9,-1
 500 87 l 2,0,1
1364 317 m 1,10,-1
 1448 317 l 1,11,-1
 1434 194 l 2,12,13
 1431 180 1431 180 1419 167.5 c 128,-1,14
 1407 155 1407 155 1389 155 c 2,15,-1
 1343 155 l 1,16,-1
 1325 0 l 1,17,-1
 1143 0 l 1,18,-1
 1161 155 l 1,19,-1
 879 155 l 2,20,21
 851 155 851 155 836 167.5 c 128,-1,22
 821 180 821 180 819 200 c 2,23,-1
 811 304 l 1,24,-1
 1208 766 l 1,25,-1
 1419 766 l 1,26,-1
 1364 317 l 1,10,-1
498 1499 m 0,27,28
 556 1499 556 1499 599.5 1482.5 c 128,-1,29
 643 1466 643 1466 672 1440 c 128,-1,30
 701 1414 701 1414 716 1381 c 128,-1,31
 731 1348 731 1348 731 1314 c 0,32,33
 731 1246 731 1246 704.5 1201 c 128,-1,34
 678 1156 678 1156 610 1129 c 1,35,36
 656 1111 656 1111 679 1079.5 c 128,-1,37
 702 1048 702 1048 702 996 c 0,38,39
 702 922 702 922 673.5 869.5 c 128,-1,40
 645 817 645 817 600.5 783 c 128,-1,41
 556 749 556 749 500 733 c 128,-1,42
 444 717 444 717 391 717 c 256,43,44
 338 717 338 717 295 726 c 128,-1,45
 252 735 252 735 218 758.5 c 128,-1,46
 184 782 184 782 160 822.5 c 128,-1,47
 136 863 136 863 123 927 c 1,48,-1
 223 966 l 2,49,50
 248 975 248 975 271 975 c 256,51,52
 294 975 294 975 310 966.5 c 128,-1,53
 326 958 326 958 332 942 c 0,54,55
 341 916 341 916 359.5 904 c 128,-1,56
 378 892 378 892 401 892 c 0,57,58
 438 892 438 892 460.5 914.5 c 128,-1,59
 483 937 483 937 483 979 c 0,60,61
 483 1018 483 1018 455 1030 c 128,-1,62
 427 1042 427 1042 358 1042 c 1,63,-1
 377 1190 l 1,64,65
 418 1190 418 1190 445 1194 c 128,-1,66
 472 1198 472 1198 488 1208 c 128,-1,67
 504 1218 504 1218 510 1233.5 c 128,-1,68
 516 1249 516 1249 516 1273 c 0,69,70
 516 1296 516 1296 505.5 1311 c 128,-1,71
 495 1326 495 1326 465 1326 c 0,72,73
 437 1326 437 1326 422.5 1316 c 128,-1,74
 408 1306 408 1306 395 1285 c 0,75,76
 380 1261 380 1261 364 1250 c 128,-1,77
 348 1239 348 1239 324 1239 c 0,78,79
 312 1239 312 1239 293 1242 c 2,80,-1
 182 1262 l 1,81,82
 198 1323 198 1323 229.5 1367.5 c 128,-1,83
 261 1412 261 1412 302.5 1441 c 128,-1,84
 344 1470 344 1470 394 1484.5 c 128,-1,85
 444 1499 444 1499 498 1499 c 0,27,28
1194 423 m 2,86,87
 1200 478 1200 478 1218 549 c 1,88,-1
 1024 317 l 1,89,-1
 1181 317 l 1,90,-1
 1194 423 l 2,86,87
EndSplineSet
Validated: 1
EndChar

StartChar: questiondown
Encoding: 191 191 129
Width: 839
GlyphClass: 1
Flags: W
LayerCount: 2
Fore
SplineSet
737 -203 m 1,0,1
 697 -234 697 -234 652.5 -262 c 128,-1,2
 608 -290 608 -290 558 -310.5 c 128,-1,3
 508 -331 508 -331 451.5 -343 c 128,-1,4
 395 -355 395 -355 332 -355 c 0,5,6
 250 -355 250 -355 185 -333.5 c 128,-1,7
 120 -312 120 -312 75.5 -272 c 128,-1,8
 31 -232 31 -232 7.5 -175.5 c 128,-1,9
 -16 -119 -16 -119 -16 -48 c 0,10,11
 -16 33 -16 33 6.5 90.5 c 128,-1,12
 29 148 29 148 63.5 190 c 128,-1,13
 98 232 98 232 140 262.5 c 128,-1,14
 182 293 182 293 220.5 319.5 c 128,-1,15
 259 346 259 346 289 372.5 c 128,-1,16
 319 399 319 399 330 434 c 2,17,-1
 375 579 l 1,18,-1
 584 579 l 1,19,-1
 584 413 l 2,20,21
 584 365 584 365 562 328 c 128,-1,22
 540 291 540 291 507 260 c 128,-1,23
 474 229 474 229 436 202 c 128,-1,24
 398 175 398 175 365.5 146.5 c 128,-1,25
 333 118 333 118 311 84 c 128,-1,26
 289 50 289 50 289 6 c 0,27,28
 289 -56 289 -56 318 -86 c 128,-1,29
 347 -116 347 -116 389 -116 c 0,30,31
 437 -116 437 -116 471.5 -104.5 c 128,-1,32
 506 -93 506 -93 531.5 -79.5 c 128,-1,33
 557 -66 557 -66 576.5 -54 c 128,-1,34
 596 -42 596 -42 614 -42 c 0,35,36
 652 -42 652 -42 672 -77 c 2,37,-1
 737 -203 l 1,0,1
330 904 m 256,38,39
 330 941 330 941 343.5 973 c 128,-1,40
 357 1005 357 1005 381.5 1028.5 c 128,-1,41
 406 1052 406 1052 438.5 1065.5 c 128,-1,42
 471 1079 471 1079 510 1079 c 0,43,44
 548 1079 548 1079 580.5 1065.5 c 128,-1,45
 613 1052 613 1052 638 1028.5 c 128,-1,46
 663 1005 663 1005 676.5 973 c 128,-1,47
 690 941 690 941 690 904 c 256,48,49
 690 867 690 867 676.5 835 c 128,-1,50
 663 803 663 803 638 779.5 c 128,-1,51
 613 756 613 756 580.5 742.5 c 128,-1,52
 548 729 548 729 510 729 c 0,53,54
 471 729 471 729 438.5 742.5 c 128,-1,55
 406 756 406 756 381.5 779.5 c 128,-1,56
 357 803 357 803 343.5 835 c 128,-1,57
 330 867 330 867 330 904 c 256,38,39
EndSplineSet
Validated: 1
EndChar

StartChar: AE
Encoding: 198 198 136
Width: 1757
GlyphClass: 1
Flags: W
LayerCount: 2
Fore
SplineSet
733 1492 m 1,0,-1
 1815 1492 l 1,1,-1
 1782 1235 l 1,2,-1
 1169 1235 l 1,3,-1
 1169 872 l 1,4,-1
 1606 872 l 1,5,-1
 1575 625 l 1,6,-1
 1169 625 l 1,7,-1
 1169 257 l 1,8,-1
 1663 257 l 1,9,-1
 1630 0 l 1,10,-1
 854 0 l 1,11,-1
 854 341 l 1,12,-1
 415 341 l 1,13,-1
 281 73 l 2,14,15
 267 43 267 43 232.5 21.5 c 128,-1,16
 198 0 198 0 156 0 c 2,17,-1
 -104 0 l 1,18,-1
 733 1492 l 1,0,-1
528 568 m 1,19,-1
 854 568 l 1,20,-1
 854 1227 l 1,21,22
 832 1175 832 1175 811 1128.5 c 128,-1,23
 790 1082 790 1082 766 1043 c 2,24,-1
 528 568 l 1,19,-1
EndSplineSet
Validated: 1
EndChar

StartChar: Ccedilla
Encoding: 199 199 137
Width: 1210
GlyphClass: 1
Flags: W
LayerCount: 2
Fore
SplineSet
498 -219 m 0,0,1
 513 -219 513 -219 525 -224 c 128,-1,2
 537 -229 537 -229 555 -229 c 0,3,4
 579 -229 579 -229 589.5 -217 c 128,-1,5
 600 -205 600 -205 600 -190 c 0,6,7
 600 -170 600 -170 574 -159 c 128,-1,8
 548 -148 548 -148 483 -139 c 1,9,-1
 535 -8 l 1,10,11
 418 9 418 9 328 64.5 c 128,-1,12
 238 120 238 120 176.5 204.5 c 128,-1,13
 115 289 115 289 83 398.5 c 128,-1,14
 51 508 51 508 51 634 c 0,15,16
 51 762 51 762 80 876.5 c 128,-1,17
 109 991 109 991 161 1088.5 c 128,-1,18
 213 1186 213 1186 286 1263.5 c 128,-1,19
 359 1341 359 1341 448.5 1395.5 c 128,-1,20
 538 1450 538 1450 640 1479 c 128,-1,21
 742 1508 742 1508 854 1508 c 0,22,23
 938 1508 938 1508 1007 1492.5 c 128,-1,24
 1076 1477 1076 1477 1132 1448.5 c 128,-1,25
 1188 1420 1188 1420 1232 1381 c 128,-1,26
 1276 1342 1276 1342 1309 1295 c 1,27,-1
 1192 1160 l 2,28,29
 1180 1146 1180 1146 1163.5 1134.5 c 128,-1,30
 1147 1123 1147 1123 1120 1123 c 0,31,32
 1103 1123 1103 1123 1088.5 1131.5 c 128,-1,33
 1074 1140 1074 1140 1059 1151.5 c 128,-1,34
 1044 1163 1044 1163 1026 1177.5 c 128,-1,35
 1008 1192 1008 1192 982 1203.5 c 128,-1,36
 956 1215 956 1215 921 1223.5 c 128,-1,37
 886 1232 886 1232 838 1232 c 0,38,39
 744 1232 744 1232 662.5 1192 c 128,-1,40
 581 1152 581 1152 521 1078 c 128,-1,41
 461 1004 461 1004 427 898 c 128,-1,42
 393 792 393 792 393 660 c 0,43,44
 393 565 393 565 416 490.5 c 128,-1,45
 439 416 439 416 479 364 c 128,-1,46
 519 312 519 312 574.5 285 c 128,-1,47
 630 258 630 258 694 258 c 0,48,49
 750 258 750 258 792 266.5 c 128,-1,50
 834 275 834 275 863.5 288.5 c 128,-1,51
 893 302 893 302 913.5 318 c 128,-1,52
 934 334 934 334 950.5 347 c 128,-1,53
 967 360 967 360 981 369 c 128,-1,54
 995 378 995 378 1012 378 c 256,55,56
 1028 378 1028 378 1039 372.5 c 128,-1,57
 1050 367 1050 367 1055 359 c 2,58,-1
 1171 219 l 1,59,60
 1086 119 1086 119 974.5 60.5 c 128,-1,61
 863 2 863 2 724 -12 c 1,62,-1
 711 -48 l 1,63,64
 784 -70 784 -70 812 -105 c 128,-1,65
 840 -140 840 -140 840 -182 c 0,66,67
 840 -222 840 -222 819 -254.5 c 128,-1,68
 798 -287 798 -287 761 -309.5 c 128,-1,69
 724 -332 724 -332 673 -343.5 c 128,-1,70
 622 -355 622 -355 561 -355 c 0,71,72
 522 -355 522 -355 490 -351 c 128,-1,73
 458 -347 458 -347 422 -337 c 1,74,-1
 463 -245 l 2,75,76
 468 -234 468 -234 476 -226.5 c 128,-1,77
 484 -219 484 -219 498 -219 c 0,0,1
EndSplineSet
Validated: 1
EndChar

StartChar: Eth
Encoding: 208 208 146
Width: 1492
GlyphClass: 1
Flags: W
LayerCount: 2
Fore
SplineSet
94 839 m 1,0,-1
 246 839 l 1,1,-1
 326 1492 l 1,2,-1
 862 1492 l 2,3,4
 1009 1492 1009 1492 1126.5 1442.5 c 128,-1,5
 1244 1393 1244 1393 1326 1306 c 128,-1,6
 1408 1219 1408 1219 1451.5 1100 c 128,-1,7
 1495 981 1495 981 1495 842 c 0,8,9
 1495 720 1495 720 1467.5 611 c 128,-1,10
 1440 502 1440 502 1388.5 408 c 128,-1,11
 1337 314 1337 314 1264 239 c 128,-1,12
 1191 164 1191 164 1100.5 110.5 c 128,-1,13
 1010 57 1010 57 904 28.5 c 128,-1,14
 798 0 798 0 680 0 c 2,15,-1
 143 0 l 1,16,-1
 223 656 l 1,17,-1
 70 656 l 1,18,-1
 94 839 l 1,0,-1
1153 834 m 0,19,20
 1153 925 1153 925 1132 999 c 128,-1,21
 1111 1073 1111 1073 1069.5 1125.5 c 128,-1,22
 1028 1178 1028 1178 967.5 1206.5 c 128,-1,23
 907 1235 907 1235 829 1235 c 2,24,-1
 629 1235 l 1,25,-1
 582 839 l 1,26,-1
 901 839 l 1,27,-1
 879 656 l 1,28,-1
 559 656 l 1,29,-1
 512 257 l 1,30,-1
 713 257 l 2,31,32
 815 257 815 257 896.5 297.5 c 128,-1,33
 978 338 978 338 1035 412.5 c 128,-1,34
 1092 487 1092 487 1122.5 594 c 128,-1,35
 1153 701 1153 701 1153 834 c 0,19,20
EndSplineSet
Validated: 1
EndChar

StartChar: multiply
Encoding: 215 215 153
Width: 1187
GlyphClass: 1
Flags: W
LayerCount: 2
Fore
SplineSet
1133 1009 m 1,0,-1
 773 689 l 1,1,-1
 1071 349 l 1,2,-1
 891 195 l 1,3,-1
 595 530 l 1,4,-1
 215 193 l 1,5,-1
 74 347 l 1,6,-1
 457 688 l 1,7,-1
 174 1011 l 1,8,-1
 354 1166 l 1,9,-1
 635 847 l 1,10,-1
 991 1164 l 1,11,-1
 1133 1009 l 1,0,-1
EndSplineSet
Validated: 1
EndChar

StartChar: Oslash
Encoding: 216 216 154
Width: 1499
GlyphClass: 1
Flags: W
LayerCount: 2
Fore
SplineSet
1503 842 m 0,0,1
 1503 721 1503 721 1475 610.5 c 128,-1,2
 1447 500 1447 500 1395 404.5 c 128,-1,3
 1343 309 1343 309 1270 231.5 c 128,-1,4
 1197 154 1197 154 1106 99 c 128,-1,5
 1015 44 1015 44 908.5 14 c 128,-1,6
 802 -16 802 -16 684 -16 c 0,7,8
 598 -16 598 -16 522.5 1 c 128,-1,9
 447 18 447 18 383 51 c 1,10,-1
 319 -30 l 2,11,12
 300 -55 300 -55 276.5 -71 c 128,-1,13
 253 -87 253 -87 228 -97.5 c 128,-1,14
 203 -108 203 -108 177.5 -112 c 128,-1,15
 152 -116 152 -116 129 -116 c 2,16,-1
 -2 -116 l 1,17,-1
 224 172 l 1,18,19
 140 263 140 263 95.5 385 c 128,-1,20
 51 507 51 507 51 649 c 0,21,22
 51 770 51 770 79.5 881 c 128,-1,23
 108 992 108 992 159.5 1087.5 c 128,-1,24
 211 1183 211 1183 284.5 1260.5 c 128,-1,25
 358 1338 358 1338 449.5 1393 c 128,-1,26
 541 1448 541 1448 647.5 1478 c 128,-1,27
 754 1508 754 1508 872 1508 c 0,28,29
 968 1508 968 1508 1051.5 1485.5 c 128,-1,30
 1135 1463 1135 1463 1204 1421 c 1,31,-1
 1249 1479 l 2,32,33
 1266 1502 1266 1502 1281 1517 c 128,-1,34
 1296 1532 1296 1532 1312.5 1541 c 128,-1,35
 1329 1550 1329 1550 1348.5 1554 c 128,-1,36
 1368 1558 1368 1558 1395 1558 c 2,37,-1
 1565 1558 l 1,38,-1
 1355 1290 l 1,39,40
 1428 1201 1428 1201 1465.5 1087 c 128,-1,41
 1503 973 1503 973 1503 842 c 0,0,1
393 656 m 0,42,43
 393 530 393 530 433 438 c 1,44,-1
 1018 1185 l 1,45,46
 980 1213 980 1213 933.5 1227.5 c 128,-1,47
 887 1242 887 1242 831 1242 c 0,48,49
 729 1242 729 1242 648 1199.5 c 128,-1,50
 567 1157 567 1157 510.5 1080.5 c 128,-1,51
 454 1004 454 1004 423.5 895.5 c 128,-1,52
 393 787 393 787 393 656 c 0,42,43
1161 834 m 0,53,54
 1161 883 1161 883 1154.5 927.5 c 128,-1,55
 1148 972 1148 972 1136 1011 c 1,56,-1
 566 286 l 1,57,58
 633 250 633 250 721 250 c 0,59,60
 823 250 823 250 904.5 292 c 128,-1,61
 986 334 986 334 1043 410.5 c 128,-1,62
 1100 487 1100 487 1130.5 595 c 128,-1,63
 1161 703 1161 703 1161 834 c 0,53,54
EndSplineSet
Validated: 1
EndChar

StartChar: Thorn
Encoding: 222 222 160
Width: 1208
GlyphClass: 1
Flags: W
LayerCount: 2
Fore
SplineSet
592 1245 m 1,0,-1
 754 1245 l 2,1,2
 886 1245 886 1245 980.5 1213 c 128,-1,3
 1075 1181 1075 1181 1136.5 1125 c 128,-1,4
 1198 1069 1198 1069 1226.5 992.5 c 128,-1,5
 1255 916 1255 916 1255 827 c 0,6,7
 1255 704 1255 704 1218 600.5 c 128,-1,8
 1181 497 1181 497 1104 421 c 128,-1,9
 1027 345 1027 345 909.5 302.5 c 128,-1,10
 792 260 792 260 631 260 c 2,11,-1
 470 260 l 1,12,-1
 438 0 l 1,13,-1
 106 0 l 1,14,-1
 289 1492 l 1,15,-1
 623 1492 l 1,16,-1
 592 1245 l 1,0,-1
561 996 m 1,17,-1
 501 511 l 1,18,-1
 664 511 l 2,19,20
 736 511 736 511 784.5 532 c 128,-1,21
 833 553 833 553 863 591.5 c 128,-1,22
 893 630 893 630 906.5 683 c 128,-1,23
 920 736 920 736 920 800 c 0,24,25
 920 844 920 844 908 879.5 c 128,-1,26
 896 915 896 915 871.5 941.5 c 128,-1,27
 847 968 847 968 809.5 982 c 128,-1,28
 772 996 772 996 721 996 c 2,29,-1
 561 996 l 1,17,-1
EndSplineSet
Validated: 1
EndChar

StartChar: germandbls
Encoding: 223 223 161
Width: 1243
GlyphClass: 1
Flags: W
LayerCount: 2
Fore
SplineSet
804 1519 m 0,0,1
 920 1519 920 1519 997.5 1485 c 128,-1,2
 1075 1451 1075 1451 1122 1400.5 c 128,-1,3
 1169 1350 1169 1350 1189 1291.5 c 128,-1,4
 1209 1233 1209 1233 1209 1183 c 0,5,6
 1209 1116 1209 1116 1189 1070 c 128,-1,7
 1169 1024 1169 1024 1139.5 991 c 128,-1,8
 1110 958 1110 958 1075 934.5 c 128,-1,9
 1040 911 1040 911 1010.5 890 c 128,-1,10
 981 869 981 869 961 846.5 c 128,-1,11
 941 824 941 824 941 794 c 0,12,13
 941 767 941 767 960.5 745.5 c 128,-1,14
 980 724 980 724 1008.5 701.5 c 128,-1,15
 1037 679 1037 679 1071 653.5 c 128,-1,16
 1105 628 1105 628 1133.5 592 c 128,-1,17
 1162 556 1162 556 1181.5 508.5 c 128,-1,18
 1201 461 1201 461 1201 395 c 0,19,20
 1201 292 1201 292 1163 214.5 c 128,-1,21
 1125 137 1125 137 1062.5 86 c 128,-1,22
 1000 35 1000 35 921 9.5 c 128,-1,23
 842 -16 842 -16 759 -16 c 0,24,25
 717 -16 717 -16 675 -6 c 128,-1,26
 633 4 633 4 594 21.5 c 128,-1,27
 555 39 555 39 521 63 c 128,-1,28
 487 87 487 87 462 115 c 1,29,-1
 548 227 l 2,30,31
 562 245 562 245 582 257 c 128,-1,32
 602 269 602 269 630 269 c 0,33,34
 656 269 656 269 675 257 c 128,-1,35
 694 245 694 245 713.5 229.5 c 128,-1,36
 733 214 733 214 756 201.5 c 128,-1,37
 779 189 779 189 812 189 c 0,38,39
 829 189 829 189 846.5 198.5 c 128,-1,40
 864 208 864 208 878 225 c 128,-1,41
 892 242 892 242 900 265 c 128,-1,42
 908 288 908 288 908 315 c 0,43,44
 908 352 908 352 886 379 c 128,-1,45
 864 406 864 406 831.5 429 c 128,-1,46
 799 452 799 452 760 475.5 c 128,-1,47
 721 499 721 499 688 530 c 128,-1,48
 655 561 655 561 633 603 c 128,-1,49
 611 645 611 645 611 706 c 0,50,51
 611 779 611 779 633.5 828.5 c 128,-1,52
 656 878 656 878 689.5 914 c 128,-1,53
 723 950 723 950 762 977.5 c 128,-1,54
 801 1005 801 1005 834 1033 c 128,-1,55
 867 1061 867 1061 889.5 1093.5 c 128,-1,56
 912 1126 912 1126 912 1175 c 0,57,58
 912 1233 912 1233 876 1269 c 128,-1,59
 840 1305 840 1305 763 1305 c 0,60,61
 704 1305 704 1305 659 1269.5 c 128,-1,62
 614 1234 614 1234 582.5 1177 c 128,-1,63
 551 1120 551 1120 531.5 1048 c 128,-1,64
 512 976 512 976 503 902 c 2,65,-1
 400 51 l 1,66,-1
 345 -127 l 2,67,68
 327 -186 327 -186 289 -219 c 128,-1,69
 251 -252 251 -252 181 -252 c 2,70,-1
 52 -252 l 1,71,-1
 185 844 l 1,72,-1
 108 862 l 2,73,74
 77 869 77 869 58 883.5 c 128,-1,75
 39 898 39 898 39 925 c 0,76,77
 39 926 39 926 39.5 929 c 128,-1,78
 40 932 40 932 41.5 944.5 c 128,-1,79
 43 957 43 957 46 983.5 c 128,-1,80
 49 1010 49 1010 54 1056 c 1,81,-1
 227 1056 l 1,82,83
 258 1147 258 1147 312.5 1230.5 c 128,-1,84
 367 1314 367 1314 440.5 1378 c 128,-1,85
 514 1442 514 1442 606 1480.5 c 128,-1,86
 698 1519 698 1519 804 1519 c 0,0,1
EndSplineSet
Validated: 1
EndChar

StartChar: ae
Encoding: 230 230 168
Width: 1508
GlyphClass: 1
Flags: W
LayerCount: 2
Fore
SplineSet
1149 1076 m 0,0,1
 1218 1076 1218 1076 1277.5 1053.5 c 128,-1,2
 1337 1031 1337 1031 1381.5 992 c 128,-1,3
 1426 953 1426 953 1451.5 901.5 c 128,-1,4
 1477 850 1477 850 1477 792 c 0,5,6
 1477 755 1477 755 1467.5 716.5 c 128,-1,7
 1458 678 1458 678 1433.5 641.5 c 128,-1,8
 1409 605 1409 605 1367 573 c 128,-1,9
 1325 541 1325 541 1259 515 c 128,-1,10
 1193 489 1193 489 1101 472.5 c 128,-1,11
 1009 456 1009 456 885 452 c 1,12,13
 888 330 888 330 936 275.5 c 128,-1,14
 984 221 984 221 1071 221 c 0,15,16
 1113 221 1113 221 1144 228.5 c 128,-1,17
 1175 236 1175 236 1198 247 c 128,-1,18
 1221 258 1221 258 1239 270.5 c 128,-1,19
 1257 283 1257 283 1274 294 c 128,-1,20
 1291 305 1291 305 1309.5 312 c 128,-1,21
 1328 319 1328 319 1352 319 c 0,22,23
 1367 319 1367 319 1381.5 311.5 c 128,-1,24
 1396 304 1396 304 1407 292 c 2,25,-1
 1489 197 l 1,26,27
 1433 142 1433 142 1379 101 c 128,-1,28
 1325 60 1325 60 1268 34 c 128,-1,29
 1211 8 1211 8 1147 -4 c 128,-1,30
 1083 -16 1083 -16 1008 -16 c 0,31,32
 914 -16 914 -16 832 28.5 c 128,-1,33
 750 73 750 73 697 168 c 1,34,35
 661 120 661 120 617.5 85 c 128,-1,36
 574 50 574 50 525.5 27.5 c 128,-1,37
 477 5 477 5 425.5 -5.5 c 128,-1,38
 374 -16 374 -16 324 -16 c 0,39,40
 158 -16 158 -16 79 52.5 c 128,-1,41
 0 121 0 121 0 243 c 0,42,43
 0 286 0 286 12 331.5 c 128,-1,44
 24 377 24 377 51.5 419.5 c 128,-1,45
 79 462 79 462 125 500.5 c 128,-1,46
 171 539 171 539 239 568 c 128,-1,47
 307 597 307 597 400 615.5 c 128,-1,48
 493 634 493 634 614 637 c 1,49,50
 619 670 619 670 620.5 684 c 128,-1,51
 622 698 622 698 622 710 c 0,52,53
 622 781 622 781 592.5 813 c 128,-1,54
 563 845 563 845 510 845 c 0,55,56
 459 845 459 845 425.5 832 c 128,-1,57
 392 819 392 819 364.5 804.5 c 128,-1,58
 337 790 337 790 311 777 c 128,-1,59
 285 764 285 764 250 764 c 0,60,61
 219 764 219 764 198.5 779.5 c 128,-1,62
 178 795 178 795 168 817 c 2,63,-1
 125 913 l 1,64,65
 224 997 224 997 326.5 1038.5 c 128,-1,66
 429 1080 429 1080 545 1080 c 0,67,68
 650 1080 650 1080 715.5 1043 c 128,-1,69
 781 1006 781 1006 814 940 c 1,70,71
 879 1005 879 1005 962.5 1040.5 c 128,-1,72
 1046 1076 1046 1076 1149 1076 c 0,0,1
592 457 m 1,73,74
 499 452 499 452 441 436 c 128,-1,75
 383 420 383 420 350.5 396.5 c 128,-1,76
 318 373 318 373 306.5 342.5 c 128,-1,77
 295 312 295 312 295 280 c 0,78,79
 295 186 295 186 383 185 c 0,80,81
 421 185 421 185 455 198.5 c 128,-1,82
 489 212 489 212 516.5 241.5 c 128,-1,83
 544 271 544 271 563 319 c 128,-1,84
 582 367 582 367 590 435 c 2,85,-1
 592 457 l 1,73,74
1108 864 m 0,86,87
 1063 864 1063 864 1027.5 847 c 128,-1,88
 992 830 992 830 966 799 c 128,-1,89
 940 768 940 768 922.5 724 c 128,-1,90
 905 680 905 680 896 626 c 1,91,92
 994 635 994 635 1054 651 c 128,-1,93
 1114 667 1114 667 1146.5 686.5 c 128,-1,94
 1179 706 1179 706 1189.5 729 c 128,-1,95
 1200 752 1200 752 1200 776 c 0,96,97
 1200 812 1200 812 1179.5 838 c 128,-1,98
 1159 864 1159 864 1108 864 c 0,86,87
EndSplineSet
Validated: 1
EndChar

StartChar: ccedilla
Encoding: 231 231 169
Width: 897
GlyphClass: 1
Flags: W
LayerCount: 2
Fore
SplineSet
300 -219 m 0,0,1
 315 -219 315 -219 327 -224 c 128,-1,2
 339 -229 339 -229 357 -229 c 0,3,4
 381 -229 381 -229 391.5 -217 c 128,-1,5
 402 -205 402 -205 402 -190 c 0,6,7
 402 -170 402 -170 376 -159 c 128,-1,8
 350 -148 350 -148 286 -139 c 1,9,-1
 338 -4 l 1,10,11
 269 12 269 12 214.5 50 c 128,-1,12
 160 88 160 88 121.5 144 c 128,-1,13
 83 200 83 200 62.5 273 c 128,-1,14
 42 346 42 346 42 433 c 0,15,16
 42 563 42 563 84.5 680 c 128,-1,17
 127 797 127 797 203.5 885 c 128,-1,18
 280 973 280 973 384 1024.5 c 128,-1,19
 488 1076 488 1076 613 1076 c 0,20,21
 719 1076 719 1076 795.5 1040 c 128,-1,22
 872 1004 872 1004 933 926 c 1,23,-1
 830 808 l 2,24,25
 819 797 819 797 805 788 c 128,-1,26
 791 779 791 779 773 779 c 0,27,28
 753 779 753 779 739 788 c 128,-1,29
 725 797 725 797 708.5 806.5 c 128,-1,30
 692 816 692 816 668.5 825 c 128,-1,31
 645 834 645 834 607 834 c 0,32,33
 560 834 560 834 515.5 806.5 c 128,-1,34
 471 779 471 779 436 728 c 128,-1,35
 401 677 401 677 380 602 c 128,-1,36
 359 527 359 527 359 432 c 0,37,38
 359 379 359 379 371.5 339.5 c 128,-1,39
 384 300 384 300 405.5 274 c 128,-1,40
 427 248 427 248 455.5 234.5 c 128,-1,41
 484 221 484 221 517 221 c 0,42,43
 566 221 566 221 596.5 235 c 128,-1,44
 627 249 627 249 649.5 265.5 c 128,-1,45
 672 282 672 282 691.5 295.5 c 128,-1,46
 711 309 711 309 738 309 c 0,47,48
 753 309 753 309 768 302 c 128,-1,49
 783 295 783 295 794 283 c 2,50,-1
 876 186 l 1,51,52
 833 138 833 138 792.5 103 c 128,-1,53
 752 68 752 68 710.5 44 c 128,-1,54
 669 20 669 20 624 6.5 c 128,-1,55
 579 -7 579 -7 526 -12 c 1,56,-1
 513 -48 l 1,57,58
 586 -70 586 -70 614 -105 c 128,-1,59
 642 -140 642 -140 642 -182 c 0,60,61
 642 -222 642 -222 621 -254.5 c 128,-1,62
 600 -287 600 -287 563 -309.5 c 128,-1,63
 526 -332 526 -332 475 -343.5 c 128,-1,64
 424 -355 424 -355 364 -355 c 0,65,66
 325 -355 325 -355 292.5 -351 c 128,-1,67
 260 -347 260 -347 224 -337 c 1,68,-1
 265 -245 l 2,69,70
 270 -234 270 -234 278 -226.5 c 128,-1,71
 286 -219 286 -219 300 -219 c 0,0,1
EndSplineSet
Validated: 1
EndChar

StartChar: eth
Encoding: 240 240 178
Width: 1093
GlyphClass: 1
Flags: W
LayerCount: 2
Fore
SplineSet
415 1082 m 2,0,1
 407 1094 407 1094 407 1111 c 0,2,3
 407 1125 407 1125 414.5 1137 c 128,-1,4
 422 1149 422 1149 433 1156 c 2,5,-1
 540 1218 l 1,6,7
 513 1230 513 1230 484.5 1240.5 c 128,-1,8
 456 1251 456 1251 424 1263 c 0,9,10
 362 1283 362 1283 361 1329 c 0,11,12
 361 1341 361 1341 365.5 1354.5 c 128,-1,13
 370 1368 370 1368 378 1383 c 2,14,-1
 425 1478 l 1,15,16
 527 1461 527 1461 618 1425.5 c 128,-1,17
 709 1390 709 1390 785 1334 c 1,18,-1
 981 1444 l 1,19,-1
 1032 1347 l 2,20,21
 1040 1331 1040 1331 1040 1315 c 0,22,23
 1040 1301 1040 1301 1033 1288.5 c 128,-1,24
 1026 1276 1026 1276 1009 1266 c 2,25,-1
 915 1211 l 1,26,27
 986 1123 986 1123 1025 1007.5 c 128,-1,28
 1064 892 1064 892 1064 745 c 0,29,30
 1064 567 1064 567 1023 426 c 128,-1,31
 982 285 982 285 905 186.5 c 128,-1,32
 828 88 828 88 717.5 36 c 128,-1,33
 607 -16 607 -16 468 -16 c 0,34,35
 374 -16 374 -16 295.5 14 c 128,-1,36
 217 44 217 44 160.5 100.5 c 128,-1,37
 104 157 104 157 73 238 c 128,-1,38
 42 319 42 319 42 421 c 0,39,40
 42 530 42 530 80.5 627.5 c 128,-1,41
 119 725 119 725 186.5 798 c 128,-1,42
 254 871 254 871 345.5 914 c 128,-1,43
 437 957 437 957 544 957 c 0,44,45
 637 957 637 957 705 924 c 128,-1,46
 773 891 773 891 820 827 c 1,47,48
 815 917 815 917 787 988 c 128,-1,49
 759 1059 759 1059 699 1115 c 1,50,-1
 472 983 l 1,51,-1
 415 1082 l 2,0,1
505 210 m 0,52,53
 545 210 545 210 584.5 227.5 c 128,-1,54
 624 245 624 245 658 287 c 128,-1,55
 692 329 692 329 719 399.5 c 128,-1,56
 746 470 746 470 762 578 c 1,57,58
 752 611 752 611 737 639 c 128,-1,59
 722 667 722 667 699.5 688 c 128,-1,60
 677 709 677 709 647 720.5 c 128,-1,61
 617 732 617 732 579 732 c 0,62,63
 525 732 525 732 481.5 709 c 128,-1,64
 438 686 438 686 408 646 c 128,-1,65
 378 606 378 606 361.5 552 c 128,-1,66
 345 498 345 498 345 434 c 0,67,68
 345 325 345 325 389.5 267.5 c 128,-1,69
 434 210 434 210 505 210 c 0,52,53
EndSplineSet
Validated: 1
EndChar

StartChar: divide
Encoding: 247 247 185
Width: 1187
GlyphClass: 1
Flags: W
LayerCount: 2
Fore
SplineSet
125 798 m 1,0,-1
 1137 798 l 1,1,-1
 1108 579 l 1,2,-1
 96 579 l 1,3,-1
 125 798 l 1,0,-1
483 1032 m 0,4,5
 483 1072 483 1072 499 1107 c 128,-1,6
 515 1142 515 1142 542 1168 c 128,-1,7
 569 1194 569 1194 605 1209 c 128,-1,8
 641 1224 641 1224 682 1224 c 0,9,10
 716 1224 716 1224 744.5 1212 c 128,-1,11
 773 1200 773 1200 793.5 1179 c 128,-1,12
 814 1158 814 1158 826 1130 c 128,-1,13
 838 1102 838 1102 838 1070 c 0,14,15
 838 1030 838 1030 821.5 995.5 c 128,-1,16
 805 961 805 961 777.5 935.5 c 128,-1,17
 750 910 750 910 714 896 c 128,-1,18
 678 882 678 882 639 882 c 0,19,20
 604 882 604 882 575.5 893.5 c 128,-1,21
 547 905 547 905 526.5 925 c 128,-1,22
 506 945 506 945 494.5 972.5 c 128,-1,23
 483 1000 483 1000 483 1032 c 0,4,5
393 303 m 0,24,25
 393 343 393 343 409 378 c 128,-1,26
 425 413 425 413 452 439 c 128,-1,27
 479 465 479 465 515 480 c 128,-1,28
 551 495 551 495 592 495 c 0,29,30
 626 495 626 495 654.5 483 c 128,-1,31
 683 471 683 471 703.5 450 c 128,-1,32
 724 429 724 429 736 401 c 128,-1,33
 748 373 748 373 748 341 c 0,34,35
 748 301 748 301 731.5 266 c 128,-1,36
 715 231 715 231 687 206 c 128,-1,37
 659 181 659 181 623.5 167 c 128,-1,38
 588 153 588 153 549 153 c 0,39,40
 514 153 514 153 485.5 164.5 c 128,-1,41
 457 176 457 176 436.5 196 c 128,-1,42
 416 216 416 216 404.5 243.5 c 128,-1,43
 393 271 393 271 393 303 c 0,24,25
EndSplineSet
Validated: 1
EndChar

StartChar: oslash
Encoding: 248 248 186
Width: 1058
GlyphClass: 1
Flags: W
LayerCount: 2
Fore
SplineSet
454 -16 m 0,0,1
 344 -16 344 -16 254 28 c 1,2,3
 217 -11 217 -11 170.5 -27.5 c 128,-1,4
 124 -44 124 -44 79 -44 c 2,5,-1
 -36 -44 l 1,6,-1
 109 153 l 1,7,8
 72 207 72 207 52 276.5 c 128,-1,9
 32 346 32 346 32 432 c 0,10,11
 32 573 32 573 78.5 691.5 c 128,-1,12
 125 810 125 810 204 896 c 128,-1,13
 283 982 283 982 386.5 1030 c 128,-1,14
 490 1078 490 1078 605 1078 c 0,15,16
 713 1078 713 1078 804 1034 c 1,17,18
 819 1054 819 1054 832.5 1068.5 c 128,-1,19
 846 1083 846 1083 861.5 1092.5 c 128,-1,20
 877 1102 877 1102 895.5 1106 c 128,-1,21
 914 1110 914 1110 941 1110 c 2,22,-1
 1097 1110 l 1,23,-1
 949 909 l 1,24,25
 986 855 986 855 1006.5 785.5 c 128,-1,26
 1027 716 1027 716 1027 630 c 0,27,28
 1027 491 1027 491 980.5 372.5 c 128,-1,29
 934 254 934 254 855 167.5 c 128,-1,30
 776 81 776 81 672.5 32.5 c 128,-1,31
 569 -16 569 -16 454 -16 c 0,0,1
482 200 m 0,32,33
 535 200 535 200 580.5 230 c 128,-1,34
 626 260 626 260 659 315.5 c 128,-1,35
 692 371 692 371 711 450 c 128,-1,36
 730 529 730 529 730 628 c 0,37,38
 730 633 730 633 729.5 637 c 128,-1,39
 729 641 729 641 729 646 c 1,40,-1
 419 214 l 1,41,42
 447 200 447 200 482 200 c 0,32,33
329 417 m 1,43,-1
 637 849 l 1,44,45
 608 862 608 862 577 862 c 0,46,47
 524 862 524 862 478.5 832.5 c 128,-1,48
 433 803 433 803 400 747.5 c 128,-1,49
 367 692 367 692 348 613 c 128,-1,50
 329 534 329 534 329 434 c 2,51,-1
 329 417 l 1,43,-1
EndSplineSet
Validated: 1
EndChar

StartChar: thorn
Encoding: 254 254 192
Width: 1116
GlyphClass: 1
Flags: W
LayerCount: 2
Fore
SplineSet
3 -337 m 1,0,-1
 230 1533 l 1,1,-1
 544 1533 l 1,2,-1
 465 897 l 1,3,4
 535 981 535 981 617.5 1029.5 c 128,-1,5
 700 1078 700 1078 794 1078 c 0,6,7
 860 1078 860 1078 914 1055 c 128,-1,8
 968 1032 968 1032 1007.5 983 c 128,-1,9
 1047 934 1047 934 1069 857.5 c 128,-1,10
 1091 781 1091 781 1091 676 c 0,11,12
 1091 537 1091 537 1048.5 411.5 c 128,-1,13
 1006 286 1006 286 934 190.5 c 128,-1,14
 862 95 862 95 768.5 39.5 c 128,-1,15
 675 -16 675 -16 572 -16 c 0,16,17
 505 -16 505 -16 453 5.5 c 128,-1,18
 401 27 401 27 361 62 c 1,19,-1
 325 -237 l 2,20,21
 323 -256 323 -256 313 -274 c 128,-1,22
 303 -292 303 -292 287 -305.5 c 128,-1,23
 271 -319 271 -319 249 -328 c 128,-1,24
 227 -337 227 -337 202 -337 c 2,25,-1
 3 -337 l 1,0,-1
667 838 m 0,26,27
 634 838 634 838 598 812.5 c 128,-1,28
 562 787 562 787 529 743.5 c 128,-1,29
 496 700 496 700 466.5 642 c 128,-1,30
 437 584 437 584 418 517 c 1,31,-1
 386 261 l 1,32,33
 416 237 416 237 452 227 c 128,-1,34
 488 217 488 217 521 217 c 0,35,36
 576 217 576 217 623 254 c 128,-1,37
 670 291 670 291 703.5 351 c 128,-1,38
 737 411 737 411 756 487.5 c 128,-1,39
 775 564 775 564 775 644 c 0,40,41
 775 745 775 745 745.5 791.5 c 128,-1,42
 716 838 716 838 667 838 c 0,26,27
EndSplineSet
Validated: 1
EndChar

StartChar: Aogonek
Encoding: 260 260 194
Width: 1357
GlyphClass: 1
Flags: W
LayerCount: 2
Fore
SplineSet
1268 -175 m 0,0,1
 1290 -175 1290 -175 1292 -195 c 2,2,-1
 1323 -304 l 1,3,4
 1287 -326 1287 -326 1235.5 -340.5 c 128,-1,5
 1184 -355 1184 -355 1128 -355 c 0,6,7
 1032 -355 1032 -355 985 -316.5 c 128,-1,8
 938 -278 938 -278 938 -219 c 0,9,10
 938 -162 938 -162 975.5 -105.5 c 128,-1,11
 1013 -49 1013 -49 1098 0 c 1,12,-1
 1061 0 l 2,13,14
 1018 0 1018 0 992 20 c 128,-1,15
 966 40 966 40 961 73 c 2,16,-1
 914 341 l 1,17,-1
 408 341 l 1,18,-1
 297 73 l 2,19,20
 286 44 286 44 253 22 c 128,-1,21
 220 0 220 0 180 0 c 2,22,-1
 -82 0 l 1,23,-1
 631 1492 l 1,24,-1
 973 1492 l 1,25,-1
 1319 0 l 1,26,-1
 1276 0 l 1,27,28
 1233 -24 1233 -24 1203.5 -58.5 c 128,-1,29
 1174 -93 1174 -93 1174 -137 c 0,30,31
 1174 -157 1174 -157 1184 -170.5 c 128,-1,32
 1194 -184 1194 -184 1214 -184 c 0,33,34
 1242 -184 1242 -184 1250.5 -179.5 c 128,-1,35
 1259 -175 1259 -175 1268 -175 c 0,0,1
501 568 m 1,36,-1
 876 568 l 1,37,-1
 803 994 l 2,38,39
 795 1037 795 1037 784.5 1090.5 c 128,-1,40
 774 1144 774 1144 764 1203 c 1,41,42
 741 1143 741 1143 718.5 1089 c 128,-1,43
 696 1035 696 1035 676 992 c 2,44,-1
 501 568 l 1,36,-1
EndSplineSet
Validated: 1
EndChar

StartChar: aogonek
Encoding: 261 261 195
Width: 1097
GlyphClass: 1
Flags: W
LayerCount: 2
Fore
SplineSet
880 -175 m 0,0,1
 902 -175 902 -175 904 -195 c 2,2,-1
 935 -304 l 1,3,4
 899 -326 899 -326 847.5 -340.5 c 128,-1,5
 796 -355 796 -355 740 -355 c 0,6,7
 644 -355 644 -355 597 -316.5 c 128,-1,8
 550 -278 550 -278 550 -219 c 256,9,10
 550 -161 550 -161 588.5 -104 c 128,-1,11
 627 -47 627 -47 715 3 c 1,12,13
 675 11 675 11 660.5 38 c 128,-1,14
 646 65 646 65 646 100 c 2,15,-1
 646 176 l 1,16,17
 580 86 580 86 500.5 35 c 128,-1,18
 421 -16 421 -16 325 -16 c 0,19,20
 268 -16 268 -16 214.5 7 c 128,-1,21
 161 30 161 30 120 76.5 c 128,-1,22
 79 123 79 123 54.5 195 c 128,-1,23
 30 267 30 267 30 366 c 0,24,25
 30 510 30 510 82.5 639.5 c 128,-1,26
 135 769 135 769 230 866.5 c 128,-1,27
 325 964 325 964 455 1021 c 128,-1,28
 585 1078 585 1078 740 1078 c 0,29,30
 816 1078 816 1078 894 1068 c 128,-1,31
 972 1058 972 1058 1048 1031 c 1,32,-1
 919 0 l 1,33,-1
 888 0 l 1,34,35
 845 -24 845 -24 815 -58.5 c 128,-1,36
 785 -93 785 -93 785 -137 c 0,37,38
 785 -157 785 -157 795.5 -170.5 c 128,-1,39
 806 -184 806 -184 826 -184 c 0,40,41
 854 -184 854 -184 862.5 -179.5 c 128,-1,42
 871 -175 871 -175 880 -175 c 0,0,1
452 234 m 0,43,44
 487 234 487 234 519.5 260.5 c 128,-1,45
 552 287 552 287 581 332 c 128,-1,46
 610 377 610 377 634.5 437.5 c 128,-1,47
 659 498 659 498 677 566 c 1,48,-1
 714 860 l 1,49,-1
 695 860 l 2,50,51
 617 860 617 860 553 825.5 c 128,-1,52
 489 791 489 791 443 731 c 128,-1,53
 397 671 397 671 372 591.5 c 128,-1,54
 347 512 347 512 347 422 c 0,55,56
 347 371 347 371 355.5 335 c 128,-1,57
 364 299 364 299 377.5 277 c 128,-1,58
 391 255 391 255 410 244.5 c 128,-1,59
 429 234 429 234 452 234 c 0,43,44
EndSplineSet
Validated: 1
EndChar

StartChar: Eogonek
Encoding: 280 280 198
Width: 1060
GlyphClass: 1
Flags: W
LayerCount: 2
Fore
SplineSet
829 -175 m 0,0,1
 851 -175 851 -175 854 -195 c 2,2,-1
 885 -304 l 1,3,4
 849 -326 849 -326 797 -340.5 c 128,-1,5
 745 -355 745 -355 690 -355 c 0,6,7
 594 -355 594 -355 547 -316.5 c 128,-1,8
 500 -278 500 -278 500 -219 c 0,9,10
 500 -162 500 -162 537 -105.5 c 128,-1,11
 574 -49 574 -49 659 0 c 1,12,-1
 45 0 l 1,13,-1
 229 1492 l 1,14,-1
 1118 1492 l 1,15,-1
 1085 1235 l 1,16,-1
 534 1235 l 1,17,-1
 488 874 l 1,18,-1
 911 874 l 1,19,-1
 879 627 l 1,20,-1
 458 627 l 1,21,-1
 413 257 l 1,22,-1
 969 257 l 1,23,-1
 936 0 l 1,24,-1
 838 0 l 1,25,26
 795 -24 795 -24 765 -58.5 c 128,-1,27
 735 -93 735 -93 735 -137 c 0,28,29
 735 -157 735 -157 745.5 -170.5 c 128,-1,30
 756 -184 756 -184 776 -184 c 0,31,32
 804 -184 804 -184 812 -179.5 c 128,-1,33
 820 -175 820 -175 829 -175 c 0,0,1
EndSplineSet
Validated: 1
EndChar

StartChar: eogonek
Encoding: 281 281 199
Width: 991
GlyphClass: 1
Flags: W
LayerCount: 2
Fore
SplineSet
609 -175 m 0,0,1
 631 -175 631 -175 634 -195 c 2,2,-1
 665 -304 l 1,3,4
 629 -326 629 -326 577 -340.5 c 128,-1,5
 525 -355 525 -355 470 -355 c 0,6,7
 374 -355 374 -355 327 -316.5 c 128,-1,8
 280 -278 280 -278 280 -219 c 0,9,10
 280 -165 280 -165 311.5 -112.5 c 128,-1,11
 343 -60 343 -60 417 -13 c 1,12,13
 333 -4 333 -4 264 31.5 c 128,-1,14
 195 67 195 67 145.5 124.5 c 128,-1,15
 96 182 96 182 69 260.5 c 128,-1,16
 42 339 42 339 42 433 c 0,17,18
 42 518 42 518 61 599 c 128,-1,19
 80 680 80 680 115.5 751 c 128,-1,20
 151 822 151 822 202 882 c 128,-1,21
 253 942 253 942 317 985 c 128,-1,22
 381 1028 381 1028 457.5 1052 c 128,-1,23
 534 1076 534 1076 620 1076 c 0,24,25
 705 1076 705 1076 771 1051.5 c 128,-1,26
 837 1027 837 1027 882 987.5 c 128,-1,27
 927 948 927 948 950.5 899 c 128,-1,28
 974 850 974 850 974 801 c 0,29,30
 974 728 974 728 945 667.5 c 128,-1,31
 916 607 916 607 845 560.5 c 128,-1,32
 774 514 774 514 654 481.5 c 128,-1,33
 534 449 534 449 351 430 c 1,34,35
 353 321 353 321 398.5 271 c 128,-1,36
 444 221 444 221 534 221 c 0,37,38
 576 221 576 221 606.5 228.5 c 128,-1,39
 637 236 637 236 660 247 c 128,-1,40
 683 258 683 258 701.5 270.5 c 128,-1,41
 720 283 720 283 737 294 c 128,-1,42
 754 305 754 305 772.5 312 c 128,-1,43
 791 319 791 319 814 319 c 0,44,45
 829 319 829 319 843.5 311.5 c 128,-1,46
 858 304 858 304 869 292 c 2,47,-1
 951 197 l 1,48,49
 867 114 867 114 787.5 65 c 128,-1,50
 708 16 708 16 611 -3 c 1,51,52
 570 -27 570 -27 542.5 -60.5 c 128,-1,53
 515 -94 515 -94 515 -137 c 0,54,55
 515 -157 515 -157 525.5 -170.5 c 128,-1,56
 536 -184 536 -184 556 -184 c 0,57,58
 584 -184 584 -184 592 -179.5 c 128,-1,59
 600 -175 600 -175 609 -175 c 0,0,1
601 862 m 0,60,61
 522 862 522 862 462.5 799 c 128,-1,62
 403 736 403 736 374 627 c 1,63,64
 473 642 473 642 534.5 659 c 128,-1,65
 596 676 596 676 630 696 c 128,-1,66
 664 716 664 716 675.5 739 c 128,-1,67
 687 762 687 762 687 788 c 256,68,69
 687 815 687 815 666.5 838.5 c 128,-1,70
 646 862 646 862 601 862 c 0,60,61
EndSplineSet
Validated: 1
EndChar

StartChar: dotlessi
Encoding: 305 305 200
Width: 552
GlyphClass: 1
Flags: W
LayerCount: 2
Fore
SplineSet
497 1062 m 1,0,-1
 370 0 l 1,1,-1
 56 0 l 1,2,-1
 183 1062 l 1,3,-1
 497 1062 l 1,0,-1
EndSplineSet
Validated: 1
EndChar

StartChar: Lslash
Encoding: 321 321 201
Width: 1054
GlyphClass: 1
Flags: W
LayerCount: 2
Fore
SplineSet
571 948 m 1,0,-1
 885 1107 l 1,1,-1
 856 888 l 2,2,3
 853 865 853 865 840.5 850.5 c 128,-1,4
 828 836 828 836 811 826 c 2,5,-1
 539 682 l 1,6,-1
 487 266 l 1,7,-1
 989 266 l 1,8,-1
 956 0 l 1,9,-1
 121 0 l 1,10,-1
 185 525 l 1,11,-1
 -4 434 l 1,12,-1
 25 657 l 2,13,14
 29 695 29 695 66 713 c 2,15,-1
 218 788 l 1,16,-1
 305 1492 l 1,17,-1
 639 1492 l 1,18,-1
 571 948 l 1,0,-1
EndSplineSet
Validated: 1
EndChar

StartChar: lslash
Encoding: 322 322 202
Width: 679
GlyphClass: 1
Flags: W
LayerCount: 2
Fore
SplineSet
69 764 m 2,0,1
 69 804 69 804 105 819 c 2,2,-1
 221 866 l 1,3,-1
 302 1533 l 1,4,-1
 615 1533 l 1,5,-1
 548 977 l 1,6,-1
 693 1034 l 1,7,-1
 693 856 l 2,8,9
 693 808 693 808 652 793 c 2,10,-1
 518 737 l 1,11,-1
 429 0 l 1,12,-1
 116 0 l 1,13,-1
 191 628 l 1,14,-1
 69 580 l 1,15,-1
 69 764 l 2,0,1
EndSplineSet
Validated: 1
EndChar

StartChar: OE
Encoding: 338 338 205
Width: 1998
GlyphClass: 1
Flags: W
LayerCount: 2
Fore
SplineSet
2023 1235 m 1,0,-1
 1469 1235 l 1,1,-1
 1425 872 l 1,2,-1
 1847 872 l 1,3,-1
 1817 625 l 1,4,-1
 1395 625 l 1,5,-1
 1350 257 l 1,6,-1
 1905 257 l 1,7,-1
 1872 0 l 1,8,-1
 1022 0 l 1,9,-1
 1039 139 l 1,10,11
 951 65 951 65 843.5 24.5 c 128,-1,12
 736 -16 736 -16 612 -16 c 0,13,14
 481 -16 481 -16 376.5 34.5 c 128,-1,15
 272 85 272 85 200 173 c 128,-1,16
 128 261 128 261 89.5 381 c 128,-1,17
 51 501 51 501 51 639 c 0,18,19
 51 822 51 822 107.5 981 c 128,-1,20
 164 1140 164 1140 264 1257 c 128,-1,21
 364 1374 364 1374 500.5 1441 c 128,-1,22
 637 1508 637 1508 799 1508 c 0,23,24
 925 1508 925 1508 1021.5 1460.5 c 128,-1,25
 1118 1413 1118 1413 1186 1330 c 1,26,-1
 1206 1492 l 1,27,-1
 2056 1492 l 1,28,-1
 2023 1235 l 1,0,-1
1081 844 m 0,29,30
 1081 934 1081 934 1063.5 1008.5 c 128,-1,31
 1046 1083 1046 1083 1010.5 1137 c 128,-1,32
 975 1191 975 1191 922 1221 c 128,-1,33
 869 1251 869 1251 801 1251 c 0,34,35
 706 1251 706 1251 630 1206.5 c 128,-1,36
 554 1162 554 1162 502 1081.5 c 128,-1,37
 450 1001 450 1001 421.5 890 c 128,-1,38
 393 779 393 779 393 646 c 0,39,40
 393 557 393 557 411 482.5 c 128,-1,41
 429 408 429 408 465 354 c 128,-1,42
 501 300 501 300 554 270.5 c 128,-1,43
 607 241 607 241 678 241 c 0,44,45
 771 241 771 241 846 285.5 c 128,-1,46
 921 330 921 330 973 409.5 c 128,-1,47
 1025 489 1025 489 1053 600 c 128,-1,48
 1081 711 1081 711 1081 844 c 0,29,30
EndSplineSet
Validated: 1
EndChar

StartChar: oe
Encoding: 339 339 206
Width: 1605
GlyphClass: 1
Flags: W
LayerCount: 2
Fore
SplineSet
1262 1076 m 0,0,1
 1335 1076 1335 1076 1394.5 1056 c 128,-1,2
 1454 1036 1454 1036 1496.5 1000 c 128,-1,3
 1539 964 1539 964 1562.5 912.5 c 128,-1,4
 1586 861 1586 861 1586 799 c 0,5,6
 1586 727 1586 727 1557.5 667.5 c 128,-1,7
 1529 608 1529 608 1459.5 561.5 c 128,-1,8
 1390 515 1390 515 1271.5 482 c 128,-1,9
 1153 449 1153 449 974 430 c 1,10,11
 981 319 981 319 1028.5 270 c 128,-1,12
 1076 221 1076 221 1159 221 c 0,13,14
 1201 221 1201 221 1232 228.5 c 128,-1,15
 1263 236 1263 236 1286 247 c 128,-1,16
 1309 258 1309 258 1327.5 270.5 c 128,-1,17
 1346 283 1346 283 1362.5 294 c 128,-1,18
 1379 305 1379 305 1397.5 312 c 128,-1,19
 1416 319 1416 319 1440 319 c 0,20,21
 1455 319 1455 319 1469.5 311.5 c 128,-1,22
 1484 304 1484 304 1495 292 c 2,23,-1
 1577 197 l 1,24,25
 1521 142 1521 142 1467 101 c 128,-1,26
 1413 60 1413 60 1356 34 c 128,-1,27
 1299 8 1299 8 1235 -4 c 128,-1,28
 1171 -16 1171 -16 1096 -16 c 0,29,30
 1005 -16 1005 -16 925.5 26 c 128,-1,31
 846 68 846 68 794 157 c 1,32,33
 717 74 717 74 616.5 29 c 128,-1,34
 516 -16 516 -16 398 -16 c 0,35,36
 311 -16 311 -16 243.5 15.5 c 128,-1,37
 176 47 176 47 129.5 101 c 128,-1,38
 83 155 83 155 59 225.5 c 128,-1,39
 35 296 35 296 35 375 c 0,40,41
 35 491 35 491 58 587.5 c 128,-1,42
 81 684 81 684 121.5 762.5 c 128,-1,43
 162 841 162 841 217 899 c 128,-1,44
 272 957 272 957 337.5 996.5 c 128,-1,45
 403 1036 403 1036 476 1056 c 128,-1,46
 549 1076 549 1076 624 1076 c 0,47,48
 718 1076 718 1076 789 1040.5 c 128,-1,49
 860 1005 860 1005 906 938 c 1,50,51
 973 1003 973 1003 1061.5 1039.5 c 128,-1,52
 1150 1076 1150 1076 1262 1076 c 0,0,1
474 211 m 0,53,54
 533 211 533 211 577 240 c 128,-1,55
 621 269 621 269 650.5 323 c 128,-1,56
 680 377 680 377 697 452.5 c 128,-1,57
 714 528 714 528 720 622 c 0,58,59
 721 634 721 634 721.5 644.5 c 128,-1,60
 722 655 722 655 722 667 c 0,61,62
 722 755 722 755 690.5 802 c 128,-1,63
 659 849 659 849 595 849 c 0,64,65
 535 849 535 849 488 815.5 c 128,-1,66
 441 782 441 782 409.5 722 c 128,-1,67
 378 662 378 662 361 578 c 128,-1,68
 344 494 344 494 344 391 c 0,69,70
 344 355 344 355 350.5 322.5 c 128,-1,71
 357 290 357 290 372 265.5 c 128,-1,72
 387 241 387 241 412 226 c 128,-1,73
 437 211 437 211 474 211 c 0,53,54
1211 864 m 0,74,75
 1129 864 1129 864 1069 801 c 128,-1,76
 1009 738 1009 738 985 614 c 1,77,78
 1086 629 1086 629 1150.5 649.5 c 128,-1,79
 1215 670 1215 670 1253 692.5 c 128,-1,80
 1291 715 1291 715 1305.5 739 c 128,-1,81
 1320 763 1320 763 1320 787 c 0,82,83
 1320 819 1320 819 1293 841.5 c 128,-1,84
 1266 864 1266 864 1211 864 c 0,74,75
EndSplineSet
Validated: 1
EndChar

StartChar: florin
Encoding: 402 402 218
Width: 1187
GlyphClass: 1
Flags: W
LayerCount: 2
Fore
SplineSet
778 748 m 1,0,-1
 614 70 l 2,1,2
 587 -41 587 -41 537.5 -120.5 c 128,-1,3
 488 -200 488 -200 412 -250.5 c 128,-1,4
 336 -301 336 -301 231 -325 c 128,-1,5
 126 -349 126 -349 -10 -349 c 1,6,-1
 10 -195 l 2,7,8
 16 -148 16 -148 42 -125 c 128,-1,9
 68 -102 68 -102 117 -102 c 0,10,11
 192 -102 192 -102 240.5 -62 c 128,-1,12
 289 -22 289 -22 313 80 c 2,13,-1
 475 743 l 1,14,-1
 375 764 l 2,15,16
 317 776 317 776 316 824 c 0,17,18
 316 832 316 832 317 837 c 2,19,-1
 332 957 l 1,20,-1
 528 957 l 1,21,-1
 563 1099 l 2,22,23
 589 1202 589 1202 638 1280.5 c 128,-1,24
 687 1359 687 1359 763.5 1412 c 128,-1,25
 840 1465 840 1465 945.5 1492 c 128,-1,26
 1051 1519 1051 1519 1188 1519 c 1,27,-1
 1167 1356 l 2,28,29
 1161 1309 1161 1309 1135.5 1290 c 128,-1,30
 1110 1271 1110 1271 1061 1271 c 0,31,32
 985 1271 985 1271 934 1230 c 128,-1,33
 883 1189 883 1189 856 1090 c 2,34,-1
 821 957 l 1,35,-1
 1104 957 l 1,36,-1
 1077 748 l 1,37,-1
 778 748 l 1,0,-1
EndSplineSet
Validated: 1
EndChar

StartChar: circumflex
Encoding: 710 710 219
Width: 626
GlyphClass: 1
Flags: W
LayerCount: 2
Fore
SplineSet
764 1196 m 1,0,-1
 561 1196 l 2,1,2
 544 1196 544 1196 528 1202 c 128,-1,3
 512 1208 512 1208 506 1217 c 2,4,-1
 440 1293 l 2,5,6
 435 1298 435 1298 429.5 1304 c 128,-1,7
 424 1310 424 1310 419 1317 c 1,8,9
 411 1310 411 1310 404 1304 c 128,-1,10
 397 1298 397 1298 391 1293 c 2,11,-1
 305 1217 l 2,12,13
 296 1209 296 1209 279 1202.5 c 128,-1,14
 262 1196 262 1196 244 1196 c 2,15,-1
 33 1196 l 1,16,-1
 291 1490 l 1,17,-1
 580 1490 l 1,18,-1
 764 1196 l 1,0,-1
EndSplineSet
Validated: 1
Substitution2: "'case' Case-Sensitive Forms in Latin lookup 0 subtable" circumflex.case
EndChar

StartChar: caron
Encoding: 711 711 220
Width: 626
GlyphClass: 1
Flags: W
LayerCount: 2
Fore
SplineSet
70 1490 m 1,0,-1
 281 1490 l 2,1,2
 298 1490 298 1490 313 1484.5 c 128,-1,3
 328 1479 328 1479 336 1470 c 2,4,-1
 401 1391 l 2,5,6
 406 1386 406 1386 412.5 1378 c 128,-1,7
 419 1370 419 1370 424 1362 c 1,8,9
 431 1370 431 1370 438.5 1377 c 128,-1,10
 446 1384 446 1384 453 1391 c 2,11,-1
 537 1470 l 2,12,13
 545 1478 545 1478 562.5 1484 c 128,-1,14
 580 1490 580 1490 598 1490 c 2,15,-1
 801 1490 l 1,16,-1
 543 1196 l 1,17,-1
 254 1196 l 1,18,-1
 70 1490 l 1,0,-1
EndSplineSet
Validated: 1
Substitution2: "'case' Case-Sensitive Forms in Latin lookup 0 subtable" caron.case
EndChar

StartChar: breve
Encoding: 728 728 222
Width: 626
GlyphClass: 1
Flags: W
LayerCount: 2
Fore
SplineSet
399 1187 m 0,0,1
 320 1187 320 1187 266.5 1206 c 128,-1,2
 213 1225 213 1225 180 1257.5 c 128,-1,3
 147 1290 147 1290 133 1335 c 128,-1,4
 119 1380 119 1380 119 1432 c 0,5,6
 119 1446 119 1446 120 1461 c 128,-1,7
 121 1476 121 1476 123 1490 c 1,8,-1
 336 1490 l 1,9,10
 333 1468 333 1468 333 1451 c 0,11,12
 333 1412 333 1412 352.5 1392.5 c 128,-1,13
 372 1373 372 1373 424 1373 c 0,14,15
 456 1373 456 1373 476.5 1381 c 128,-1,16
 497 1389 497 1389 509.5 1403 c 128,-1,17
 522 1417 522 1417 529 1439 c 128,-1,18
 536 1461 536 1461 539 1490 c 1,19,-1
 752 1490 l 1,20,21
 744 1429 744 1429 721.5 1373.5 c 128,-1,22
 699 1318 699 1318 657.5 1276.5 c 128,-1,23
 616 1235 616 1235 552.5 1211 c 128,-1,24
 489 1187 489 1187 399 1187 c 0,0,1
EndSplineSet
Validated: 1
Substitution2: "'case' Case-Sensitive Forms in Latin lookup 0 subtable" breve.case
EndChar

StartChar: dotaccent
Encoding: 729 729 223
Width: 626
GlyphClass: 1
Flags: W
LayerCount: 2
Fore
SplineSet
612 1354 m 256,0,1
 612 1316 612 1316 597 1282 c 128,-1,2
 582 1248 582 1248 555 1223 c 128,-1,3
 528 1198 528 1198 493 1183.5 c 128,-1,4
 458 1169 458 1169 418 1169 c 0,5,6
 379 1169 379 1169 345 1183.5 c 128,-1,7
 311 1198 311 1198 285 1223 c 128,-1,8
 259 1248 259 1248 244 1282 c 128,-1,9
 229 1316 229 1316 229 1354 c 256,10,11
 229 1392 229 1392 244 1426 c 128,-1,12
 259 1460 259 1460 285 1485 c 128,-1,13
 311 1510 311 1510 345 1525 c 128,-1,14
 379 1540 379 1540 418 1540 c 0,15,16
 458 1540 458 1540 493 1525 c 128,-1,17
 528 1510 528 1510 555 1485 c 128,-1,18
 582 1460 582 1460 597 1426 c 128,-1,19
 612 1392 612 1392 612 1354 c 256,0,1
EndSplineSet
Validated: 1
Substitution2: "'case' Case-Sensitive Forms in Latin lookup 0 subtable" dotaccent.case
EndChar

StartChar: ring
Encoding: 730 730 224
Width: 626
GlyphClass: 1
Flags: W
LayerCount: 2
Fore
SplineSet
168 1366 m 0,0,1
 168 1417 168 1417 188.5 1458.5 c 128,-1,2
 209 1500 209 1500 242.5 1530 c 128,-1,3
 276 1560 276 1560 321.5 1575.5 c 128,-1,4
 367 1591 367 1591 416 1591 c 0,5,6
 466 1591 466 1591 512 1575.5 c 128,-1,7
 558 1560 558 1560 593.5 1530 c 128,-1,8
 629 1500 629 1500 649.5 1458.5 c 128,-1,9
 670 1417 670 1417 670 1366 c 0,10,11
 670 1316 670 1316 649.5 1275.5 c 128,-1,12
 629 1235 629 1235 593.5 1206.5 c 128,-1,13
 558 1178 558 1178 512 1162 c 128,-1,14
 466 1146 466 1146 416 1146 c 0,15,16
 367 1146 367 1146 321.5 1162 c 128,-1,17
 276 1178 276 1178 242.5 1206.5 c 128,-1,18
 209 1235 209 1235 188.5 1275.5 c 128,-1,19
 168 1316 168 1316 168 1366 c 0,0,1
338 1366 m 0,20,21
 338 1330 338 1330 358 1307 c 128,-1,22
 378 1284 378 1284 420 1284 c 0,23,24
 457 1284 457 1284 478.5 1307 c 128,-1,25
 500 1330 500 1330 500 1366 c 0,26,27
 500 1405 500 1405 478.5 1427.5 c 128,-1,28
 457 1450 457 1450 420 1450 c 0,29,30
 378 1450 378 1450 358 1427.5 c 128,-1,31
 338 1405 338 1405 338 1366 c 0,20,21
EndSplineSet
Validated: 1
Substitution2: "'case' Case-Sensitive Forms in Latin lookup 0 subtable" ring.case
EndChar

StartChar: ogonek
Encoding: 731 731 225
Width: 626
GlyphClass: 1
Flags: W
LayerCount: 2
Fore
SplineSet
365 -175 m 0,0,1
 387 -175 387 -175 389 -195 c 2,2,-1
 420 -304 l 1,3,4
 384 -326 384 -326 332.5 -340.5 c 128,-1,5
 281 -355 281 -355 225 -355 c 0,6,7
 129 -355 129 -355 82 -316.5 c 128,-1,8
 35 -278 35 -278 35 -219 c 0,9,10
 35 -158 35 -158 77.5 -99 c 128,-1,11
 120 -40 120 -40 217 12 c 1,12,-1
 373 0 l 1,13,14
 330 -24 330 -24 300 -58.5 c 128,-1,15
 270 -93 270 -93 270 -137 c 0,16,17
 270 -157 270 -157 280.5 -170.5 c 128,-1,18
 291 -184 291 -184 311 -184 c 0,19,20
 339 -184 339 -184 347.5 -179.5 c 128,-1,21
 356 -175 356 -175 365 -175 c 0,0,1
EndSplineSet
Validated: 1
EndChar

StartChar: tilde
Encoding: 732 732 226
Width: 626
GlyphClass: 1
Flags: W
LayerCount: 2
Fore
SplineSet
526 1414 m 0,0,1
 548 1414 548 1414 563 1428 c 128,-1,2
 578 1442 578 1442 584 1484 c 1,3,-1
 768 1484 l 1,4,5
 760 1422 760 1422 737 1371 c 128,-1,6
 714 1320 714 1320 679.5 1284.5 c 128,-1,7
 645 1249 645 1249 602 1229.5 c 128,-1,8
 559 1210 559 1210 512 1210 c 0,9,10
 476 1210 476 1210 447.5 1222.5 c 128,-1,11
 419 1235 419 1235 395 1249.5 c 128,-1,12
 371 1264 371 1264 351.5 1276 c 128,-1,13
 332 1288 332 1288 315 1288 c 0,14,15
 293 1288 293 1288 279 1273 c 128,-1,16
 265 1258 265 1258 260 1217 c 1,17,-1
 74 1217 l 1,18,19
 81 1279 81 1279 105 1329.5 c 128,-1,20
 129 1380 129 1380 163.5 1416.5 c 128,-1,21
 198 1453 198 1453 241 1472.5 c 128,-1,22
 284 1492 284 1492 330 1492 c 0,23,24
 365 1492 365 1492 394 1479.5 c 128,-1,25
 423 1467 423 1467 447 1453 c 128,-1,26
 471 1439 471 1439 490.5 1426.5 c 128,-1,27
 510 1414 510 1414 526 1414 c 0,0,1
EndSplineSet
Validated: 1
Substitution2: "'case' Case-Sensitive Forms in Latin lookup 0 subtable" tilde.case
EndChar

StartChar: hungarumlaut
Encoding: 733 733 227
Width: 626
GlyphClass: 1
Flags: W
LayerCount: 2
Fore
SplineSet
575 1506 m 1,0,-1
 354 1237 l 2,1,2
 332 1211 332 1211 308 1203.5 c 128,-1,3
 284 1196 284 1196 250 1196 c 2,4,-1
 125 1196 l 1,5,-1
 264 1447 l 2,6,7
 282 1476 282 1476 307.5 1491 c 128,-1,8
 333 1506 333 1506 379 1506 c 2,9,-1
 575 1506 l 1,0,-1
940 1506 m 1,10,-1
 659 1237 l 2,11,12
 635 1213 635 1213 613 1204.5 c 128,-1,13
 591 1196 591 1196 557 1196 c 2,14,-1
 412 1196 l 1,15,-1
 608 1447 l 2,16,17
 618 1460 618 1460 629.5 1471.5 c 128,-1,18
 641 1483 641 1483 654.5 1490.5 c 128,-1,19
 668 1498 668 1498 684 1502 c 128,-1,20
 700 1506 700 1506 723 1506 c 2,21,-1
 940 1506 l 1,10,-1
EndSplineSet
Validated: 1
Substitution2: "'case' Case-Sensitive Forms in Latin lookup 0 subtable" hungarumlaut.case
EndChar

StartChar: pi
Encoding: 960 960 228
Width: 1269
GlyphClass: 1
Flags: W
LayerCount: 2
Fore
SplineSet
1303 1060 m 1,0,-1
 1286 941 l 2,1,2
 1281 904 1281 904 1254 877 c 128,-1,3
 1227 850 1227 850 1184 850 c 2,4,-1
 1114 850 l 1,5,-1
 1010 0 l 1,6,-1
 705 0 l 1,7,-1
 808 850 l 1,8,-1
 551 850 l 1,9,-1
 481 287 l 2,10,11
 473 220 473 220 451 164.5 c 128,-1,12
 429 109 429 109 389 69 c 128,-1,13
 349 29 349 29 290 6.5 c 128,-1,14
 231 -16 231 -16 150 -16 c 0,15,16
 114 -16 114 -16 71.5 -7.5 c 128,-1,17
 29 1 29 1 -8 22 c 1,18,-1
 16 145 l 2,19,20
 20 167 20 167 32.5 181.5 c 128,-1,21
 45 196 45 196 82 196 c 0,22,23
 109 196 109 196 125.5 201 c 128,-1,24
 142 206 142 206 152.5 217.5 c 128,-1,25
 163 229 163 229 168 247 c 128,-1,26
 173 265 173 265 176 291 c 2,27,-1
 245 850 l 1,28,-1
 86 850 l 1,29,-1
 100 956 l 2,30,31
 102 972 102 972 112 991 c 128,-1,32
 122 1010 122 1010 138.5 1025 c 128,-1,33
 155 1040 155 1040 177 1050 c 128,-1,34
 199 1060 199 1060 225 1060 c 2,35,-1
 1303 1060 l 1,0,-1
EndSplineSet
Validated: 1
EndChar

StartChar: endash
Encoding: 8211 8211 229
Width: 1097
GlyphClass: 1
Flags: W
LayerCount: 2
Fore
SplineSet
190 725 m 1,0,-1
 965 725 l 1,1,-1
 938 515 l 1,2,-1
 164 515 l 1,3,-1
 190 725 l 1,0,-1
EndSplineSet
Validated: 1
EndChar

StartChar: emdash
Encoding: 8212 8212 230
Width: 1630
GlyphClass: 1
Flags: W
LayerCount: 2
Fore
SplineSet
190 725 m 1,0,-1
 1497 725 l 1,1,-1
 1470 515 l 1,2,-1
 164 515 l 1,3,-1
 190 725 l 1,0,-1
EndSplineSet
Validated: 1
EndChar

StartChar: quoteleft
Encoding: 8216 8216 231
Width: 448
GlyphClass: 1
Flags: W
LayerCount: 2
Fore
SplineSet
211 978 m 1,0,1
 186 1028 186 1028 174.5 1078 c 128,-1,2
 163 1128 163 1128 163 1179 c 0,3,4
 163 1300 163 1300 230 1413 c 128,-1,5
 297 1526 297 1526 428 1620 c 1,6,-1
 515 1565 l 2,7,8
 524 1560 524 1560 529.5 1550 c 128,-1,9
 535 1540 535 1540 535 1530 c 0,10,11
 535 1516 535 1516 527.5 1505.5 c 128,-1,12
 520 1495 520 1495 505 1478 c 0,13,14
 496 1467 496 1467 481 1446.5 c 128,-1,15
 466 1426 466 1426 452.5 1398.5 c 128,-1,16
 439 1371 439 1371 429.5 1336.5 c 128,-1,17
 420 1302 420 1302 420 1262 c 0,18,19
 420 1230 420 1230 427.5 1195.5 c 128,-1,20
 435 1161 435 1161 453 1123 c 0,21,22
 457 1115 457 1115 457 1104 c 0,23,24
 457 1086 457 1086 442.5 1070.5 c 128,-1,25
 428 1055 428 1055 403 1047 c 2,26,-1
 211 978 l 1,0,1
EndSplineSet
Validated: 1
EndChar

StartChar: quoteright
Encoding: 8217 8217 232
Width: 448
GlyphClass: 1
Flags: W
LayerCount: 2
Fore
SplineSet
446 1580 m 1,0,1
 471 1530 471 1530 483 1480 c 128,-1,2
 495 1430 495 1430 495 1379 c 0,3,4
 495 1258 495 1258 427.5 1145 c 128,-1,5
 360 1032 360 1032 229 938 c 1,6,-1
 142 993 l 2,7,8
 133 998 133 998 128 1008 c 128,-1,9
 123 1018 123 1018 123 1028 c 0,10,11
 123 1042 123 1042 130 1052.5 c 128,-1,12
 137 1063 137 1063 152 1080 c 0,13,14
 162 1090 162 1090 176 1111 c 128,-1,15
 190 1132 190 1132 204 1159.5 c 128,-1,16
 218 1187 218 1187 228 1221.5 c 128,-1,17
 238 1256 238 1256 238 1296 c 0,18,19
 238 1328 238 1328 230 1362.5 c 128,-1,20
 222 1397 222 1397 205 1435 c 0,21,22
 201 1443 201 1443 201 1454 c 0,23,24
 201 1472 201 1472 215 1487.5 c 128,-1,25
 229 1503 229 1503 254 1511 c 2,26,-1
 446 1580 l 1,0,1
EndSplineSet
Validated: 1
EndChar

StartChar: quotesinglbase
Encoding: 8218 8218 233
Width: 499
GlyphClass: 1
Flags: W
LayerCount: 2
Fore
SplineSet
305 332 m 1,0,1
 330 282 330 282 341.5 231.5 c 128,-1,2
 353 181 353 181 353 131 c 0,3,4
 353 10 353 10 286 -103 c 128,-1,5
 219 -216 219 -216 88 -310 c 1,6,-1
 1 -255 l 2,7,8
 -8 -250 -8 -250 -13 -240 c 128,-1,9
 -18 -230 -18 -230 -18 -220 c 0,10,11
 -18 -206 -18 -206 -11 -195.5 c 128,-1,12
 -4 -185 -4 -185 10 -168 c 0,13,14
 20 -158 20 -158 34.5 -137.5 c 128,-1,15
 49 -117 49 -117 63 -89 c 128,-1,16
 77 -61 77 -61 86.5 -26.5 c 128,-1,17
 96 8 96 8 96 48 c 0,18,19
 96 80 96 80 88.5 114 c 128,-1,20
 81 148 81 148 63 186 c 0,21,22
 59 194 59 194 59 206 c 0,23,24
 59 224 59 224 73.5 239.5 c 128,-1,25
 88 255 88 255 113 263 c 2,26,-1
 305 332 l 1,0,1
EndSplineSet
Validated: 1
EndChar

StartChar: quotedblleft
Encoding: 8220 8220 234
Width: 792
GlyphClass: 1
Flags: W
LayerCount: 2
Fore
SplineSet
211 978 m 1,0,1
 186 1028 186 1028 174.5 1078 c 128,-1,2
 163 1128 163 1128 163 1179 c 0,3,4
 163 1300 163 1300 230 1413 c 128,-1,5
 297 1526 297 1526 428 1620 c 1,6,-1
 515 1565 l 2,7,8
 524 1560 524 1560 529.5 1550 c 128,-1,9
 535 1540 535 1540 535 1530 c 0,10,11
 535 1516 535 1516 527.5 1505.5 c 128,-1,12
 520 1495 520 1495 505 1478 c 0,13,14
 496 1467 496 1467 481 1446.5 c 128,-1,15
 466 1426 466 1426 452.5 1398.5 c 128,-1,16
 439 1371 439 1371 429.5 1336.5 c 128,-1,17
 420 1302 420 1302 420 1262 c 0,18,19
 420 1230 420 1230 427.5 1195.5 c 128,-1,20
 435 1161 435 1161 453 1123 c 0,21,22
 457 1115 457 1115 457 1104 c 0,23,24
 457 1086 457 1086 442.5 1070.5 c 128,-1,25
 428 1055 428 1055 403 1047 c 2,26,-1
 211 978 l 1,0,1
555 978 m 1,27,28
 530 1028 530 1028 518.5 1078 c 128,-1,29
 507 1128 507 1128 507 1179 c 0,30,31
 507 1300 507 1300 574 1413 c 128,-1,32
 641 1526 641 1526 772 1620 c 1,33,-1
 859 1565 l 2,34,35
 868 1560 868 1560 873.5 1550 c 128,-1,36
 879 1540 879 1540 879 1530 c 0,37,38
 879 1516 879 1516 871.5 1505.5 c 128,-1,39
 864 1495 864 1495 849 1478 c 0,40,41
 840 1467 840 1467 825 1446.5 c 128,-1,42
 810 1426 810 1426 796.5 1398.5 c 128,-1,43
 783 1371 783 1371 773.5 1336.5 c 128,-1,44
 764 1302 764 1302 764 1262 c 0,45,46
 764 1230 764 1230 771.5 1195.5 c 128,-1,47
 779 1161 779 1161 797 1123 c 0,48,49
 801 1115 801 1115 801 1104 c 0,50,51
 801 1086 801 1086 786.5 1070.5 c 128,-1,52
 772 1055 772 1055 748 1047 c 2,53,-1
 555 978 l 1,27,28
EndSplineSet
Validated: 1
EndChar

StartChar: quotedblright
Encoding: 8221 8221 235
Width: 792
GlyphClass: 1
Flags: W
LayerCount: 2
Fore
SplineSet
446 1580 m 1,0,1
 471 1530 471 1530 483 1480 c 128,-1,2
 495 1430 495 1430 495 1379 c 0,3,4
 495 1258 495 1258 427.5 1145 c 128,-1,5
 360 1032 360 1032 229 938 c 1,6,-1
 142 993 l 2,7,8
 133 998 133 998 128 1008 c 128,-1,9
 123 1018 123 1018 123 1028 c 0,10,11
 123 1042 123 1042 130 1052.5 c 128,-1,12
 137 1063 137 1063 152 1080 c 0,13,14
 162 1090 162 1090 176 1111 c 128,-1,15
 190 1132 190 1132 204 1159.5 c 128,-1,16
 218 1187 218 1187 228 1221.5 c 128,-1,17
 238 1256 238 1256 238 1296 c 0,18,19
 238 1328 238 1328 230 1362.5 c 128,-1,20
 222 1397 222 1397 205 1435 c 0,21,22
 201 1443 201 1443 201 1454 c 0,23,24
 201 1472 201 1472 215 1487.5 c 128,-1,25
 229 1503 229 1503 254 1511 c 2,26,-1
 446 1580 l 1,0,1
788 1580 m 1,27,28
 813 1530 813 1530 825 1480 c 128,-1,29
 837 1430 837 1430 837 1379 c 0,30,31
 837 1258 837 1258 769.5 1145 c 128,-1,32
 702 1032 702 1032 571 938 c 1,33,-1
 484 993 l 2,34,35
 475 998 475 998 470 1008 c 128,-1,36
 465 1018 465 1018 465 1028 c 0,37,38
 465 1042 465 1042 472 1052.5 c 128,-1,39
 479 1063 479 1063 494 1080 c 0,40,41
 504 1090 504 1090 518 1111 c 128,-1,42
 532 1132 532 1132 546 1159.5 c 128,-1,43
 560 1187 560 1187 570 1221.5 c 128,-1,44
 580 1256 580 1256 580 1296 c 0,45,46
 580 1328 580 1328 572 1362.5 c 128,-1,47
 564 1397 564 1397 547 1435 c 0,48,49
 543 1443 543 1443 543 1454 c 0,50,51
 543 1472 543 1472 557 1487.5 c 128,-1,52
 571 1503 571 1503 596 1511 c 2,53,-1
 788 1580 l 1,27,28
EndSplineSet
Validated: 1
EndChar

StartChar: quotedblbase
Encoding: 8222 8222 236
Width: 792
GlyphClass: 1
Flags: W
LayerCount: 2
Fore
SplineSet
305 332 m 1,0,1
 330 282 330 282 341.5 231.5 c 128,-1,2
 353 181 353 181 353 131 c 0,3,4
 353 10 353 10 286 -103 c 128,-1,5
 219 -216 219 -216 88 -310 c 1,6,-1
 1 -255 l 2,7,8
 -8 -250 -8 -250 -13 -240 c 128,-1,9
 -18 -230 -18 -230 -18 -220 c 0,10,11
 -18 -206 -18 -206 -11 -195.5 c 128,-1,12
 -4 -185 -4 -185 10 -168 c 0,13,14
 20 -158 20 -158 34.5 -137.5 c 128,-1,15
 49 -117 49 -117 63 -89 c 128,-1,16
 77 -61 77 -61 86.5 -26.5 c 128,-1,17
 96 8 96 8 96 48 c 0,18,19
 96 80 96 80 88.5 114 c 128,-1,20
 81 148 81 148 63 186 c 0,21,22
 59 194 59 194 59 206 c 0,23,24
 59 224 59 224 73.5 239.5 c 128,-1,25
 88 255 88 255 113 263 c 2,26,-1
 305 332 l 1,0,1
649 332 m 1,27,28
 674 282 674 282 685.5 231.5 c 128,-1,29
 697 181 697 181 697 131 c 0,30,31
 697 10 697 10 630 -103 c 128,-1,32
 563 -216 563 -216 432 -310 c 1,33,-1
 345 -255 l 2,34,35
 336 -250 336 -250 331 -240 c 128,-1,36
 326 -230 326 -230 326 -220 c 0,37,38
 326 -206 326 -206 333 -195.5 c 128,-1,39
 340 -185 340 -185 354 -168 c 0,40,41
 364 -158 364 -158 378.5 -137.5 c 128,-1,42
 393 -117 393 -117 407 -89 c 128,-1,43
 421 -61 421 -61 430.5 -26.5 c 128,-1,44
 440 8 440 8 440 48 c 0,45,46
 440 80 440 80 432.5 114 c 128,-1,47
 425 148 425 148 408 186 c 0,48,49
 404 194 404 194 403 206 c 0,50,51
 403 224 403 224 417.5 239.5 c 128,-1,52
 432 255 432 255 457 263 c 2,53,-1
 649 332 l 1,27,28
EndSplineSet
Validated: 1
EndChar

